  0
SECTION
  2
HEADER
  9
$ACADVER
  1
AC1024
  9
$ACADMAINTVER
 70
     6
  9
$DWGCODEPAGE
  3
UNDEFINED
  9
$INSBASE
 10
0.0
 20
0.0
 30
0.0
  9
$EXTMIN
 10
1.000000000000000E+20
 20
1.000000000000000E+20
 30
1.000000000000000E+20
  9
$EXTMAX
 10
-1.000000000000000E+20
 20
-1.000000000000000E+20
 30
-1.000000000000000E+20
  9
$LIMMIN
 10
0.0
 20
0.0
  9
$LIMMAX
 10
12.0
 20
9.0
  9
$ORTHOMODE
 70
     0
  9
$REGENMODE
 70
     1
  9
$FILLMODE
 70
     1
  9
$QTEXTMODE
 70
     0
  9
$MIRRTEXT
 70
     1
  9
$LTSCALE
 40
1.0
  9
$ATTMODE
 70
     1
  9
$TEXTSIZE
 40
0.2
  9
$TRACEWID
 40
0.05
  9
$TEXTSTYLE
  7
Standard
  9
$CLAYER
  8
0
  9
$CELTYPE
  6
ByLayer
  9
$CECOLOR
 62
   256
  9
$CELTSCALE
 40
1.0
  9
$DISPSILH
 70
     0
  9
$DIMSCALE
 40
1.0
  9
$DIMASZ
 40
0.18
  9
$DIMEXO
 40
0.0625
  9
$DIMDLI
 40
0.38
  9
$DIMRND
 40
0.0
  9
$DIMDLE
 40
0.0
  9
$DIMEXE
 40
0.18
  9
$DIMTP
 40
0.0
  9
$DIMTM
 40
0.0
  9
$DIMTXT
 40
0.18
  9
$DIMCEN
 40
0.09
  9
$DIMTSZ
 40
0.0
  9
$DIMTOL
 70
     0
  9
$DIMLIM
 70
     0
  9
$DIMTIH
 70
     1
  9
$DIMTOH
 70
     1
  9
$DIMSE1
 70
     0
  9
$DIMSE2
 70
     0
  9
$DIMTAD
 70
     0
  9
$DIMZIN
 70
     0
  9
$DIMBLK
  1

  9
$DIMASO
 70
     1
  9
$DIMSHO
 70
     1
  9
$DIMPOST
  1

  9
$DIMAPOST
  1

  9
$DIMALT
 70
     0
  9
$DIMALTD
 70
     2
  9
$DIMALTF
 40
25.4
  9
$DIMLFAC
 40
1.0
  9
$DIMTOFL
 70
     0
  9
$DIMTVP
 40
0.0
  9
$DIMTIX
 70
     0
  9
$DIMSOXD
 70
     0
  9
$DIMSAH
 70
     0
  9
$DIMBLK1
  1

  9
$DIMBLK2
  1

  9
$DIMSTYLE
  2
Standard
  9
$DIMCLRD
 70
     0
  9
$DIMCLRE
 70
     0
  9
$DIMCLRT
 70
     0
  9
$DIMTFAC
 40
1.0
  9
$DIMGAP
 40
0.09
  9
$DIMJUST
 70
     0
  9
$DIMSD1
 70
     0
  9
$DIMSD2
 70
     0
  9
$DIMTOLJ
 70
     1
  9
$DIMTZIN
 70
     0
  9
$DIMALTZ
 70
     0
  9
$DIMALTTZ
 70
     0
  9
$DIMUPT
 70
     0
  9
$DIMDEC
 70
     4
  9
$DIMTDEC
 70
     4
  9
$DIMALTU
 70
     2
  9
$DIMALTTD
 70
     2
  9
$DIMTXSTY
  7
Standard
  9
$DIMAUNIT
 70
     0
  9
$DIMADEC
 70
     0
  9
$DIMALTRND
 40
0.0
  9
$DIMAZIN
 70
     0
  9
$DIMDSEP
 70
    46
  9
$DIMATFIT
 70
     3
  9
$DIMFRAC
 70
     0
  9
$DIMLDRBLK
  1

  9
$DIMLUNIT
 70
     2
  9
$DIMLWD
 70
    -2
  9
$DIMLWE
 70
    -2
  9
$DIMTMOVE
 70
     0
  9
$DIMFXL
 40
1.0
  9
$DIMFXLON
 70
     0
  9
$DIMJOGANG
 40
0.7853981633974483
  9
$DIMTFILL
 70
     0
  9
$DIMTFILLCLR
 70
     0
  9
$DIMARCSYM
 70
     0
  9
$DIMLTYPE
  6

  9
$DIMLTEX1
  6

  9
$DIMLTEX2
  6

  9
$DIMTXTDIRECTION
 70
     0
  9
$LUNITS
 70
     2
  9
$LUPREC
 70
     4
  9
$SKETCHINC
 40
0.1
  9
$FILLETRAD
 40
0.5
  9
$AUNITS
 70
     0
  9
$AUPREC
 70
     0
  9
$MENU
  1
.
  9
$ELEVATION
 40
0.0
  9
$PELEVATION
 40
0.0
  9
$THICKNESS
 40
0.0
  9
$LIMCHECK
 70
     0
  9
$CHAMFERA
 40
0.5
  9
$CHAMFERB
 40
0.5
  9
$CHAMFERC
 40
1.0
  9
$CHAMFERD
 40
0.0
  9
$SKPOLY
 70
     0
  9
$TDCREATE
 40
2456768.879074063
  9
$TDUCREATE
 40
2456769.087407407
  9
$TDUPDATE
 40
2456768.879074063
  9
$TDUUPDATE
 40
2456769.087407407
  9
$TDINDWG
 40
0.0000000116
  9
$TDUSRTIMER
 40
0.0000000116
  9
$USRTIMER
 70
     1
  9
$ANGBASE
 50
0.0
  9
$ANGDIR
 70
     0
  9
$PDMODE
 70
     0
  9
$PDSIZE
 40
0.0
  9
$PLINEWID
 40
0.0
  9
$SPLFRAME
 70
     0
  9
$SPLINETYPE
 70
     6
  9
$SPLINESEGS
 70
     8
  9
$HANDSEED
  5
A5
  9
$SURFTAB1
 70
     6
  9
$SURFTAB2
 70
     6
  9
$SURFTYPE
 70
     6
  9
$SURFU
 70
     6
  9
$SURFV
 70
     6
  9
$UCSBASE
  2

  9
$UCSNAME
  2

  9
$UCSORG
 10
0.0
 20
0.0
 30
0.0
  9
$UCSXDIR
 10
1.0
 20
0.0
 30
0.0
  9
$UCSYDIR
 10
0.0
 20
1.0
 30
0.0
  9
$UCSORTHOREF
  2

  9
$UCSORTHOVIEW
 70
     0
  9
$UCSORGTOP
 10
0.0
 20
0.0
 30
0.0
  9
$UCSORGBOTTOM
 10
0.0
 20
0.0
 30
0.0
  9
$UCSORGLEFT
 10
0.0
 20
0.0
 30
0.0
  9
$UCSORGRIGHT
 10
0.0
 20
0.0
 30
0.0
  9
$UCSORGFRONT
 10
0.0
 20
0.0
 30
0.0
  9
$UCSORGBACK
 10
0.0
 20
0.0
 30
0.0
  9
$PUCSBASE
  2

  9
$PUCSNAME
  2

  9
$PUCSORG
 10
0.0
 20
0.0
 30
0.0
  9
$PUCSXDIR
 10
1.0
 20
0.0
 30
0.0
  9
$PUCSYDIR
 10
0.0
 20
1.0
 30
0.0
  9
$PUCSORTHOREF
  2

  9
$PUCSORTHOVIEW
 70
     0
  9
$PUCSORGTOP
 10
0.0
 20
0.0
 30
0.0
  9
$PUCSORGBOTTOM
 10
0.0
 20
0.0
 30
0.0
  9
$PUCSORGLEFT
 10
0.0
 20
0.0
 30
0.0
  9
$PUCSORGRIGHT
 10
0.0
 20
0.0
 30
0.0
  9
$PUCSORGFRONT
 10
0.0
 20
0.0
 30
0.0
  9
$PUCSORGBACK
 10
0.0
 20
0.0
 30
0.0
  9
$USERI1
 70
     0
  9
$USERI2
 70
     0
  9
$USERI3
 70
     0
  9
$USERI4
 70
     0
  9
$USERI5
 70
     0
  9
$USERR1
 40
0.0
  9
$USERR2
 40
0.0
  9
$USERR3
 40
0.0
  9
$USERR4
 40
0.0
  9
$USERR5
 40
0.0
  9
$WORLDVIEW
 70
     1
  9
$SHADEDGE
 70
     3
  9
$SHADEDIF
 70
    70
  9
$TILEMODE
 70
     1
  9
$MAXACTVP
 70
    64
  9
$PINSBASE
 10
0.0
 20
0.0
 30
0.0
  9
$PLIMCHECK
 70
     0
  9
$PEXTMIN
 10
1.000000000000000E+20
 20
1.000000000000000E+20
 30
1.000000000000000E+20
  9
$PEXTMAX
 10
-1.000000000000000E+20
 20
-1.000000000000000E+20
 30
-1.000000000000000E+20
  9
$PLIMMIN
 10
0.0
 20
0.0
  9
$PLIMMAX
 10
12.0
 20
9.0
  9
$UNITMODE
 70
     0
  9
$VISRETAIN
 70
     1
  9
$PLINEGEN
 70
     0
  9
$PSLTSCALE
 70
     1
  9
$TREEDEPTH
 70
  3020
  9
$CMLSTYLE
  2
Standard
  9
$CMLJUST
 70
     0
  9
$CMLSCALE
 40
1.0
  9
$PROXYGRAPHICS
 70
     1
  9
$MEASUREMENT
 70
     0
  9
$CELWEIGHT
370
    -1
  9
$ENDCAPS
280
     0
  9
$JOINSTYLE
280
     0
  9
$LWDISPLAY
290
     1
  9
$INSUNITS
 70
     1
  9
$HYPERLINKBASE
  1

  9
$STYLESHEET
  1

  9
$XEDIT
290
     1
  9
$CEPSNTYPE
380
     0
  9
$PSTYLEMODE
290
     1
  9
$FINGERPRINTGUID
  2
{AB4E53C8-0620-734D-6E1D-6E21A0BAC4BD}
  9
$VERSIONGUID
  2
{FAEB1C32-E019-11D5-929B-00C0DF256EC4}
  9
$EXTNAMES
290
     1
  9
$PSVPSCALE
 40
0.0
  9
$OLESTARTUP
290
     0
  9
$SORTENTS
280
   127
  9
$INDEXCTL
280
     0
  9
$HIDETEXT
280
     1
  9
$XCLIPFRAME
280
     2
  9
$HALOGAP
280
     0
  9
$OBSCOLOR
 70
   257
  9
$OBSLTYPE
280
     0
  9
$INTERSECTIONDISPLAY
280
     0
  9
$INTERSECTIONCOLOR
 70
   257
  9
$DIMASSOC
280
     2
  9
$PROJECTNAME
  1

  9
$CAMERADISPLAY
290
     0
  9
$LENSLENGTH
 40
50.0
  9
$CAMERAHEIGHT
 40
0.0
  9
$STEPSPERSEC
 40
2.0
  9
$STEPSIZE
 40
6.0
  9
$3DDWFPREC
 40
2.0
  9
$PSOLWIDTH
 40
0.25
  9
$PSOLHEIGHT
 40
4.0
  9
$LOFTANG1
 40
1.570796326794897
  9
$LOFTANG2
 40
1.570796326794897
  9
$LOFTMAG1
 40
0.0
  9
$LOFTMAG2
 40
0.0
  9
$LOFTPARAM
 70
     7
  9
$LOFTNORMALS
280
     1
  9
$LATITUDE
 40
37.795
  9
$LONGITUDE
 40
-122.394
  9
$NORTHDIRECTION
 40
0.0
  9
$TIMEZONE
 70
 -8000
  9
$LIGHTGLYPHDISPLAY
280
     1
  9
$TILEMODELIGHTSYNCH
280
     1
  9
$CMATERIAL
347
3C
  9
$SOLIDHIST
280
     1
  9
$SHOWHIST
280
     1
  9
$DWFFRAME
280
     2
  9
$DGNFRAME
280
     2
  9
$REALWORLDSCALE
290
     1
  9
$INTERFERECOLOR
 62
   256
  9
$CSHADOW
280
     0
  9
$SHADOWPLANELOCATION
 40
0.0
  0
ENDSEC
  0
SECTION
  2
CLASSES
  0
CLASS
  1
ACDBDICTIONARYWDFLT
  2
AcDbDictionaryWithDefault
  3
ObjectDBX Classes
 90
        0
 91
        4
280
     0
281
     0
  0
CLASS
  1
VISUALSTYLE
  2
AcDbVisualStyle
  3
ObjectDBX Classes
 90
     4095
 91
        4
280
     0
281
     0
  0
CLASS
  1
MATERIAL
  2
AcDbMaterial
  3
ObjectDBX Classes
 90
     1153
 91
        4
280
     0
281
     0
  0
CLASS
  1
SUN
  2
AcDbSun
  3
SCENEOE
 90
     1024
 91
        4
280
     0
281
     0
  0
ENDSEC
  0
SECTION
  2
TABLES
  0
TABLE
  2
VPORT
  5
8
330
0
100
AcDbSymbolTable
 70
     1
  0
VPORT
  5
29
330
8
100
AcDbSymbolTableRecord
100
AcDbViewportTableRecord
  2
*Active
 70
     0
 10
0.0
 20
0.0
 11
1.0
 21
1.0
 12
0.0
 22
0.0
 13
0.0
 23
0.0
 14
0.5
 24
0.5
 15
0.5
 25
0.5
 16
0.0
 26
0.0
 36
1.0
 17
107.9499999730125
 27
-139.699999965075
 37
0.0
 40
279.39999993015
 41
0.7727272727272728
 42
50.0
 43
0.0
 44
0.0
 50
0.0
 51
0.0
 71
     0
 72
   100
 73
     1
 74
     3
 75
     0
 76
     0
 77
     0
 78
     0
281
     0
 65
     1
110
0.0
120
0.0
130
0.0
111
1.0
121
0.0
131
0.0
112
0.0
122
1.0
132
0.0
 79
     0
146
0.0
 60
     3
 61
     5
292
     1
282
     1
141
0.0
142
0.0
 63
   250
361
3F
  0
ENDTAB
  0
TABLE
  2
LTYPE
  5
5
330
0
100
AcDbSymbolTable
 70
     1
  0
LTYPE
  5
14
330
5
100
AcDbSymbolTableRecord
100
AcDbLinetypeTableRecord
  2
ByBlock
 70
     0
  3

 72
    65
 73
     0
 40
0.0
  0
LTYPE
  5
15
330
5
100
AcDbSymbolTableRecord
100
AcDbLinetypeTableRecord
  2
ByLayer
 70
     0
  3

 72
    65
 73
     0
 40
0.0
  0
LTYPE
  5
16
330
5
100
AcDbSymbolTableRecord
100
AcDbLinetypeTableRecord
  2
Continuous
 70
     0
  3
Solid line
 72
    65
 73
     0
 40
0.0
  0
ENDTAB
  0
TABLE
  2
LAYER
  5
2
330
0
100
AcDbSymbolTable
 70
     6
  0
LAYER
  5
10
330
2
100
AcDbSymbolTableRecord
100
AcDbLayerTableRecord
  2
0
 70
     0
 62
     7
  6
Continuous
370
    -3
390
F
347
3E
  0
LAYER
  5
40
330
2
100
AcDbSymbolTableRecord
100
AcDbLayerTableRecord
  2
enclosure bottom
 70
     5
 62
     7
  6
Continuous
370
    -3
390
F
347
3E
  0
LAYER
  5
7D
330
2
100
AcDbSymbolTableRecord
100
AcDbLayerTableRecord
  2
inner outline
 70
     5
 62
     7
  6
Continuous
370
    -3
390
F
347
3E
  0
LAYER
  5
85
330
2
100
AcDbSymbolTableRecord
100
AcDbLayerTableRecord
  2
outer outline
 70
     4
 62
     7
  6
Continuous
370
    -3
390
F
347
3E
  0
LAYER
  5
8B
330
2
100
AcDbSymbolTableRecord
100
AcDbLayerTableRecord
  2
guides
 70
     5
 62
     7
  6
Continuous
370
    -3
390
F
347
3E
  0
LAYER
  5
97
330
2
100
AcDbSymbolTableRecord
100
AcDbLayerTableRecord
  2
mic
 70
     0
 62
     7
  6
Continuous
370
    -3
390
F
347
3E
  0
ENDTAB
  0
TABLE
  2
STYLE
  5
3
330
0
100
AcDbSymbolTable
 70
     1
  0
STYLE
  5
11
330
3
100
AcDbSymbolTableRecord
100
AcDbTextStyleTableRecord
  2
Standard
 70
     0
 40
0.0
 41
1.0
 50
0.0
 71
     0
 42
0.2
  3
txt
  4

  0
ENDTAB
  0
TABLE
  2
VIEW
  5
6
330
0
100
AcDbSymbolTable
 70
     0
  0
ENDTAB
  0
TABLE
  2
UCS
  5
7
330
0
100
AcDbSymbolTable
 70
     0
  0
ENDTAB
  0
TABLE
  2
APPID
  5
9
330
0
100
AcDbSymbolTable
 70
     1
  0
APPID
  5
12
330
9
100
AcDbSymbolTableRecord
100
AcDbRegAppTableRecord
  2
ACAD
 70
     0
  0
ENDTAB
  0
TABLE
  2
DIMSTYLE
  5
A
330
0
100
AcDbSymbolTable
 70
     1
100
AcDbDimStyleTable
  0
DIMSTYLE
105
27
330
A
100
AcDbSymbolTableRecord
100
AcDbDimStyleTableRecord
  2
Standard
 70
     0
178
     0
340
11
  0
ENDTAB
  0
TABLE
  2
BLOCK_RECORD
  5
1
330
0
100
AcDbSymbolTable
 70
     1
  0
BLOCK_RECORD
  5
1F
330
1
100
AcDbSymbolTableRecord
100
AcDbBlockTableRecord
  2
*Model_Space
340
22
 70
     0
280
     1
281
     0
  0
BLOCK_RECORD
  5
1B
330
1
100
AcDbSymbolTableRecord
100
AcDbBlockTableRecord
  2
*Paper_Space
340
1E
 70
     0
280
     1
281
     0
  0
BLOCK_RECORD
  5
23
330
1
100
AcDbSymbolTableRecord
100
AcDbBlockTableRecord
  2
*Paper_Space0
340
26
 70
     0
280
     1
281
     0
  0
ENDTAB
  0
ENDSEC
  0
SECTION
  2
BLOCKS
  0
BLOCK
  5
20
330
1F
100
AcDbEntity
  8
0
100
AcDbBlockBegin
  2
*Model_Space
 70
     0
 10
0.0
 20
0.0
 30
0.0
  3
*Model_Space
  1

  0
ENDBLK
  5
21
330
1F
100
AcDbEntity
  8
0
100
AcDbBlockEnd
  0
BLOCK
  5
1C
330
1B
100
AcDbEntity
 67
     1
  8
0
100
AcDbBlockBegin
  2
*Paper_Space
 70
     0
 10
0.0
 20
0.0
 30
0.0
  3
*Paper_Space
  1

  0
ENDBLK
  5
1D
330
1B
100
AcDbEntity
 67
     1
  8
0
100
AcDbBlockEnd
  0
BLOCK
  5
24
330
23
100
AcDbEntity
  8
0
100
AcDbBlockBegin
  2
*Paper_Space0
 70
     0
 10
0.0
 20
0.0
 30
0.0
  3
*Paper_Space0
  1

  0
ENDBLK
  5
25
330
23
100
AcDbEntity
  8
0
100
AcDbBlockEnd
  0
ENDSEC
  0
SECTION
  2
ENTITIES
  0
SPLINE
  5
41
330
1F
100
AcDbEntity
  8
enclosure bottom
 62
   179
420
  2301728
370
    35
100
AcDbSpline
210
0.0
220
0.0
230
1.0
 70
    11
 71
     3
 72
    29
 73
    25
 74
     0
 42
0.0000000001
 43
0.0000000001
 12
1.0
 22
0.0
 32
0.0
 13
1.0
 23
0.0
 33
0.0
 40
0.0
 40
0.0
 40
0.0
 40
0.0
 40
1.0
 40
1.0
 40
1.0
 40
2.0
 40
2.0
 40
2.0
 40
3.0
 40
3.0
 40
3.0
 40
4.0
 40
4.0
 40
4.0
 40
5.0
 40
5.0
 40
5.0
 40
6.0
 40
6.0
 40
6.0
 40
7.0
 40
7.0
 40
7.0
 40
8.0
 40
8.0
 40
8.0
 40
8.0
 10
112.775000969959
 20
-153.1999999934107
 30
0.0
 10
113.216828769689
 20
-153.19999999341
 30
0.0
 10
113.6168287695895
 20
-153.3790860934456
 30
0.0
 10
113.9063718195566
 20
-153.6686291434127
 30
0.0
 10
114.1959148695243
 20
-153.9581721933804
 30
0.0
 10
114.3750009695592
 20
-154.3581721932803
 30
0.0
 10
114.3750009695586
 20
-154.7999999930097
 30
0.0
 10
114.3750009695586
 20
-155.241827792739
 30
0.0
 10
114.1959148695237
 20
-155.6418277926396
 30
0.0
 10
113.906371819556
 20
-155.9313708426073
 30
0.0
 10
113.6168287695889
 20
-156.220913892575
 30
0.0
 10
113.216828769689
 20
-156.3999999926106
 30
0.0
 10
112.775000969959
 20
-156.3999999926099
 30
0.0
 10
112.3331731702296
 20
-156.3999999926099
 30
0.0
 10
111.9331731703297
 20
-156.220913892575
 30
0.0
 10
111.6436301203619
 20
-155.9313708426073
 30
0.0
 10
111.3540870703942
 20
-155.6418277926396
 30
0.0
 10
111.1750009703593
 20
-155.2418277927397
 30
0.0
 10
111.1750009703593
 20
-154.7999999930103
 30
0.0
 10
111.17500097036
 20
-154.358172193281
 30
0.0
 10
111.3540870703955
 20
-153.958172193381
 30
0.0
 10
111.6436301203626
 20
-153.6686291434133
 30
0.0
 10
111.9331731703297
 20
-153.3790860934456
 30
0.0
 10
112.3331731702296
 20
-153.1999999934107
 30
0.0
 10
112.775000969959
 20
-153.1999999934107
 30
0.0
  0
SPLINE
  5
42
330
1F
100
AcDbEntity
  8
enclosure bottom
 62
   179
420
  2301728
370
    35
100
AcDbSpline
210
0.0
220
0.0
230
1.0
 70
    11
 71
     3
 72
    29
 73
    25
 74
     0
 42
0.0000000001
 43
0.0000000001
 12
1.0
 22
0.0
 32
0.0
 13
1.0
 23
0.0
 33
0.0
 40
0.0
 40
0.0
 40
0.0
 40
0.0
 40
1.0
 40
1.0
 40
1.0
 40
2.0
 40
2.0
 40
2.0
 40
3.0
 40
3.0
 40
3.0
 40
4.0
 40
4.0
 40
4.0
 40
5.0
 40
5.0
 40
5.0
 40
6.0
 40
6.0
 40
6.0
 40
7.0
 40
7.0
 40
7.0
 40
8.0
 40
8.0
 40
8.0
 40
8.0
 10
160.9629636574836
 20
-151.9000005105164
 30
0.0
 10
160.5211358577536
 20
-151.9000005105164
 30
0.0
 10
160.1211358578537
 20
-152.079086610552
 30
0.0
 10
159.831592807886
 20
-152.368629660519
 30
0.0
 10
159.5420497579183
 20
-152.6581727104868
 30
0.0
 10
159.3629636578834
 20
-153.0581727103867
 30
0.0
 10
159.3629636578834
 20
-153.5000005101161
 30
0.0
 10
159.3629636578834
 20
-153.9418283098454
 30
0.0
 10
159.5420497579183
 20
-154.3418283097453
 30
0.0
 10
159.831592807886
 20
-154.6313713597131
 30
0.0
 10
160.1211358578537
 20
-154.9209144096801
 30
0.0
 10
160.5211358577536
 20
-155.1000005097157
 30
0.0
 10
160.9629636574836
 20
-155.1000005097157
 30
0.0
 10
161.4047914572137
 20
-155.1000005097163
 30
0.0
 10
161.8047914571136
 20
-154.9209144096814
 30
0.0
 10
162.0943345070806
 20
-154.6313713597137
 30
0.0
 10
162.3838775570484
 20
-154.341828309746
 30
0.0
 10
162.5629636570833
 20
-153.9418283098454
 30
0.0
 10
162.5629636570839
 20
-153.5000005101161
 30
0.0
 10
162.5629636570839
 20
-153.0581727103867
 30
0.0
 10
162.383877557049
 20
-152.6581727104868
 30
0.0
 10
162.0943345070813
 20
-152.368629660519
 30
0.0
 10
161.8047914571136
 20
-152.079086610552
 30
0.0
 10
161.4047914572137
 20
-151.9000005105164
 30
0.0
 10
160.9629636574836
 20
-151.9000005105164
 30
0.0
  0
SPLINE
  5
43
330
1F
100
AcDbEntity
  8
enclosure bottom
 62
   179
420
  2301728
370
    35
100
AcDbSpline
210
0.0
220
0.0
230
1.0
 70
    11
 71
     3
 72
    29
 73
    25
 74
     0
 42
0.0000000001
 43
0.0000000001
 12
1.0
 22
0.0
 32
0.0
 13
1.0
 23
0.0
 33
0.0
 40
0.0
 40
0.0
 40
0.0
 40
0.0
 40
1.0
 40
1.0
 40
1.0
 40
2.0
 40
2.0
 40
2.0
 40
3.0
 40
3.0
 40
3.0
 40
4.0
 40
4.0
 40
4.0
 40
5.0
 40
5.0
 40
5.0
 40
6.0
 40
6.0
 40
6.0
 40
7.0
 40
7.0
 40
7.0
 40
8.0
 40
8.0
 40
8.0
 40
8.0
 10
145.7629636739632
 20
-101.1000002480417
 30
0.0
 10
145.3211358742332
 20
-101.1000002480417
 30
0.0
 10
144.9211358743333
 20
-101.2790863480773
 30
0.0
 10
144.6315928243662
 20
-101.5686293980447
 30
0.0
 10
144.3420497743985
 20
-101.8581724480121
 30
0.0
 10
144.1629636743636
 20
-102.2581724479123
 30
0.0
 10
144.1629636743629
 20
-102.700000247642
 30
0.0
 10
144.1629636743629
 20
-103.1418280473717
 30
0.0
 10
144.3420497743979
 20
-103.5418280472719
 30
0.0
 10
144.6315928243656
 20
-103.8313710972393
 30
0.0
 10
144.9211358743333
 20
-104.1209141472071
 30
0.0
 10
145.3211358742332
 20
-104.3000002472423
 30
0.0
 10
145.7629636739632
 20
-104.3000002472423
 30
0.0
 10
146.2047914736932
 20
-104.3000002472423
 30
0.0
 10
146.6047914735931
 20
-104.1209141472074
 30
0.0
 10
146.8943345235609
 20
-103.8313710972397
 30
0.0
 10
147.1838775735286
 20
-103.5418280472719
 30
0.0
 10
147.3629636735635
 20
-103.1418280473717
 30
0.0
 10
147.3629636735635
 20
-102.700000247642
 30
0.0
 10
147.3629636735635
 20
-102.2581724479123
 30
0.0
 10
147.1838775735286
 20
-101.8581724480121
 30
0.0
 10
146.8943345235609
 20
-101.5686293980447
 30
0.0
 10
146.6047914735931
 20
-101.2790863480773
 30
0.0
 10
146.2047914736932
 20
-101.1000002480417
 30
0.0
 10
145.7629636739632
 20
-101.1000002480417
 30
0.0
  0
SPLINE
  5
44
330
1F
100
AcDbEntity
  8
enclosure bottom
 62
   179
420
  2301728
370
    35
100
AcDbSpline
210
0.0
220
0.0
230
1.0
 70
    11
 71
     3
 72
    29
 73
    25
 74
     0
 42
0.0000000001
 43
0.0000000001
 12
1.0
 22
0.0
 32
0.0
 13
1.0
 23
0.0
 33
0.0
 40
0.0
 40
0.0
 40
0.0
 40
0.0
 40
1.0
 40
1.0
 40
1.0
 40
2.0
 40
2.0
 40
2.0
 40
3.0
 40
3.0
 40
3.0
 40
4.0
 40
4.0
 40
4.0
 40
5.0
 40
5.0
 40
5.0
 40
6.0
 40
6.0
 40
6.0
 40
7.0
 40
7.0
 40
7.0
 40
8.0
 40
8.0
 40
8.0
 40
8.0
 10
117.8629636770402
 20
-101.1000006608037
 30
0.0
 10
117.4211358773108
 20
-101.1000006608037
 30
0.0
 10
117.0211358774109
 20
-101.2790867608393
 30
0.0
 10
116.7315928274432
 20
-101.568629810807
 30
0.0
 10
116.4420497774761
 20
-101.8581728607747
 30
0.0
 10
116.2629636774405
 20
-102.2581728606746
 30
0.0
 10
116.2629636774405
 20
-102.700000660404
 30
0.0
 10
116.2629636774405
 20
-103.1418284601334
 30
0.0
 10
116.4420497774761
 20
-103.5418284600333
 30
0.0
 10
116.7315928274432
 20
-103.831371510001
 30
0.0
 10
117.0211358774109
 20
-104.1209145599688
 30
0.0
 10
117.4211358773108
 20
-104.3000006600043
 30
0.0
 10
117.8629636770402
 20
-104.3000006600043
 30
0.0
 10
118.3047914767702
 20
-104.3000006600043
 30
0.0
 10
118.7047914766701
 20
-104.1209145599688
 30
0.0
 10
118.9943345266378
 20
-103.831371510001
 30
0.0
 10
119.2838775766055
 20
-103.5418284600333
 30
0.0
 10
119.4629636766411
 20
-103.1418284601334
 30
0.0
 10
119.4629636766411
 20
-102.700000660404
 30
0.0
 10
119.4629636766411
 20
-102.2581728606746
 30
0.0
 10
119.2838775766055
 20
-101.8581728607747
 30
0.0
 10
118.9943345266378
 20
-101.568629810807
 30
0.0
 10
118.7047914766701
 20
-101.2790867608393
 30
0.0
 10
118.3047914767702
 20
-101.1000006608037
 30
0.0
 10
117.8629636770402
 20
-101.1000006608037
 30
0.0
  0
POLYLINE
  5
45
330
1F
100
AcDbEntity
  8
enclosure bottom
 62
   179
420
  2301728
370
    35
100
AcDb2dPolyline
 66
     1
 10
0.0
 20
0.0
 30
0.0
  0
VERTEX
  5
46
330
45
100
AcDbEntity
  8
enclosure bottom
 62
   179
420
  2301728
370
    35
100
AcDbVertex
100
AcDb2dVertex
 10
49.95000099185463
 20
-193.1999999863861
 30
0.0
  0
VERTEX
  5
47
330
45
100
AcDbEntity
  8
enclosure bottom
 62
   179
420
  2301728
370
    35
100
AcDbVertex
100
AcDb2dVertex
 10
165.9500009628546
 20
-193.1999999863861
 30
0.0
  0
VERTEX
  5
48
330
45
100
AcDbEntity
  8
enclosure bottom
 62
   179
420
  2301728
370
    35
100
AcDbVertex
100
AcDb2dVertex
 10
165.9500009628546
 20
-86.20000001313606
 30
0.0
  0
VERTEX
  5
49
330
45
100
AcDbEntity
  8
enclosure bottom
 62
   179
420
  2301728
370
    35
100
AcDbVertex
100
AcDb2dVertex
 10
49.95000099185463
 20
-86.20000001313606
 30
0.0
  0
VERTEX
  5
4A
330
45
100
AcDbEntity
  8
enclosure bottom
 62
   179
420
  2301728
370
    35
100
AcDbVertex
100
AcDb2dVertex
 10
49.95000099185463
 20
-193.1999999863861
 30
0.0
  0
SEQEND
  5
4B
330
45
100
AcDbEntity
  8
enclosure bottom
 62
   179
420
  2301728
370
    35
  0
SPLINE
  5
4C
330
1F
100
AcDbEntity
  8
enclosure bottom
 62
   179
420
  2301728
370
    35
100
AcDbSpline
210
0.0
220
0.0
230
1.0
 70
    11
 71
     3
 72
    29
 73
    25
 74
     0
 42
0.0000000001
 43
0.0000000001
 12
1.0
 22
0.0
 32
0.0
 13
1.0
 23
0.0
 33
0.0
 40
0.0
 40
0.0
 40
0.0
 40
0.0
 40
1.0
 40
1.0
 40
1.0
 40
2.0
 40
2.0
 40
2.0
 40
3.0
 40
3.0
 40
3.0
 40
4.0
 40
4.0
 40
4.0
 40
5.0
 40
5.0
 40
5.0
 40
6.0
 40
6.0
 40
6.0
 40
7.0
 40
7.0
 40
7.0
 40
8.0
 40
8.0
 40
8.0
 40
8.0
 10
100.7500008995455
 20
-177.5999995521594
 30
0.0
 10
100.3081730998154
 20
-177.5999995521395
 30
0.0
 10
99.90817309990719
 20
-177.7790856521564
 30
0.0
 10
99.61863004992664
 20
-178.0686287021113
 30
0.0
 10
99.32908699994607
 20
-178.3581717520662
 30
0.0
 10
99.1500008998932
 20
-178.7581717519578
 30
0.0
 10
99.15000089987394
 20
-179.1999995516871
 30
0.0
 10
99.15000089985405
 20
-179.6418273514165
 30
0.0
 10
99.329086999871
 20
-180.0418273513248
 30
0.0
 10
99.61863004982524
 20
-180.3313704013053
 30
0.0
 10
99.90817309977982
 20
-180.6209134512859
 30
0.0
 10
100.3081730996717
 20
-180.7999995513394
 30
0.0
 10
100.7500008994017
 20
-180.7999995513586
 30
0.0
 10
101.1918286991311
 20
-180.7999995513785
 30
0.0
 10
101.591828699039
 20
-180.6209134513616
 30
0.0
 10
101.8813717490196
 20
-180.3313704014067
 30
0.0
 10
102.1709147990001
 20
-180.0418273514518
 30
0.0
 10
102.3500008990533
 20
-179.6418273515602
 30
0.0
 10
102.3500008990732
 20
-179.1999995518309
 30
0.0
 10
102.3500008990925
 20
-178.7581717521015
 30
0.0
 10
102.1709147990749
 20
-178.3581717521933
 30
0.0
 10
101.8813717491206
 20
-178.0686287022127
 30
0.0
 10
101.5918286991664
 20
-177.7790856522321
 30
0.0
 10
101.1918286992748
 20
-177.5999995521793
 30
0.0
 10
100.7500008995455
 20
-177.5999995521594
 30
0.0
  0
SPLINE
  5
4D
330
1F
100
AcDbEntity
  8
enclosure bottom
 62
   179
420
  2301728
370
    35
100
AcDbSpline
210
0.0
220
0.0
230
1.0
 70
    11
 71
     3
 72
    29
 73
    25
 74
     0
 42
0.0000000001
 43
0.0000000001
 12
1.0
 22
0.0
 32
0.0
 13
1.0
 23
0.0
 33
0.0
 40
0.0
 40
0.0
 40
0.0
 40
0.0
 40
1.0
 40
1.0
 40
1.0
 40
2.0
 40
2.0
 40
2.0
 40
3.0
 40
3.0
 40
3.0
 40
4.0
 40
4.0
 40
4.0
 40
5.0
 40
5.0
 40
5.0
 40
6.0
 40
6.0
 40
6.0
 40
7.0
 40
7.0
 40
7.0
 40
8.0
 40
8.0
 40
8.0
 40
8.0
 10
52.56203821207914
 20
-176.300000067102
 30
0.0
 10
53.00386601180883
 20
-176.3000000671219
 30
0.0
 10
53.40386601170072
 20
-176.4790861671747
 30
0.0
 10
53.6934090616553
 20
-176.7686292171553
 30
0.0
 10
53.98295211160987
 20
-177.0581722671358
 30
0.0
 10
54.16203821162713
 20
-177.4581722670441
 30
0.0
 10
54.16203821160723
 20
-177.9000000667735
 30
0.0
 10
54.16203821158798
 20
-178.3418278665028
 30
0.0
 10
53.98295211153479
 20
-178.7418278663944
 30
0.0
 10
53.69340906155423
 20
-179.0313709163493
 30
0.0
 10
53.40386601157302
 20
-179.3209139663042
 30
0.0
 10
53.00386601166509
 20
-179.5000000663211
 30
0.0
 10
52.5620382119354
 20
-179.5000000663012
 30
0.0
 10
52.12021041220604
 20
-179.500000066282
 30
0.0
 10
51.72021041231383
 20
-179.3209139662285
 30
0.0
 10
51.43066736235958
 20
-179.0313709162479
 30
0.0
 10
51.14112431240468
 20
-178.7418278662673
 30
0.0
 10
50.96203821238775
 20
-178.3418278663591
 30
0.0
 10
50.96203821240732
 20
-177.9000000666297
 30
0.0
 10
50.96203821242721
 20
-177.4581722669004
 30
0.0
 10
51.14112431248041
 20
-177.0581722670088
 30
0.0
 10
51.43066736246097
 20
-176.7686292170539
 30
0.0
 10
51.72021041244153
 20
-176.479086167099
 30
0.0
 10
52.12021041234978
 20
-176.3000000670821
 30
0.0
 10
52.56203821207914
 20
-176.300000067102
 30
0.0
  0
SPLINE
  5
4E
330
1F
100
AcDbEntity
  8
enclosure bottom
 62
   179
420
  2301728
370
    35
100
AcDbSpline
210
0.0
220
0.0
230
1.0
 70
    11
 71
     3
 72
    29
 73
    25
 74
     0
 42
0.0000000001
 43
0.0000000001
 12
1.0
 22
0.0
 32
0.0
 13
1.0
 23
0.0
 33
0.0
 40
0.0
 40
0.0
 40
0.0
 40
0.0
 40
1.0
 40
1.0
 40
1.0
 40
2.0
 40
2.0
 40
2.0
 40
3.0
 40
3.0
 40
3.0
 40
4.0
 40
4.0
 40
4.0
 40
5.0
 40
5.0
 40
5.0
 40
6.0
 40
6.0
 40
6.0
 40
7.0
 40
7.0
 40
7.0
 40
8.0
 40
8.0
 40
8.0
 40
8.0
 10
67.76203819788016
 20
-125.4999998053097
 30
0.0
 10
68.20386599760953
 20
-125.4999998053293
 30
0.0
 10
68.60386599750142
 20
-125.6790859053828
 30
0.0
 10
68.89340904745599
 20
-125.9686289553634
 30
0.0
 10
69.18295209741056
 20
-126.2581720053439
 30
0.0
 10
69.36203819742782
 20
-126.6581720052522
 30
0.0
 10
69.36203819740825
 20
-127.0999998049819
 30
0.0
 10
69.36203819738869
 20
-127.5418276047116
 30
0.0
 10
69.18295209733516
 20
-127.9418276046035
 30
0.0
 10
68.89340904735461
 20
-128.231370654558
 30
0.0
 10
68.60386599737404
 20
-128.5209137045129
 30
0.0
 10
68.2038659974658
 20
-128.6999998045302
 30
0.0
 10
67.76203819773643
 20
-128.6999998045103
 30
0.0
 10
67.32021039800706
 20
-128.6999998044907
 30
0.0
 10
66.92021039811485
 20
-128.5209137044372
 30
0.0
 10
66.63066734816027
 20
-128.2313706544566
 30
0.0
 10
66.3411242982057
 20
-127.9418276044761
 30
0.0
 10
66.16203819818813
 20
-127.5418276045678
 30
0.0
 10
66.16203819820834
 20
-127.0999998048381
 30
0.0
 10
66.1620381982279
 20
-126.6581720051085
 30
0.0
 10
66.34112429828143
 20
-126.2581720052166
 30
0.0
 10
66.63066734826198
 20
-125.968628955262
 30
0.0
 10
66.92021039824255
 20
-125.6790859053071
 30
0.0
 10
67.3202103981508
 20
-125.4999998052898
 30
0.0
 10
67.76203819788016
 20
-125.4999998053097
 30
0.0
  0
SPLINE
  5
4F
330
1F
100
AcDbEntity
  8
enclosure bottom
 62
   179
420
  2301728
370
    35
100
AcDbSpline
210
0.0
220
0.0
230
1.0
 70
    11
 71
     3
 72
    29
 73
    25
 74
     0
 42
0.0000000001
 43
0.0000000001
 12
1.0
 22
0.0
 32
0.0
 13
1.0
 23
0.0
 33
0.0
 40
0.0
 40
0.0
 40
0.0
 40
0.0
 40
1.0
 40
1.0
 40
1.0
 40
2.0
 40
2.0
 40
2.0
 40
3.0
 40
3.0
 40
3.0
 40
4.0
 40
4.0
 40
4.0
 40
5.0
 40
5.0
 40
5.0
 40
6.0
 40
6.0
 40
6.0
 40
7.0
 40
7.0
 40
7.0
 40
8.0
 40
8.0
 40
8.0
 40
8.0
 10
95.66203819480324
 20
-125.5000002193243
 30
0.0
 10
96.10386599453261
 20
-125.5000002193445
 30
0.0
 10
96.5038659944245
 20
-125.6790863193977
 30
0.0
 10
96.79340904437906
 20
-125.9686293693783
 30
0.0
 10
97.08295209433363
 20
-126.2581724193589
 30
0.0
 10
97.2620381943509
 20
-126.6581724192668
 30
0.0
 10
97.26203819433101
 20
-127.1000002189965
 30
0.0
 10
97.26203819431112
 20
-127.5418280187258
 30
0.0
 10
97.08295209425792
 20
-127.9418280186177
 30
0.0
 10
96.79340904427735
 20
-128.2313710685726
 30
0.0
 10
96.5038659942968
 20
-128.5209141185275
 30
0.0
 10
96.10386599438887
 20
-128.7000002185448
 30
0.0
 10
95.6620381946595
 20
-128.7000002185249
 30
0.0
 10
95.2202103949295
 20
-128.700000218505
 30
0.0
 10
94.82021039503728
 20
-128.5209141184518
 30
0.0
 10
94.53066734508239
 20
-128.2313710684709
 30
0.0
 10
94.24112429512782
 20
-127.94182801849
 30
0.0
 10
94.06203819511056
 20
-127.5418280185821
 30
0.0
 10
94.06203819513046
 20
-127.1000002188527
 30
0.0
 10
94.06203819515035
 20
-126.658172419123
 30
0.0
 10
94.24112429520386
 20
-126.2581724192315
 30
0.0
 10
94.53066734518443
 20
-125.9686293692766
 30
0.0
 10
94.82021039516498
 20
-125.6790863193217
 30
0.0
 10
95.22021039507324
 20
-125.5000002193044
 30
0.0
 10
95.66203819480324
 20
-125.5000002193243
 30
0.0
  0
SPLINE
  5
50
330
1F
100
AcDbEntity
  8
enclosure bottom
 62
   240
420
 15539236
370
    35
100
AcDbSpline
210
0.0
220
0.0
230
1.0
 70
    11
 71
     3
 72
    17
 73
    13
 74
     0
 42
0.0000000001
 43
0.0000000001
 12
1.0
 22
0.0
 32
0.0
 13
1.0
 23
0.0
 33
0.0
 40
0.0
 40
0.0
 40
0.0
 40
0.0
 40
1.0
 40
1.0
 40
1.0
 40
2.0
 40
2.0
 40
2.0
 40
3.0
 40
3.0
 40
3.0
 40
4.0
 40
4.0
 40
4.0
 40
4.0
 10
47.94999998801267
 20
-80.19999997995038
 30
0.0
 10
47.94999998801267
 20
-82.40913897859785
 30
0.0
 10
46.15913898766041
 20
-84.1999999789501
 30
0.0
 10
43.94999998901262
 20
-84.1999999789501
 30
0.0
 10
41.74086099036482
 20
-84.1999999789501
 30
0.0
 10
39.94999999001256
 20
-82.40913897859785
 30
0.0
 10
39.94999999001256
 20
-80.19999997995038
 30
0.0
 10
39.94999999001256
 20
-77.99086098130226
 30
0.0
 10
41.74086099036482
 20
-76.19999998095
 30
0.0
 10
43.94999998901262
 20
-76.19999998095
 30
0.0
 10
46.15913898766041
 20
-76.19999998095
 30
0.0
 10
47.94999998801267
 20
-77.99086098130226
 30
0.0
 10
47.94999998801267
 20
-80.19999997995038
 30
0.0
  0
SPLINE
  5
51
330
1F
100
AcDbEntity
  8
enclosure bottom
 62
   240
420
 15539236
370
    35
100
AcDbSpline
210
0.0
220
0.0
230
1.0
 70
    11
 71
     3
 72
    17
 73
    13
 74
     0
 42
0.0000000001
 43
0.0000000001
 12
1.0
 22
0.0
 32
0.0
 13
1.0
 23
0.0
 33
0.0
 40
0.0
 40
0.0
 40
0.0
 40
0.0
 40
1.0
 40
1.0
 40
1.0
 40
2.0
 40
2.0
 40
2.0
 40
3.0
 40
3.0
 40
3.0
 40
4.0
 40
4.0
 40
4.0
 40
4.0
 10
175.9499999560131
 20
-80.19999997995038
 30
0.0
 10
175.9499999560131
 20
-82.40913897859785
 30
0.0
 10
174.1591389556602
 20
-84.1999999789501
 30
0.0
 10
171.9499999570127
 20
-84.1999999789501
 30
0.0
 10
169.7408609583652
 20
-84.1999999789501
 30
0.0
 10
167.9499999580123
 20
-82.40913897859785
 30
0.0
 10
167.9499999580123
 20
-80.19999997995038
 30
0.0
 10
167.9499999580123
 20
-77.99086098130226
 30
0.0
 10
169.7408609583652
 20
-76.19999998095
 30
0.0
 10
171.9499999570127
 20
-76.19999998095
 30
0.0
 10
174.1591389556602
 20
-76.19999998095
 30
0.0
 10
175.9499999560131
 20
-77.99086098130226
 30
0.0
 10
175.9499999560131
 20
-80.19999997995038
 30
0.0
  0
SPLINE
  5
52
330
1F
100
AcDbEntity
  8
enclosure bottom
 62
   240
420
 15539236
370
    35
100
AcDbSpline
210
0.0
220
0.0
230
1.0
 70
    11
 71
     3
 72
    17
 73
    13
 74
     0
 42
0.0000000001
 43
0.0000000001
 12
1.0
 22
0.0
 32
0.0
 13
1.0
 23
0.0
 33
0.0
 40
0.0
 40
0.0
 40
0.0
 40
0.0
 40
1.0
 40
1.0
 40
1.0
 40
2.0
 40
2.0
 40
2.0
 40
3.0
 40
3.0
 40
3.0
 40
4.0
 40
4.0
 40
4.0
 40
4.0
 10
47.94999998801267
 20
-199.1999999502003
 30
0.0
 10
47.94999998801267
 20
-201.4091389488478
 30
0.0
 10
46.15913898766041
 20
-203.1999999492
 30
0.0
 10
43.94999998901262
 20
-203.1999999492
 30
0.0
 10
41.74086099036482
 20
-203.1999999492
 30
0.0
 10
39.94999999001256
 20
-201.4091389488478
 30
0.0
 10
39.94999999001256
 20
-199.1999999502003
 30
0.0
 10
39.94999999001256
 20
-196.9908609515522
 30
0.0
 10
41.74086099036482
 20
-195.1999999511999
 30
0.0
 10
43.94999998901262
 20
-195.1999999511999
 30
0.0
 10
46.15913898766041
 20
-195.1999999511999
 30
0.0
 10
47.94999998801267
 20
-196.9908609515522
 30
0.0
 10
47.94999998801267
 20
-199.1999999502003
 30
0.0
  0
SPLINE
  5
53
330
1F
100
AcDbEntity
  8
enclosure bottom
 62
   240
420
 15539236
370
    35
100
AcDbSpline
210
0.0
220
0.0
230
1.0
 70
    11
 71
     3
 72
    17
 73
    13
 74
     0
 42
0.0000000001
 43
0.0000000001
 12
1.0
 22
0.0
 32
0.0
 13
1.0
 23
0.0
 33
0.0
 40
0.0
 40
0.0
 40
0.0
 40
0.0
 40
1.0
 40
1.0
 40
1.0
 40
2.0
 40
2.0
 40
2.0
 40
3.0
 40
3.0
 40
3.0
 40
4.0
 40
4.0
 40
4.0
 40
4.0
 10
175.9499999560124
 20
-199.1999999502003
 30
0.0
 10
175.9499999560124
 20
-201.4091389488478
 30
0.0
 10
174.1591389556602
 20
-203.1999999492
 30
0.0
 10
171.9499999570127
 20
-203.1999999492
 30
0.0
 10
169.7408609583646
 20
-203.1999999492
 30
0.0
 10
167.9499999580123
 20
-201.4091389488478
 30
0.0
 10
167.9499999580123
 20
-199.1999999502003
 30
0.0
 10
167.9499999580123
 20
-196.9908609515522
 30
0.0
 10
169.7408609583646
 20
-195.1999999511999
 30
0.0
 10
171.9499999570127
 20
-195.1999999511999
 30
0.0
 10
174.1591389556602
 20
-195.1999999511999
 30
0.0
 10
175.9499999560124
 20
-196.9908609515522
 30
0.0
 10
175.9499999560124
 20
-199.1999999502003
 30
0.0
  0
SPLINE
  5
54
330
1F
100
AcDbEntity
  8
enclosure bottom
 62
   240
420
 15539236
370
    35
100
AcDbSpline
210
0.0
220
0.0
230
1.0
 70
    11
 71
     3
 72
    17
 73
    13
 74
     0
 42
0.0000000001
 43
0.0000000001
 12
1.0
 22
0.0
 32
0.0
 13
1.0
 23
0.0
 33
0.0
 40
0.0
 40
0.0
 40
0.0
 40
0.0
 40
1.0
 40
1.0
 40
1.0
 40
2.0
 40
2.0
 40
2.0
 40
3.0
 40
3.0
 40
3.0
 40
4.0
 40
4.0
 40
4.0
 40
4.0
 10
181.949999954513
 20
-74.19999998145046
 30
0.0
 10
181.949999954513
 20
-76.40913898009794
 30
0.0
 10
180.1591389541601
 20
-78.19999998045019
 30
0.0
 10
177.949999955512
 20
-78.19999998045019
 30
0.0
 10
175.7408609568645
 20
-78.19999998045019
 30
0.0
 10
173.9499999565116
 20
-76.40913898009794
 30
0.0
 10
173.9499999565116
 20
-74.19999998145046
 30
0.0
 10
173.9499999565116
 20
-71.99086098280235
 30
0.0
 10
175.7408609568645
 20
-70.19999998245008
 30
0.0
 10
177.949999955512
 20
-70.19999998245008
 30
0.0
 10
180.1591389541601
 20
-70.19999998245008
 30
0.0
 10
181.949999954513
 20
-71.99086098280235
 30
0.0
 10
181.949999954513
 20
-74.19999998145046
 30
0.0
  0
SPLINE
  5
55
330
1F
100
AcDbEntity
  8
enclosure bottom
 62
   240
420
 15539236
370
    35
100
AcDbSpline
210
0.0
220
0.0
230
1.0
 70
    11
 71
     3
 72
    17
 73
    13
 74
     0
 42
0.0000000001
 43
0.0000000001
 12
1.0
 22
0.0
 32
0.0
 13
1.0
 23
0.0
 33
0.0
 40
0.0
 40
0.0
 40
0.0
 40
0.0
 40
1.0
 40
1.0
 40
1.0
 40
2.0
 40
2.0
 40
2.0
 40
3.0
 40
3.0
 40
3.0
 40
4.0
 40
4.0
 40
4.0
 40
4.0
 10
181.949999954513
 20
-205.1999999487002
 30
0.0
 10
181.949999954513
 20
-207.4091389473477
 30
0.0
 10
180.1591389541601
 20
-209.1999999476999
 30
0.0
 10
177.949999955512
 20
-209.1999999476999
 30
0.0
 10
175.7408609568645
 20
-209.1999999476999
 30
0.0
 10
173.9499999565116
 20
-207.4091389473477
 30
0.0
 10
173.9499999565116
 20
-205.1999999487002
 30
0.0
 10
173.9499999565116
 20
-202.9908609500521
 30
0.0
 10
175.7408609568645
 20
-201.1999999496998
 30
0.0
 10
177.949999955512
 20
-201.1999999496998
 30
0.0
 10
180.1591389541601
 20
-201.1999999496998
 30
0.0
 10
181.949999954513
 20
-202.9908609500521
 30
0.0
 10
181.949999954513
 20
-205.1999999487002
 30
0.0
  0
SPLINE
  5
56
330
1F
100
AcDbEntity
  8
enclosure bottom
 62
   240
420
 15539236
370
    35
100
AcDbSpline
210
0.0
220
0.0
230
1.0
 70
    11
 71
     3
 72
    17
 73
    13
 74
     0
 42
0.0000000001
 43
0.0000000001
 12
1.0
 22
0.0
 32
0.0
 13
1.0
 23
0.0
 33
0.0
 40
0.0
 40
0.0
 40
0.0
 40
0.0
 40
1.0
 40
1.0
 40
1.0
 40
2.0
 40
2.0
 40
2.0
 40
3.0
 40
3.0
 40
3.0
 40
4.0
 40
4.0
 40
4.0
 40
4.0
 10
41.94999998951307
 20
-205.1999999487002
 30
0.0
 10
41.94999998951307
 20
-207.4091389473477
 30
0.0
 10
40.15913898916017
 20
-209.1999999476999
 30
0.0
 10
37.94999999051205
 20
-209.1999999476999
 30
0.0
 10
35.74086099186459
 20
-209.1999999476999
 30
0.0
 10
33.94999999151168
 20
-207.4091389473477
 30
0.0
 10
33.94999999151168
 20
-205.1999999487002
 30
0.0
 10
33.94999999151168
 20
-202.9908609500521
 30
0.0
 10
35.74086099186459
 20
-201.1999999496998
 30
0.0
 10
37.94999999051205
 20
-201.1999999496998
 30
0.0
 10
40.15913898916017
 20
-201.1999999496998
 30
0.0
 10
41.94999998951307
 20
-202.9908609500521
 30
0.0
 10
41.94999998951307
 20
-205.1999999487002
 30
0.0
  0
SPLINE
  5
57
330
1F
100
AcDbEntity
  8
enclosure bottom
 62
   240
420
 15539236
370
    35
100
AcDbSpline
210
0.0
220
0.0
230
1.0
 70
    11
 71
     3
 72
    17
 73
    13
 74
     0
 42
0.0000000001
 43
0.0000000001
 12
1.0
 22
0.0
 32
0.0
 13
1.0
 23
0.0
 33
0.0
 40
0.0
 40
0.0
 40
0.0
 40
0.0
 40
1.0
 40
1.0
 40
1.0
 40
2.0
 40
2.0
 40
2.0
 40
3.0
 40
3.0
 40
3.0
 40
4.0
 40
4.0
 40
4.0
 40
4.0
 10
41.94999998951307
 20
-74.19999998145046
 30
0.0
 10
41.94999998951307
 20
-76.40913898009794
 30
0.0
 10
40.15913898916017
 20
-78.19999998045019
 30
0.0
 10
37.94999999051205
 20
-78.19999998045019
 30
0.0
 10
35.74086099186459
 20
-78.19999998045019
 30
0.0
 10
33.94999999151168
 20
-76.40913898009794
 30
0.0
 10
33.94999999151168
 20
-74.19999998145046
 30
0.0
 10
33.94999999151168
 20
-71.99086098280235
 30
0.0
 10
35.74086099186459
 20
-70.19999998245008
 30
0.0
 10
37.94999999051205
 20
-70.19999998245008
 30
0.0
 10
40.15913898916017
 20
-70.19999998245008
 30
0.0
 10
41.94999998951307
 20
-71.99086098280235
 30
0.0
 10
41.94999998951307
 20
-74.19999998145046
 30
0.0
  0
POLYLINE
  5
58
330
1F
100
AcDbEntity
  8
enclosure bottom
 62
   240
420
 15539236
370
    35
100
AcDb2dPolyline
 66
     1
 10
0.0
 20
0.0
 30
0.0
  0
VERTEX
  5
59
330
58
100
AcDbEntity
  8
enclosure bottom
 62
   240
420
 15539236
370
    35
100
AcDbVertex
100
AcDb2dVertex
 10
103.2500009412563
 20
-124.5999996041406
 30
0.0
  0
VERTEX
  5
5A
330
58
100
AcDbEntity
  8
enclosure bottom
 62
   240
420
 15539236
370
    35
100
AcDbVertex
100
AcDb2dVertex
 10
103.2500009381761
 20
-193.1999995869901
 30
0.0
  0
VERTEX
  5
5B
330
58
100
AcDbEntity
  8
enclosure bottom
 62
   240
420
 15539236
370
    35
100
AcDbVertex
100
AcDb2dVertex
 10
49.95000095150171
 20
-193.1999995845978
 30
0.0
  0
VERTEX
  5
5C
330
58
100
AcDbEntity
  8
enclosure bottom
 62
   240
420
 15539236
370
    35
100
AcDbVertex
100
AcDb2dVertex
 10
49.95000095458154
 20
-124.5999996017477
 30
0.0
  0
VERTEX
  5
5D
330
58
100
AcDbEntity
  8
enclosure bottom
 62
   240
420
 15539236
370
    35
100
AcDbVertex
100
AcDb2dVertex
 10
103.2500009412563
 20
-124.5999996041406
 30
0.0
  0
SEQEND
  5
5E
330
58
100
AcDbEntity
  8
enclosure bottom
 62
   240
420
 15539236
370
    35
  0
POLYLINE
  5
5F
330
1F
100
AcDbEntity
  8
enclosure bottom
 62
   240
420
 15539236
370
    35
100
AcDb2dPolyline
 66
     1
 10
0.0
 20
0.0
 30
0.0
  0
VERTEX
  5
60
330
5F
100
AcDbEntity
  8
enclosure bottom
 62
   240
420
 15539236
370
    35
100
AcDbVertex
100
AcDb2dVertex
 10
110.3000020962232
 20
-100.2000000452793
 30
0.0
  0
VERTEX
  5
61
330
5F
100
AcDbEntity
  8
enclosure bottom
 62
   240
420
 15539236
370
    35
100
AcDbVertex
100
AcDb2dVertex
 10
110.3000020962232
 20
-168.8000000281291
 30
0.0
  0
VERTEX
  5
62
330
5F
100
AcDbEntity
  8
enclosure bottom
 62
   240
420
 15539236
370
    35
100
AcDbVertex
100
AcDb2dVertex
 10
163.600002082898
 20
-168.8000000281297
 30
0.0
  0
VERTEX
  5
63
330
5F
100
AcDbEntity
  8
enclosure bottom
 62
   240
420
 15539236
370
    35
100
AcDbVertex
100
AcDb2dVertex
 10
163.600002082898
 20
-100.2000000452793
 30
0.0
  0
VERTEX
  5
64
330
5F
100
AcDbEntity
  8
enclosure bottom
 62
   240
420
 15539236
370
    35
100
AcDbVertex
100
AcDb2dVertex
 10
110.3000020962232
 20
-100.2000000452793
 30
0.0
  0
SEQEND
  5
65
330
5F
100
AcDbEntity
  8
enclosure bottom
 62
   240
420
 15539236
370
    35
  0
POLYLINE
  5
66
330
1F
100
AcDbEntity
  8
enclosure bottom
 62
   240
420
 15539236
370
    35
100
AcDb2dPolyline
 66
     1
 10
0.0
 20
0.0
 30
0.0
  0
VERTEX
  5
67
330
66
100
AcDbEntity
  8
enclosure bottom
 62
   240
420
 15539236
370
    35
100
AcDbVertex
100
AcDb2dVertex
 10
165.9500008890143
 20
-193.199999626357
 30
0.0
  0
VERTEX
  5
68
330
66
100
AcDbEntity
  8
enclosure bottom
 62
   240
420
 15539236
370
    35
100
AcDbVertex
100
AcDb2dVertex
 10
107.9500009035146
 20
-193.199999626357
 30
0.0
  0
VERTEX
  5
69
330
66
100
AcDbEntity
  8
enclosure bottom
 62
   240
420
 15539236
370
    35
100
AcDbVertex
100
AcDb2dVertex
 10
107.9500009035146
 20
-86.19999965310664
 30
0.0
  0
VERTEX
  5
6A
330
66
100
AcDbEntity
  8
enclosure bottom
 62
   240
420
 15539236
370
    35
100
AcDbVertex
100
AcDb2dVertex
 10
165.9500008890143
 20
-86.19999965310664
 30
0.0
  0
VERTEX
  5
6B
330
66
100
AcDbEntity
  8
enclosure bottom
 62
   240
420
 15539236
370
    35
100
AcDbVertex
100
AcDb2dVertex
 10
165.9500008890143
 20
-193.199999626357
 30
0.0
  0
SEQEND
  5
6C
330
66
100
AcDbEntity
  8
enclosure bottom
 62
   240
420
 15539236
370
    35
  0
POLYLINE
  5
6D
330
1F
100
AcDbEntity
  8
enclosure bottom
 62
   240
420
 15539236
370
    35
100
AcDb2dPolyline
 66
     1
 10
0.0
 20
0.0
 30
0.0
  0
VERTEX
  5
6E
330
6D
100
AcDbEntity
  8
enclosure bottom
 62
   240
420
 15539236
370
    35
100
AcDbVertex
100
AcDb2dVertex
 10
103.1000008682375
 20
-119.1999996699694
 30
0.0
  0
VERTEX
  5
6F
330
6D
100
AcDbEntity
  8
enclosure bottom
 62
   240
420
 15539236
370
    35
100
AcDbVertex
100
AcDb2dVertex
 10
50.10000088148674
 20
-119.1999996699694
 30
0.0
  0
VERTEX
  5
70
330
6D
100
AcDbEntity
  8
enclosure bottom
 62
   240
420
 15539236
370
    35
100
AcDbVertex
100
AcDb2dVertex
 10
50.10000088148674
 20
-86.19999967821921
 30
0.0
  0
VERTEX
  5
71
330
6D
100
AcDbEntity
  8
enclosure bottom
 62
   240
420
 15539236
370
    35
100
AcDbVertex
100
AcDb2dVertex
 10
103.1000008682375
 20
-86.19999967821921
 30
0.0
  0
VERTEX
  5
72
330
6D
100
AcDbEntity
  8
enclosure bottom
 62
   240
420
 15539236
370
    35
100
AcDbVertex
100
AcDb2dVertex
 10
103.1000008682375
 20
-119.1999996699694
 30
0.0
  0
SEQEND
  5
73
330
6D
100
AcDbEntity
  8
enclosure bottom
 62
   240
420
 15539236
370
    35
  0
SPLINE
  5
74
330
1F
100
AcDbEntity
  8
enclosure bottom
 62
   179
420
  2301728
370
    35
100
AcDbSpline
210
0.0
220
0.0
230
1.0
 70
    11
 71
     3
 72
   101
 73
    97
 74
     0
 42
0.0000000001
 43
0.0000000001
 12
1.0
 22
0.0
 32
0.0
 13
1.0
 23
0.0
 33
0.0
 40
0.0
 40
0.0
 40
0.0
 40
0.0
 40
1.0
 40
1.0
 40
1.0
 40
2.0
 40
2.0
 40
2.0
 40
3.0
 40
3.0
 40
3.0
 40
4.0
 40
4.0
 40
4.0
 40
5.0
 40
5.0
 40
5.0
 40
6.0
 40
6.0
 40
6.0
 40
7.0
 40
7.0
 40
7.0
 40
8.0
 40
8.0
 40
8.0
 40
9.0
 40
9.0
 40
9.0
 40
10.0
 40
10.0
 40
10.0
 40
11.0
 40
11.0
 40
11.0
 40
12.0
 40
12.0
 40
12.0
 40
13.0
 40
13.0
 40
13.0
 40
14.0
 40
14.0
 40
14.0
 40
15.0
 40
15.0
 40
15.0
 40
16.0
 40
16.0
 40
16.0
 40
17.0
 40
17.0
 40
17.0
 40
18.0
 40
18.0
 40
18.0
 40
19.0
 40
19.0
 40
19.0
 40
20.0
 40
20.0
 40
20.0
 40
21.0
 40
21.0
 40
21.0
 40
22.0
 40
22.0
 40
22.0
 40
23.0
 40
23.0
 40
23.0
 40
24.0
 40
24.0
 40
24.0
 40
25.0
 40
25.0
 40
25.0
 40
26.0
 40
26.0
 40
26.0
 40
27.0
 40
27.0
 40
27.0
 40
28.0
 40
28.0
 40
28.0
 40
29.0
 40
29.0
 40
29.0
 40
30.0
 40
30.0
 40
30.0
 40
31.0
 40
31.0
 40
31.0
 40
32.0
 40
32.0
 40
32.0
 40
32.0
 10
173.9499999565123
 20
-205.1999999486995
 30
0.0
 10
173.9499999565123
 20
-205.1999999486995
 30
0.0
 10
140.9499999647621
 20
-205.1999999486995
 30
0.0
 10
140.9499999647621
 20
-205.1999999486995
 30
0.0
 10
140.9499999647621
 20
-205.1999999486995
 30
0.0
 10
107.9499999730125
 20
-205.1999999486995
 30
0.0
 10
107.9499999730125
 20
-205.1999999486995
 30
0.0
 10
107.9499999730125
 20
-205.1999999486995
 30
0.0
 10
74.94999998126231
 20
-205.1999999486995
 30
0.0
 10
74.94999998126231
 20
-205.1999999486995
 30
0.0
 10
74.94999998126231
 20
-205.1999999486995
 30
0.0
 10
41.94999998951243
 20
-205.1999999486995
 30
0.0
 10
41.94999998951243
 20
-205.1999999486995
 30
0.0
 10
41.39771523981976
 20
-205.1999999486995
 30
0.0
 10
40.87157286503566
 20
-205.0880711361852
 30
0.0
 10
40.3930194745619
 20
-204.8856601205579
 30
0.0
 10
39.91446608408846
 20
-204.6832491049307
 30
0.0
 10
39.48350167792536
 20
-204.3903558861905
 30
0.0
 10
39.1215728654734
 20
-204.0284270737388
 30
0.0
 10
38.75964405302112
 20
-203.6664982612872
 30
0.0
 10
38.46675083428126
 20
-203.2355338551235
 30
0.0
 10
38.26433981865399
 20
-202.7569804646497
 30
0.0
 10
38.06192880302673
 20
-202.2784270741759
 30
0.0
 10
37.94999999051237
 20
-201.7522846993922
 30
0.0
 10
37.94999999051237
 20
-201.1999999496998
 30
0.0
 10
37.94999999051237
 20
-201.1999999496998
 30
0.0
 10
37.94999999051237
 20
-170.4499999573871
 30
0.0
 10
37.94999999051237
 20
-170.4499999573871
 30
0.0
 10
37.94999999051237
 20
-170.4499999573871
 30
0.0
 10
37.94999999051237
 20
-139.699999965075
 30
0.0
 10
37.94999999051237
 20
-139.699999965075
 30
0.0
 10
37.94999999051237
 20
-139.699999965075
 30
0.0
 10
37.94999999051237
 20
-108.9499999727626
 30
0.0
 10
37.94999999051237
 20
-108.9499999727626
 30
0.0
 10
37.94999999051237
 20
-108.9499999727626
 30
0.0
 10
37.94999999051237
 20
-78.19999998045019
 30
0.0
 10
37.94999999051237
 20
-78.19999998045019
 30
0.0
 10
37.94999999051237
 20
-77.64771523075753
 30
0.0
 10
38.06192880302673
 20
-77.12157285597407
 30
0.0
 10
38.26433981865399
 20
-76.64301946549999
 30
0.0
 10
38.46675083428126
 20
-76.16446607502654
 30
0.0
 10
38.75964405302112
 20
-75.7335016688628
 30
0.0
 10
39.1215728654734
 20
-75.37157285641116
 30
0.0
 10
39.48350167792536
 20
-75.0096440439592
 30
0.0
 10
39.91446608408846
 20
-74.71675082521902
 30
0.0
 10
40.3930194745619
 20
-74.51433980959176
 30
0.0
 10
40.87157286503566
 20
-74.3119287939645
 30
0.0
 10
41.39771523981976
 20
-74.19999998145013
 30
0.0
 10
41.94999998951243
 20
-74.19999998145013
 30
0.0
 10
41.94999998951243
 20
-74.19999998145013
 30
0.0
 10
74.94999998126231
 20
-74.19999998145013
 30
0.0
 10
74.94999998126231
 20
-74.19999998145013
 30
0.0
 10
74.94999998126231
 20
-74.19999998145013
 30
0.0
 10
107.9499999730125
 20
-74.19999998145013
 30
0.0
 10
107.9499999730125
 20
-74.19999998145013
 30
0.0
 10
107.9499999730125
 20
-74.19999998145013
 30
0.0
 10
140.9499999647621
 20
-74.19999998145013
 30
0.0
 10
140.9499999647621
 20
-74.19999998145013
 30
0.0
 10
140.9499999647621
 20
-74.19999998145013
 30
0.0
 10
173.9499999565123
 20
-74.19999998145013
 30
0.0
 10
173.9499999565123
 20
-74.19999998145013
 30
0.0
 10
174.5022847062046
 20
-74.19999998145013
 30
0.0
 10
175.0284270809884
 20
-74.3119287939645
 30
0.0
 10
175.5069804714622
 20
-74.51433980959176
 30
0.0
 10
175.9855338619359
 20
-74.71675082521902
 30
0.0
 10
176.4164982680996
 20
-75.0096440439592
 30
0.0
 10
176.7784270805513
 20
-75.37157285641116
 30
0.0
 10
177.1403558930029
 20
-75.7335016688628
 30
0.0
 10
177.4332491117431
 20
-76.16446607502623
 30
0.0
 10
177.6356601273704
 20
-76.64301946549966
 30
0.0
 10
177.8380711429976
 20
-77.12157285597343
 30
0.0
 10
177.949999955512
 20
-77.6477152307572
 30
0.0
 10
177.949999955512
 20
-78.19999998044987
 30
0.0
 10
177.949999955512
 20
-78.19999998044987
 30
0.0
 10
177.949999955512
 20
-108.9499999727623
 30
0.0
 10
177.949999955512
 20
-108.9499999727623
 30
0.0
 10
177.949999955512
 20
-108.9499999727623
 30
0.0
 10
177.949999955512
 20
-139.699999965075
 30
0.0
 10
177.949999955512
 20
-139.699999965075
 30
0.0
 10
177.949999955512
 20
-139.699999965075
 30
0.0
 10
177.949999955512
 20
-170.4499999573871
 30
0.0
 10
177.949999955512
 20
-170.4499999573871
 30
0.0
 10
177.949999955512
 20
-170.4499999573871
 30
0.0
 10
177.949999955512
 20
-201.1999999496998
 30
0.0
 10
177.949999955512
 20
-201.1999999496998
 30
0.0
 10
177.949999955512
 20
-201.7522846993922
 30
0.0
 10
177.8380711429976
 20
-202.2784270741759
 30
0.0
 10
177.6356601273704
 20
-202.7569804646497
 30
0.0
 10
177.4332491117431
 20
-203.2355338551235
 30
0.0
 10
177.1403558930029
 20
-203.6664982612872
 30
0.0
 10
176.7784270805513
 20
-204.0284270737388
 30
0.0
 10
176.4164982680996
 20
-204.3903558861905
 30
0.0
 10
175.9855338619359
 20
-204.6832491049307
 30
0.0
 10
175.5069804714622
 20
-204.8856601205579
 30
0.0
 10
175.0284270809884
 20
-205.0880711361852
 30
0.0
 10
174.5022847062046
 20
-205.1999999486995
 30
0.0
 10
173.9499999565123
 20
-205.1999999486995
 30
0.0
  0
SPLINE
  5
75
330
1F
100
AcDbEntity
  8
enclosure bottom
 62
   179
420
  2301728
370
    35
100
AcDbSpline
210
0.0
220
0.0
230
1.0
 70
    11
 71
     3
 72
    53
 73
    49
 74
     0
 42
0.0000000001
 43
0.0000000001
 12
1.0
 22
0.0
 32
0.0
 13
1.0
 23
0.0
 33
0.0
 40
0.0
 40
0.0
 40
0.0
 40
0.0
 40
1.0
 40
1.0
 40
1.0
 40
2.0
 40
2.0
 40
2.0
 40
3.0
 40
3.0
 40
3.0
 40
4.0
 40
4.0
 40
4.0
 40
5.0
 40
5.0
 40
5.0
 40
6.0
 40
6.0
 40
6.0
 40
7.0
 40
7.0
 40
7.0
 40
8.0
 40
8.0
 40
8.0
 40
9.0
 40
9.0
 40
9.0
 40
10.0
 40
10.0
 40
10.0
 40
11.0
 40
11.0
 40
11.0
 40
12.0
 40
12.0
 40
12.0
 40
13.0
 40
13.0
 40
13.0
 40
14.0
 40
14.0
 40
14.0
 40
15.0
 40
15.0
 40
15.0
 40
16.0
 40
16.0
 40
16.0
 40
16.0
 10
46.70000099763029
 20
-80.19999997995038
 30
0.0
 10
46.70000099763029
 20
-80.57969574534289
 30
0.0
 10
46.62304993902134
 20
-80.94141862799616
 30
0.0
 10
46.48389236577109
 20
-81.27042408394281
 30
0.0
 10
46.34473479252053
 20
-81.59942953988947
 30
0.0
 10
46.143370704629
 20
-81.8957175691292
 30
0.0
 10
45.89454464606288
 20
-82.144543627695
 30
0.0
 10
45.64571858749709
 20
-82.3933696862608
 30
0.0
 10
45.34943055825735
 20
-82.59473377415266
 30
0.0
 10
45.02042510231069
 20
-82.73389134740322
 30
0.0
 10
44.69141964636403
 20
-82.87304892065379
 30
0.0
 10
44.32969676371044
 20
-82.94999997926242
 30
0.0
 10
43.95000099831793
 20
-82.94999997926242
 30
0.0
 10
43.57030523292542
 20
-82.94999997926242
 30
0.0
 10
43.20858235027152
 20
-82.87304892065379
 30
0.0
 10
42.87957689432518
 20
-82.73389134740322
 30
0.0
 10
42.55057143837852
 20
-82.59473377415266
 30
0.0
 10
42.25428340913878
 20
-82.3933696862608
 30
0.0
 10
42.00545735057298
 20
-82.144543627695
 30
0.0
 10
41.75663129200719
 20
-81.8957175691292
 30
0.0
 10
41.55526720411534
 20
-81.59942953988947
 30
0.0
 10
41.41610963086477
 20
-81.27042408394281
 30
0.0
 10
41.27695205761453
 20
-80.94141862799616
 30
0.0
 10
41.20000099900557
 20
-80.57969574534289
 30
0.0
 10
41.20000099900557
 20
-80.19999997995038
 30
0.0
 10
41.20000099900557
 20
-79.82030421455754
 30
0.0
 10
41.27695205761453
 20
-79.45858133190428
 30
0.0
 10
41.41610963086477
 20
-79.12957587595763
 30
0.0
 10
41.55526720411534
 20
-78.80057042001097
 30
0.0
 10
41.75663129200719
 20
-78.5042823907709
 30
0.0
 10
42.00545735057298
 20
-78.25545633220511
 30
0.0
 10
42.25428340913878
 20
-78.00663027363932
 30
0.0
 10
42.55057143837852
 20
-77.80526618574746
 30
0.0
 10
42.87957689432518
 20
-77.6661086124969
 30
0.0
 10
43.20858235027152
 20
-77.52695103924698
 30
0.0
 10
43.57030523292542
 20
-77.4499999806377
 30
0.0
 10
43.95000099831793
 20
-77.4499999806377
 30
0.0
 10
44.32969676371044
 20
-77.4499999806377
 30
0.0
 10
44.69141964636403
 20
-77.52695103924698
 30
0.0
 10
45.02042510231069
 20
-77.6661086124969
 30
0.0
 10
45.34943055825735
 20
-77.80526618574746
 30
0.0
 10
45.64571858749709
 20
-78.00663027363932
 30
0.0
 10
45.89454464606288
 20
-78.25545633220511
 30
0.0
 10
46.143370704629
 20
-78.5042823907709
 30
0.0
 10
46.34473479252053
 20
-78.80057042001097
 30
0.0
 10
46.48389236577109
 20
-79.12957587595763
 30
0.0
 10
46.62304993902134
 20
-79.45858133190428
 30
0.0
 10
46.70000099763029
 20
-79.82030421455754
 30
0.0
 10
46.70000099763029
 20
-80.19999997995038
 30
0.0
  0
SPLINE
  5
76
330
1F
100
AcDbEntity
  8
enclosure bottom
 62
   179
420
  2301728
370
    35
100
AcDbSpline
210
0.0
220
0.0
230
1.0
 70
    11
 71
     3
 72
    53
 73
    49
 74
     0
 42
0.0000000001
 43
0.0000000001
 12
1.0
 22
0.0
 32
0.0
 13
1.0
 23
0.0
 33
0.0
 40
0.0
 40
0.0
 40
0.0
 40
0.0
 40
1.0
 40
1.0
 40
1.0
 40
2.0
 40
2.0
 40
2.0
 40
3.0
 40
3.0
 40
3.0
 40
4.0
 40
4.0
 40
4.0
 40
5.0
 40
5.0
 40
5.0
 40
6.0
 40
6.0
 40
6.0
 40
7.0
 40
7.0
 40
7.0
 40
8.0
 40
8.0
 40
8.0
 40
9.0
 40
9.0
 40
9.0
 40
10.0
 40
10.0
 40
10.0
 40
11.0
 40
11.0
 40
11.0
 40
12.0
 40
12.0
 40
12.0
 40
13.0
 40
13.0
 40
13.0
 40
14.0
 40
14.0
 40
14.0
 40
15.0
 40
15.0
 40
15.0
 40
16.0
 40
16.0
 40
16.0
 40
16.0
 10
174.7000009656307
 20
-80.19999997995038
 30
0.0
 10
174.7000009656307
 20
-80.57969574534289
 30
0.0
 10
174.6230499070214
 20
-80.94141862799616
 30
0.0
 10
174.4838923337712
 20
-81.27042408394281
 30
0.0
 10
174.344734760521
 20
-81.59942953988947
 30
0.0
 10
174.1433706726291
 20
-81.8957175691292
 30
0.0
 10
173.8945446140633
 20
-82.144543627695
 30
0.0
 10
173.6457185554969
 20
-82.3933696862608
 30
0.0
 10
173.3494305262571
 20
-82.59473377415266
 30
0.0
 10
173.0204250703105
 20
-82.73389134740322
 30
0.0
 10
172.6914196143638
 20
-82.87304892065379
 30
0.0
 10
172.3296967317102
 20
-82.94999997926242
 30
0.0
 10
171.950000966318
 20
-82.94999997926242
 30
0.0
 10
171.5703052009258
 20
-82.94999997926242
 30
0.0
 10
171.2085823182722
 20
-82.87304892065379
 30
0.0
 10
170.8795768623256
 20
-82.73389134740322
 30
0.0
 10
170.5505714063789
 20
-82.59473377415266
 30
0.0
 10
170.2542833771392
 20
-82.3933696862608
 30
0.0
 10
170.0054573185728
 20
-82.144543627695
 30
0.0
 10
169.756631260007
 20
-81.8957175691292
 30
0.0
 10
169.5552671721151
 20
-81.59942953988947
 30
0.0
 10
169.4161095988649
 20
-81.27042408394281
 30
0.0
 10
169.2769520256146
 20
-80.94141862799616
 30
0.0
 10
169.2000009670054
 20
-80.57969574534289
 30
0.0
 10
169.2000009670054
 20
-80.19999997995038
 30
0.0
 10
169.2000009670054
 20
-79.82030421455754
 30
0.0
 10
169.2769520256146
 20
-79.45858133190428
 30
0.0
 10
169.4161095988649
 20
-79.12957587595763
 30
0.0
 10
169.5552671721151
 20
-78.80057042001097
 30
0.0
 10
169.756631260007
 20
-78.5042823907709
 30
0.0
 10
170.0054573185728
 20
-78.25545633220511
 30
0.0
 10
170.2542833771392
 20
-78.00663027363932
 30
0.0
 10
170.5505714063789
 20
-77.80526618574746
 30
0.0
 10
170.8795768623256
 20
-77.6661086124969
 30
0.0
 10
171.2085823182722
 20
-77.52695103924698
 30
0.0
 10
171.5703052009258
 20
-77.4499999806377
 30
0.0
 10
171.950000966318
 20
-77.4499999806377
 30
0.0
 10
172.3296967317102
 20
-77.4499999806377
 30
0.0
 10
172.6914196143638
 20
-77.52695103924698
 30
0.0
 10
173.0204250703105
 20
-77.6661086124969
 30
0.0
 10
173.3494305262571
 20
-77.80526618574746
 30
0.0
 10
173.6457185554969
 20
-78.00663027363932
 30
0.0
 10
173.8945446140633
 20
-78.25545633220511
 30
0.0
 10
174.1433706726291
 20
-78.5042823907709
 30
0.0
 10
174.344734760521
 20
-78.80057042001097
 30
0.0
 10
174.4838923337712
 20
-79.12957587595763
 30
0.0
 10
174.6230499070214
 20
-79.45858133190428
 30
0.0
 10
174.7000009656307
 20
-79.82030421455754
 30
0.0
 10
174.7000009656307
 20
-80.19999997995038
 30
0.0
  0
SPLINE
  5
77
330
1F
100
AcDbEntity
  8
enclosure bottom
 62
   179
420
  2301728
370
    35
100
AcDbSpline
210
0.0
220
0.0
230
1.0
 70
    11
 71
     3
 72
    53
 73
    49
 74
     0
 42
0.0000000001
 43
0.0000000001
 12
1.0
 22
0.0
 32
0.0
 13
1.0
 23
0.0
 33
0.0
 40
0.0
 40
0.0
 40
0.0
 40
0.0
 40
1.0
 40
1.0
 40
1.0
 40
2.0
 40
2.0
 40
2.0
 40
3.0
 40
3.0
 40
3.0
 40
4.0
 40
4.0
 40
4.0
 40
5.0
 40
5.0
 40
5.0
 40
6.0
 40
6.0
 40
6.0
 40
7.0
 40
7.0
 40
7.0
 40
8.0
 40
8.0
 40
8.0
 40
9.0
 40
9.0
 40
9.0
 40
10.0
 40
10.0
 40
10.0
 40
11.0
 40
11.0
 40
11.0
 40
12.0
 40
12.0
 40
12.0
 40
13.0
 40
13.0
 40
13.0
 40
14.0
 40
14.0
 40
14.0
 40
15.0
 40
15.0
 40
15.0
 40
16.0
 40
16.0
 40
16.0
 40
16.0
 10
174.7000009656307
 20
-199.199998381936
 30
0.0
 10
174.7000009656307
 20
-199.5796941473288
 30
0.0
 10
174.6230499070214
 20
-199.9414170299817
 30
0.0
 10
174.4838923337712
 20
-200.2704224859284
 30
0.0
 10
174.344734760521
 20
-200.599427941875
 30
0.0
 10
174.1433706726291
 20
-200.8957159711148
 30
0.0
 10
173.8945446140633
 20
-201.1445420296806
 30
0.0
 10
173.6457185554969
 20
-201.3933680882464
 30
0.0
 10
173.3494305262571
 20
-201.5947321761382
 30
0.0
 10
173.0204250703105
 20
-201.7338897493885
 30
0.0
 10
172.6914196143638
 20
-201.8730473226387
 30
0.0
 10
172.3296967317102
 20
-201.949998381248
 30
0.0
 10
171.950000966318
 20
-201.949998381248
 30
0.0
 10
171.5703052009258
 20
-201.949998381248
 30
0.0
 10
171.2085823182722
 20
-201.8730473226387
 30
0.0
 10
170.8795768623256
 20
-201.7338897493885
 30
0.0
 10
170.5505714063789
 20
-201.5947321761382
 30
0.0
 10
170.2542833771392
 20
-201.3933680882464
 30
0.0
 10
170.0054573185728
 20
-201.1445420296806
 30
0.0
 10
169.756631260007
 20
-200.8957159711148
 30
0.0
 10
169.5552671721151
 20
-200.599427941875
 30
0.0
 10
169.4161095988649
 20
-200.2704224859284
 30
0.0
 10
169.2769520256146
 20
-199.9414170299817
 30
0.0
 10
169.2000009670054
 20
-199.5796941473288
 30
0.0
 10
169.2000009670054
 20
-199.199998381936
 30
0.0
 10
169.2000009670054
 20
-198.8203026165431
 30
0.0
 10
169.2769520256146
 20
-198.4585797338895
 30
0.0
 10
169.4161095988649
 20
-198.1295742779429
 30
0.0
 10
169.5552671721151
 20
-197.8005688219962
 30
0.0
 10
169.756631260007
 20
-197.5042807927565
 30
0.0
 10
170.0054573185728
 20
-197.2554547341907
 30
0.0
 10
170.2542833771392
 20
-197.0066286756249
 30
0.0
 10
170.5505714063789
 20
-196.8052645877324
 30
0.0
 10
170.8795768623256
 20
-196.6661070144822
 30
0.0
 10
171.2085823182722
 20
-196.5269494412319
 30
0.0
 10
171.5703052009258
 20
-196.4499983826233
 30
0.0
 10
171.950000966318
 20
-196.4499983826233
 30
0.0
 10
172.3296967317102
 20
-196.4499983826233
 30
0.0
 10
172.6914196143638
 20
-196.5269494412319
 30
0.0
 10
173.0204250703105
 20
-196.6661070144822
 30
0.0
 10
173.3494305262571
 20
-196.8052645877324
 30
0.0
 10
173.6457185554969
 20
-197.0066286756249
 30
0.0
 10
173.8945446140633
 20
-197.2554547341907
 30
0.0
 10
174.1433706726291
 20
-197.5042807927565
 30
0.0
 10
174.344734760521
 20
-197.8005688219962
 30
0.0
 10
174.4838923337712
 20
-198.1295742779429
 30
0.0
 10
174.6230499070214
 20
-198.4585797338895
 30
0.0
 10
174.7000009656307
 20
-198.8203026165431
 30
0.0
 10
174.7000009656307
 20
-199.199998381936
 30
0.0
  0
SPLINE
  5
78
330
1F
100
AcDbEntity
  8
enclosure bottom
 62
   179
420
  2301728
370
    35
100
AcDbSpline
210
0.0
220
0.0
230
1.0
 70
    11
 71
     3
 72
    53
 73
    49
 74
     0
 42
0.0000000001
 43
0.0000000001
 12
1.0
 22
0.0
 32
0.0
 13
1.0
 23
0.0
 33
0.0
 40
0.0
 40
0.0
 40
0.0
 40
0.0
 40
1.0
 40
1.0
 40
1.0
 40
2.0
 40
2.0
 40
2.0
 40
3.0
 40
3.0
 40
3.0
 40
4.0
 40
4.0
 40
4.0
 40
5.0
 40
5.0
 40
5.0
 40
6.0
 40
6.0
 40
6.0
 40
7.0
 40
7.0
 40
7.0
 40
8.0
 40
8.0
 40
8.0
 40
9.0
 40
9.0
 40
9.0
 40
10.0
 40
10.0
 40
10.0
 40
11.0
 40
11.0
 40
11.0
 40
12.0
 40
12.0
 40
12.0
 40
13.0
 40
13.0
 40
13.0
 40
14.0
 40
14.0
 40
14.0
 40
15.0
 40
15.0
 40
15.0
 40
16.0
 40
16.0
 40
16.0
 40
16.0
 10
46.70000282020828
 20
-199.199998381936
 30
0.0
 10
46.70000282020828
 20
-199.5796941473288
 30
0.0
 10
46.62305176159933
 20
-199.9414170299817
 30
0.0
 10
46.48389418834877
 20
-200.2704224859284
 30
0.0
 10
46.34473661509821
 20
-200.599427941875
 30
0.0
 10
46.14337252720667
 20
-200.8957159711148
 30
0.0
 10
45.89454646864088
 20
-201.1445420296806
 30
0.0
 10
45.64572041007477
 20
-201.3933680882464
 30
0.0
 10
45.3494323808347
 20
-201.5947321761382
 30
0.0
 10
45.02042692488804
 20
-201.7338897493885
 30
0.0
 10
44.69142146894139
 20
-201.8730473226387
 30
0.0
 10
44.32969858628812
 20
-201.949998381248
 30
0.0
 10
43.95000282089593
 20
-201.949998381248
 30
0.0
 10
43.57030705550309
 20
-201.949998381248
 30
0.0
 10
43.20858417284984
 20
-201.8730473226387
 30
0.0
 10
42.87957871690318
 20
-201.7338897493885
 30
0.0
 10
42.55057326095652
 20
-201.5947321761382
 30
0.0
 10
42.25428523171678
 20
-201.3933680882464
 30
0.0
 10
42.00545917315066
 20
-201.1445420296806
 30
0.0
 10
41.75663311458455
 20
-200.8957159711148
 30
0.0
 10
41.55526902669269
 20
-200.599427941875
 30
0.0
 10
41.41611145344245
 20
-200.2704224859284
 30
0.0
 10
41.27695388019253
 20
-199.9414170299817
 30
0.0
 10
41.20000282158325
 20
-199.5796941473288
 30
0.0
 10
41.20000282158325
 20
-199.199998381936
 30
0.0
 10
41.20000282158325
 20
-198.8203026165431
 30
0.0
 10
41.27695388019253
 20
-198.4585797338895
 30
0.0
 10
41.41611145344245
 20
-198.1295742779429
 30
0.0
 10
41.55526902669269
 20
-197.8005688219962
 30
0.0
 10
41.75663311458455
 20
-197.5042807927565
 30
0.0
 10
42.00545917315066
 20
-197.2554547341907
 30
0.0
 10
42.25428523171678
 20
-197.0066286756249
 30
0.0
 10
42.55057326095652
 20
-196.8052645877324
 30
0.0
 10
42.87957871690318
 20
-196.6661070144822
 30
0.0
 10
43.20858417284984
 20
-196.5269494412319
 30
0.0
 10
43.57030705550309
 20
-196.4499983826233
 30
0.0
 10
43.95000282089593
 20
-196.4499983826233
 30
0.0
 10
44.32969858628812
 20
-196.4499983826233
 30
0.0
 10
44.69142146894139
 20
-196.5269494412319
 30
0.0
 10
45.02042692488804
 20
-196.6661070144822
 30
0.0
 10
45.3494323808347
 20
-196.8052645877324
 30
0.0
 10
45.64572041007477
 20
-197.0066286756249
 30
0.0
 10
45.89454646864088
 20
-197.2554547341907
 30
0.0
 10
46.14337252720667
 20
-197.5042807927565
 30
0.0
 10
46.34473661509821
 20
-197.8005688219962
 30
0.0
 10
46.48389418834877
 20
-198.1295742779429
 30
0.0
 10
46.62305176159933
 20
-198.4585797338895
 30
0.0
 10
46.70000282020828
 20
-198.8203026165431
 30
0.0
 10
46.70000282020828
 20
-199.199998381936
 30
0.0
  0
SPLINE
  5
79
330
1F
100
AcDbEntity
  8
enclosure bottom
 62
   179
420
  2301728
370
    35
100
AcDbSpline
210
0.0
220
0.0
230
1.0
 70
    11
 71
     3
 72
    17
 73
    13
 74
     0
 42
0.0000000001
 43
0.0000000001
 12
1.0
 22
0.0
 32
0.0
 13
1.0
 23
0.0
 33
0.0
 40
0.0
 40
0.0
 40
0.0
 40
0.0
 40
1.0
 40
1.0
 40
1.0
 40
2.0
 40
2.0
 40
2.0
 40
3.0
 40
3.0
 40
3.0
 40
4.0
 40
4.0
 40
4.0
 40
4.0
 10
55.34999973184924
 20
-90.99399997725136
 30
0.0
 10
55.34999973184924
 20
-91.82242710174401
 30
0.0
 10
54.67842685671722
 20
-92.49399997687635
 30
0.0
 10
53.84999973222426
 20
-92.49399997687635
 30
0.0
 10
53.0215726077313
 20
-92.49399997687635
 30
0.0
 10
52.34999973259928
 20
-91.82242710174401
 30
0.0
 10
52.34999973259928
 20
-90.99399997725136
 30
0.0
 10
52.34999973259928
 20
-90.16557285275873
 30
0.0
 10
53.0215726077313
 20
-89.49399997762639
 30
0.0
 10
53.84999973222426
 20
-89.49399997762639
 30
0.0
 10
54.67842685671722
 20
-89.49399997762639
 30
0.0
 10
55.34999973184924
 20
-90.16557285275873
 30
0.0
 10
55.34999973184924
 20
-90.99399997725136
 30
0.0
  0
SPLINE
  5
7A
330
1F
100
AcDbEntity
  8
enclosure bottom
 62
   179
420
  2301728
370
    35
100
AcDbSpline
210
0.0
220
0.0
230
1.0
 70
    11
 71
     3
 72
    17
 73
    13
 74
     0
 42
0.0000000001
 43
0.0000000001
 12
1.0
 22
0.0
 32
0.0
 13
1.0
 23
0.0
 33
0.0
 40
0.0
 40
0.0
 40
0.0
 40
0.0
 40
1.0
 40
1.0
 40
1.0
 40
2.0
 40
2.0
 40
2.0
 40
3.0
 40
3.0
 40
3.0
 40
4.0
 40
4.0
 40
4.0
 40
4.0
 10
100.8500002291005
 20
-90.99399997725136
 30
0.0
 10
100.8500002291005
 20
-91.82242710174401
 30
0.0
 10
100.1784273539688
 20
-92.49399997687635
 30
0.0
 10
99.35000022947557
 20
-92.49399997687635
 30
0.0
 10
98.52157310498261
 20
-92.49399997687635
 30
0.0
 10
97.85000022985058
 20
-91.82242710174401
 30
0.0
 10
97.85000022985058
 20
-90.99399997725136
 30
0.0
 10
97.85000022985058
 20
-90.16557285275873
 30
0.0
 10
98.52157310498261
 20
-89.49399997762639
 30
0.0
 10
99.35000022947557
 20
-89.49399997762639
 30
0.0
 10
100.1784273539688
 20
-89.49399997762639
 30
0.0
 10
100.8500002291005
 20
-90.16557285275873
 30
0.0
 10
100.8500002291005
 20
-90.99399997725136
 30
0.0
  0
SPLINE
  5
7B
330
1F
100
AcDbEntity
  8
enclosure bottom
 62
   179
420
  2301728
370
    35
100
AcDbSpline
210
0.0
220
0.0
230
1.0
 70
    11
 71
     3
 72
    17
 73
    13
 74
     0
 42
0.0000000001
 43
0.0000000001
 12
1.0
 22
0.0
 32
0.0
 13
1.0
 23
0.0
 33
0.0
 40
0.0
 40
0.0
 40
0.0
 40
0.0
 40
1.0
 40
1.0
 40
1.0
 40
2.0
 40
2.0
 40
2.0
 40
3.0
 40
3.0
 40
3.0
 40
4.0
 40
4.0
 40
4.0
 40
4.0
 10
100.8500002291005
 20
-116.3939999709014
 30
0.0
 10
100.8500002291005
 20
-117.222427095394
 30
0.0
 10
100.1784273539688
 20
-117.8939999705264
 30
0.0
 10
99.35000022947557
 20
-117.8939999705264
 30
0.0
 10
98.52157310498261
 20
-117.8939999705264
 30
0.0
 10
97.85000022985058
 20
-117.222427095394
 30
0.0
 10
97.85000022985058
 20
-116.3939999709014
 30
0.0
 10
97.85000022985058
 20
-115.5655728464087
 30
0.0
 10
98.52157310498261
 20
-114.8939999712764
 30
0.0
 10
99.35000022947557
 20
-114.8939999712764
 30
0.0
 10
100.1784273539688
 20
-114.8939999712764
 30
0.0
 10
100.8500002291005
 20
-115.5655728464087
 30
0.0
 10
100.8500002291005
 20
-116.3939999709014
 30
0.0
  0
SPLINE
  5
7C
330
1F
100
AcDbEntity
  8
enclosure bottom
 62
   179
420
  2301728
370
    35
100
AcDbSpline
210
0.0
220
0.0
230
1.0
 70
    11
 71
     3
 72
    17
 73
    13
 74
     0
 42
0.0000000001
 43
0.0000000001
 12
1.0
 22
0.0
 32
0.0
 13
1.0
 23
0.0
 33
0.0
 40
0.0
 40
0.0
 40
0.0
 40
0.0
 40
1.0
 40
1.0
 40
1.0
 40
2.0
 40
2.0
 40
2.0
 40
3.0
 40
3.0
 40
3.0
 40
4.0
 40
4.0
 40
4.0
 40
4.0
 10
55.34999973184924
 20
-116.3939999709014
 30
0.0
 10
55.34999973184924
 20
-117.222427095394
 30
0.0
 10
54.67842685671722
 20
-117.8939999705264
 30
0.0
 10
53.84999973222426
 20
-117.8939999705264
 30
0.0
 10
53.0215726077313
 20
-117.8939999705264
 30
0.0
 10
52.34999973259928
 20
-117.222427095394
 30
0.0
 10
52.34999973259928
 20
-116.3939999709014
 30
0.0
 10
52.34999973259928
 20
-115.5655728464087
 30
0.0
 10
53.0215726077313
 20
-114.8939999712764
 30
0.0
 10
53.84999973222426
 20
-114.8939999712764
 30
0.0
 10
54.67842685671722
 20
-114.8939999712764
 30
0.0
 10
55.34999973184924
 20
-115.5655728464087
 30
0.0
 10
55.34999973184924
 20
-116.3939999709014
 30
0.0
  0
POLYLINE
  5
7E
330
1F
100
AcDbEntity
  8
inner outline
 62
   179
420
  2301728
370
    35
100
AcDb2dPolyline
 66
     1
 10
0.0
 20
0.0
 30
0.0
  0
VERTEX
  5
7F
330
7E
100
AcDbEntity
  8
inner outline
 62
   179
420
  2301728
370
    35
100
AcDbVertex
100
AcDb2dVertex
 10
49.95000099185463
 20
-193.1999999863861
 30
0.0
  0
VERTEX
  5
80
330
7E
100
AcDbEntity
  8
inner outline
 62
   179
420
  2301728
370
    35
100
AcDbVertex
100
AcDb2dVertex
 10
165.9500009628546
 20
-193.1999999863861
 30
0.0
  0
VERTEX
  5
81
330
7E
100
AcDbEntity
  8
inner outline
 62
   179
420
  2301728
370
    35
100
AcDbVertex
100
AcDb2dVertex
 10
165.9500009628546
 20
-86.20000001313606
 30
0.0
  0
VERTEX
  5
82
330
7E
100
AcDbEntity
  8
inner outline
 62
   179
420
  2301728
370
    35
100
AcDbVertex
100
AcDb2dVertex
 10
49.95000099185463
 20
-86.20000001313606
 30
0.0
  0
VERTEX
  5
83
330
7E
100
AcDbEntity
  8
inner outline
 62
   179
420
  2301728
370
    35
100
AcDbVertex
100
AcDb2dVertex
 10
49.95000099185463
 20
-193.1999999863861
 30
0.0
  0
SEQEND
  5
84
330
7E
100
AcDbEntity
  8
inner outline
 62
   179
420
  2301728
370
    35
  0
SPLINE
  5
86
330
1F
100
AcDbEntity
  8
outer outline
 62
   179
420
  2301728
370
    35
100
AcDbSpline
210
0.0
220
0.0
230
1.0
 70
    11
 71
     3
 72
   101
 73
    97
 74
     0
 42
0.0000000001
 43
0.0000000001
 12
1.0
 22
0.0
 32
0.0
 13
1.0
 23
0.0
 33
0.0
 40
0.0
 40
0.0
 40
0.0
 40
0.0
 40
1.0
 40
1.0
 40
1.0
 40
2.0
 40
2.0
 40
2.0
 40
3.0
 40
3.0
 40
3.0
 40
4.0
 40
4.0
 40
4.0
 40
5.0
 40
5.0
 40
5.0
 40
6.0
 40
6.0
 40
6.0
 40
7.0
 40
7.0
 40
7.0
 40
8.0
 40
8.0
 40
8.0
 40
9.0
 40
9.0
 40
9.0
 40
10.0
 40
10.0
 40
10.0
 40
11.0
 40
11.0
 40
11.0
 40
12.0
 40
12.0
 40
12.0
 40
13.0
 40
13.0
 40
13.0
 40
14.0
 40
14.0
 40
14.0
 40
15.0
 40
15.0
 40
15.0
 40
16.0
 40
16.0
 40
16.0
 40
17.0
 40
17.0
 40
17.0
 40
18.0
 40
18.0
 40
18.0
 40
19.0
 40
19.0
 40
19.0
 40
20.0
 40
20.0
 40
20.0
 40
21.0
 40
21.0
 40
21.0
 40
22.0
 40
22.0
 40
22.0
 40
23.0
 40
23.0
 40
23.0
 40
24.0
 40
24.0
 40
24.0
 40
25.0
 40
25.0
 40
25.0
 40
26.0
 40
26.0
 40
26.0
 40
27.0
 40
27.0
 40
27.0
 40
28.0
 40
28.0
 40
28.0
 40
29.0
 40
29.0
 40
29.0
 40
30.0
 40
30.0
 40
30.0
 40
31.0
 40
31.0
 40
31.0
 40
32.0
 40
32.0
 40
32.0
 40
32.0
 10
173.9499999565123
 20
-205.1999999486995
 30
0.0
 10
173.9499999565123
 20
-205.1999999486995
 30
0.0
 10
140.9499999647621
 20
-205.1999999486995
 30
0.0
 10
140.9499999647621
 20
-205.1999999486995
 30
0.0
 10
140.9499999647621
 20
-205.1999999486995
 30
0.0
 10
107.9499999730125
 20
-205.1999999486995
 30
0.0
 10
107.9499999730125
 20
-205.1999999486995
 30
0.0
 10
107.9499999730125
 20
-205.1999999486995
 30
0.0
 10
74.94999998126231
 20
-205.1999999486995
 30
0.0
 10
74.94999998126231
 20
-205.1999999486995
 30
0.0
 10
74.94999998126231
 20
-205.1999999486995
 30
0.0
 10
41.94999998951243
 20
-205.1999999486995
 30
0.0
 10
41.94999998951243
 20
-205.1999999486995
 30
0.0
 10
41.39771523981976
 20
-205.1999999486995
 30
0.0
 10
40.87157286503566
 20
-205.0880711361852
 30
0.0
 10
40.3930194745619
 20
-204.8856601205579
 30
0.0
 10
39.91446608408846
 20
-204.6832491049307
 30
0.0
 10
39.48350167792536
 20
-204.3903558861905
 30
0.0
 10
39.1215728654734
 20
-204.0284270737388
 30
0.0
 10
38.75964405302112
 20
-203.6664982612872
 30
0.0
 10
38.46675083428126
 20
-203.2355338551235
 30
0.0
 10
38.26433981865399
 20
-202.7569804646497
 30
0.0
 10
38.06192880302673
 20
-202.2784270741759
 30
0.0
 10
37.94999999051237
 20
-201.7522846993922
 30
0.0
 10
37.94999999051237
 20
-201.1999999496998
 30
0.0
 10
37.94999999051237
 20
-201.1999999496998
 30
0.0
 10
37.94999999051237
 20
-170.4499999573871
 30
0.0
 10
37.94999999051237
 20
-170.4499999573871
 30
0.0
 10
37.94999999051237
 20
-170.4499999573871
 30
0.0
 10
37.94999999051237
 20
-139.699999965075
 30
0.0
 10
37.94999999051237
 20
-139.699999965075
 30
0.0
 10
37.94999999051237
 20
-139.699999965075
 30
0.0
 10
37.94999999051237
 20
-108.9499999727626
 30
0.0
 10
37.94999999051237
 20
-108.9499999727626
 30
0.0
 10
37.94999999051237
 20
-108.9499999727626
 30
0.0
 10
37.94999999051237
 20
-78.19999998045019
 30
0.0
 10
37.94999999051237
 20
-78.19999998045019
 30
0.0
 10
37.94999999051237
 20
-77.64771523075753
 30
0.0
 10
38.06192880302673
 20
-77.12157285597407
 30
0.0
 10
38.26433981865399
 20
-76.64301946549999
 30
0.0
 10
38.46675083428126
 20
-76.16446607502654
 30
0.0
 10
38.75964405302112
 20
-75.7335016688628
 30
0.0
 10
39.1215728654734
 20
-75.37157285641116
 30
0.0
 10
39.48350167792536
 20
-75.0096440439592
 30
0.0
 10
39.91446608408846
 20
-74.71675082521902
 30
0.0
 10
40.3930194745619
 20
-74.51433980959176
 30
0.0
 10
40.87157286503566
 20
-74.3119287939645
 30
0.0
 10
41.39771523981976
 20
-74.19999998145013
 30
0.0
 10
41.94999998951243
 20
-74.19999998145013
 30
0.0
 10
41.94999998951243
 20
-74.19999998145013
 30
0.0
 10
74.94999998126231
 20
-74.19999998145013
 30
0.0
 10
74.94999998126231
 20
-74.19999998145013
 30
0.0
 10
74.94999998126231
 20
-74.19999998145013
 30
0.0
 10
107.9499999730125
 20
-74.19999998145013
 30
0.0
 10
107.9499999730125
 20
-74.19999998145013
 30
0.0
 10
107.9499999730125
 20
-74.19999998145013
 30
0.0
 10
140.9499999647621
 20
-74.19999998145013
 30
0.0
 10
140.9499999647621
 20
-74.19999998145013
 30
0.0
 10
140.9499999647621
 20
-74.19999998145013
 30
0.0
 10
173.9499999565123
 20
-74.19999998145013
 30
0.0
 10
173.9499999565123
 20
-74.19999998145013
 30
0.0
 10
174.5022847062046
 20
-74.19999998145013
 30
0.0
 10
175.0284270809884
 20
-74.3119287939645
 30
0.0
 10
175.5069804714622
 20
-74.51433980959176
 30
0.0
 10
175.9855338619359
 20
-74.71675082521902
 30
0.0
 10
176.4164982680996
 20
-75.0096440439592
 30
0.0
 10
176.7784270805513
 20
-75.37157285641116
 30
0.0
 10
177.1403558930029
 20
-75.7335016688628
 30
0.0
 10
177.4332491117431
 20
-76.16446607502623
 30
0.0
 10
177.6356601273704
 20
-76.64301946549966
 30
0.0
 10
177.8380711429976
 20
-77.12157285597343
 30
0.0
 10
177.949999955512
 20
-77.6477152307572
 30
0.0
 10
177.949999955512
 20
-78.19999998044987
 30
0.0
 10
177.949999955512
 20
-78.19999998044987
 30
0.0
 10
177.949999955512
 20
-108.9499999727623
 30
0.0
 10
177.949999955512
 20
-108.9499999727623
 30
0.0
 10
177.949999955512
 20
-108.9499999727623
 30
0.0
 10
177.949999955512
 20
-139.699999965075
 30
0.0
 10
177.949999955512
 20
-139.699999965075
 30
0.0
 10
177.949999955512
 20
-139.699999965075
 30
0.0
 10
177.949999955512
 20
-170.4499999573871
 30
0.0
 10
177.949999955512
 20
-170.4499999573871
 30
0.0
 10
177.949999955512
 20
-170.4499999573871
 30
0.0
 10
177.949999955512
 20
-201.1999999496998
 30
0.0
 10
177.949999955512
 20
-201.1999999496998
 30
0.0
 10
177.949999955512
 20
-201.7522846993922
 30
0.0
 10
177.8380711429976
 20
-202.2784270741759
 30
0.0
 10
177.6356601273704
 20
-202.7569804646497
 30
0.0
 10
177.4332491117431
 20
-203.2355338551235
 30
0.0
 10
177.1403558930029
 20
-203.6664982612872
 30
0.0
 10
176.7784270805513
 20
-204.0284270737388
 30
0.0
 10
176.4164982680996
 20
-204.3903558861905
 30
0.0
 10
175.9855338619359
 20
-204.6832491049307
 30
0.0
 10
175.5069804714622
 20
-204.8856601205579
 30
0.0
 10
175.0284270809884
 20
-205.0880711361852
 30
0.0
 10
174.5022847062046
 20
-205.1999999486995
 30
0.0
 10
173.9499999565123
 20
-205.1999999486995
 30
0.0
  0
SPLINE
  5
87
330
1F
100
AcDbEntity
  8
outer outline
 62
   179
420
  2301728
370
    35
100
AcDbSpline
210
0.0
220
0.0
230
1.0
 70
    11
 71
     3
 72
    53
 73
    49
 74
     0
 42
0.0000000001
 43
0.0000000001
 12
1.0
 22
0.0
 32
0.0
 13
1.0
 23
0.0
 33
0.0
 40
0.0
 40
0.0
 40
0.0
 40
0.0
 40
1.0
 40
1.0
 40
1.0
 40
2.0
 40
2.0
 40
2.0
 40
3.0
 40
3.0
 40
3.0
 40
4.0
 40
4.0
 40
4.0
 40
5.0
 40
5.0
 40
5.0
 40
6.0
 40
6.0
 40
6.0
 40
7.0
 40
7.0
 40
7.0
 40
8.0
 40
8.0
 40
8.0
 40
9.0
 40
9.0
 40
9.0
 40
10.0
 40
10.0
 40
10.0
 40
11.0
 40
11.0
 40
11.0
 40
12.0
 40
12.0
 40
12.0
 40
13.0
 40
13.0
 40
13.0
 40
14.0
 40
14.0
 40
14.0
 40
15.0
 40
15.0
 40
15.0
 40
16.0
 40
16.0
 40
16.0
 40
16.0
 10
46.70000099763029
 20
-80.19999997995038
 30
0.0
 10
46.70000099763029
 20
-80.57969574534289
 30
0.0
 10
46.62304993902134
 20
-80.94141862799616
 30
0.0
 10
46.48389236577109
 20
-81.27042408394281
 30
0.0
 10
46.34473479252053
 20
-81.59942953988947
 30
0.0
 10
46.143370704629
 20
-81.8957175691292
 30
0.0
 10
45.89454464606288
 20
-82.144543627695
 30
0.0
 10
45.64571858749709
 20
-82.3933696862608
 30
0.0
 10
45.34943055825735
 20
-82.59473377415266
 30
0.0
 10
45.02042510231069
 20
-82.73389134740322
 30
0.0
 10
44.69141964636403
 20
-82.87304892065379
 30
0.0
 10
44.32969676371044
 20
-82.94999997926242
 30
0.0
 10
43.95000099831793
 20
-82.94999997926242
 30
0.0
 10
43.57030523292542
 20
-82.94999997926242
 30
0.0
 10
43.20858235027152
 20
-82.87304892065379
 30
0.0
 10
42.87957689432518
 20
-82.73389134740322
 30
0.0
 10
42.55057143837852
 20
-82.59473377415266
 30
0.0
 10
42.25428340913878
 20
-82.3933696862608
 30
0.0
 10
42.00545735057298
 20
-82.144543627695
 30
0.0
 10
41.75663129200719
 20
-81.8957175691292
 30
0.0
 10
41.55526720411534
 20
-81.59942953988947
 30
0.0
 10
41.41610963086477
 20
-81.27042408394281
 30
0.0
 10
41.27695205761453
 20
-80.94141862799616
 30
0.0
 10
41.20000099900557
 20
-80.57969574534289
 30
0.0
 10
41.20000099900557
 20
-80.19999997995038
 30
0.0
 10
41.20000099900557
 20
-79.82030421455754
 30
0.0
 10
41.27695205761453
 20
-79.45858133190428
 30
0.0
 10
41.41610963086477
 20
-79.12957587595763
 30
0.0
 10
41.55526720411534
 20
-78.80057042001097
 30
0.0
 10
41.75663129200719
 20
-78.5042823907709
 30
0.0
 10
42.00545735057298
 20
-78.25545633220511
 30
0.0
 10
42.25428340913878
 20
-78.00663027363932
 30
0.0
 10
42.55057143837852
 20
-77.80526618574746
 30
0.0
 10
42.87957689432518
 20
-77.6661086124969
 30
0.0
 10
43.20858235027152
 20
-77.52695103924698
 30
0.0
 10
43.57030523292542
 20
-77.4499999806377
 30
0.0
 10
43.95000099831793
 20
-77.4499999806377
 30
0.0
 10
44.32969676371044
 20
-77.4499999806377
 30
0.0
 10
44.69141964636403
 20
-77.52695103924698
 30
0.0
 10
45.02042510231069
 20
-77.6661086124969
 30
0.0
 10
45.34943055825735
 20
-77.80526618574746
 30
0.0
 10
45.64571858749709
 20
-78.00663027363932
 30
0.0
 10
45.89454464606288
 20
-78.25545633220511
 30
0.0
 10
46.143370704629
 20
-78.5042823907709
 30
0.0
 10
46.34473479252053
 20
-78.80057042001097
 30
0.0
 10
46.48389236577109
 20
-79.12957587595763
 30
0.0
 10
46.62304993902134
 20
-79.45858133190428
 30
0.0
 10
46.70000099763029
 20
-79.82030421455754
 30
0.0
 10
46.70000099763029
 20
-80.19999997995038
 30
0.0
  0
SPLINE
  5
88
330
1F
100
AcDbEntity
  8
outer outline
 62
   179
420
  2301728
370
    35
100
AcDbSpline
210
0.0
220
0.0
230
1.0
 70
    11
 71
     3
 72
    53
 73
    49
 74
     0
 42
0.0000000001
 43
0.0000000001
 12
1.0
 22
0.0
 32
0.0
 13
1.0
 23
0.0
 33
0.0
 40
0.0
 40
0.0
 40
0.0
 40
0.0
 40
1.0
 40
1.0
 40
1.0
 40
2.0
 40
2.0
 40
2.0
 40
3.0
 40
3.0
 40
3.0
 40
4.0
 40
4.0
 40
4.0
 40
5.0
 40
5.0
 40
5.0
 40
6.0
 40
6.0
 40
6.0
 40
7.0
 40
7.0
 40
7.0
 40
8.0
 40
8.0
 40
8.0
 40
9.0
 40
9.0
 40
9.0
 40
10.0
 40
10.0
 40
10.0
 40
11.0
 40
11.0
 40
11.0
 40
12.0
 40
12.0
 40
12.0
 40
13.0
 40
13.0
 40
13.0
 40
14.0
 40
14.0
 40
14.0
 40
15.0
 40
15.0
 40
15.0
 40
16.0
 40
16.0
 40
16.0
 40
16.0
 10
174.7000009656307
 20
-80.19999997995038
 30
0.0
 10
174.7000009656307
 20
-80.57969574534289
 30
0.0
 10
174.6230499070214
 20
-80.94141862799616
 30
0.0
 10
174.4838923337712
 20
-81.27042408394281
 30
0.0
 10
174.344734760521
 20
-81.59942953988947
 30
0.0
 10
174.1433706726291
 20
-81.8957175691292
 30
0.0
 10
173.8945446140633
 20
-82.144543627695
 30
0.0
 10
173.6457185554969
 20
-82.3933696862608
 30
0.0
 10
173.3494305262571
 20
-82.59473377415266
 30
0.0
 10
173.0204250703105
 20
-82.73389134740322
 30
0.0
 10
172.6914196143638
 20
-82.87304892065379
 30
0.0
 10
172.3296967317102
 20
-82.94999997926242
 30
0.0
 10
171.950000966318
 20
-82.94999997926242
 30
0.0
 10
171.5703052009258
 20
-82.94999997926242
 30
0.0
 10
171.2085823182722
 20
-82.87304892065379
 30
0.0
 10
170.8795768623256
 20
-82.73389134740322
 30
0.0
 10
170.5505714063789
 20
-82.59473377415266
 30
0.0
 10
170.2542833771392
 20
-82.3933696862608
 30
0.0
 10
170.0054573185728
 20
-82.144543627695
 30
0.0
 10
169.756631260007
 20
-81.8957175691292
 30
0.0
 10
169.5552671721151
 20
-81.59942953988947
 30
0.0
 10
169.4161095988649
 20
-81.27042408394281
 30
0.0
 10
169.2769520256146
 20
-80.94141862799616
 30
0.0
 10
169.2000009670054
 20
-80.57969574534289
 30
0.0
 10
169.2000009670054
 20
-80.19999997995038
 30
0.0
 10
169.2000009670054
 20
-79.82030421455754
 30
0.0
 10
169.2769520256146
 20
-79.45858133190428
 30
0.0
 10
169.4161095988649
 20
-79.12957587595763
 30
0.0
 10
169.5552671721151
 20
-78.80057042001097
 30
0.0
 10
169.756631260007
 20
-78.5042823907709
 30
0.0
 10
170.0054573185728
 20
-78.25545633220511
 30
0.0
 10
170.2542833771392
 20
-78.00663027363932
 30
0.0
 10
170.5505714063789
 20
-77.80526618574746
 30
0.0
 10
170.8795768623256
 20
-77.6661086124969
 30
0.0
 10
171.2085823182722
 20
-77.52695103924698
 30
0.0
 10
171.5703052009258
 20
-77.4499999806377
 30
0.0
 10
171.950000966318
 20
-77.4499999806377
 30
0.0
 10
172.3296967317102
 20
-77.4499999806377
 30
0.0
 10
172.6914196143638
 20
-77.52695103924698
 30
0.0
 10
173.0204250703105
 20
-77.6661086124969
 30
0.0
 10
173.3494305262571
 20
-77.80526618574746
 30
0.0
 10
173.6457185554969
 20
-78.00663027363932
 30
0.0
 10
173.8945446140633
 20
-78.25545633220511
 30
0.0
 10
174.1433706726291
 20
-78.5042823907709
 30
0.0
 10
174.344734760521
 20
-78.80057042001097
 30
0.0
 10
174.4838923337712
 20
-79.12957587595763
 30
0.0
 10
174.6230499070214
 20
-79.45858133190428
 30
0.0
 10
174.7000009656307
 20
-79.82030421455754
 30
0.0
 10
174.7000009656307
 20
-80.19999997995038
 30
0.0
  0
SPLINE
  5
89
330
1F
100
AcDbEntity
  8
outer outline
 62
   179
420
  2301728
370
    35
100
AcDbSpline
210
0.0
220
0.0
230
1.0
 70
    11
 71
     3
 72
    53
 73
    49
 74
     0
 42
0.0000000001
 43
0.0000000001
 12
1.0
 22
0.0
 32
0.0
 13
1.0
 23
0.0
 33
0.0
 40
0.0
 40
0.0
 40
0.0
 40
0.0
 40
1.0
 40
1.0
 40
1.0
 40
2.0
 40
2.0
 40
2.0
 40
3.0
 40
3.0
 40
3.0
 40
4.0
 40
4.0
 40
4.0
 40
5.0
 40
5.0
 40
5.0
 40
6.0
 40
6.0
 40
6.0
 40
7.0
 40
7.0
 40
7.0
 40
8.0
 40
8.0
 40
8.0
 40
9.0
 40
9.0
 40
9.0
 40
10.0
 40
10.0
 40
10.0
 40
11.0
 40
11.0
 40
11.0
 40
12.0
 40
12.0
 40
12.0
 40
13.0
 40
13.0
 40
13.0
 40
14.0
 40
14.0
 40
14.0
 40
15.0
 40
15.0
 40
15.0
 40
16.0
 40
16.0
 40
16.0
 40
16.0
 10
174.7000009656307
 20
-199.199998381936
 30
0.0
 10
174.7000009656307
 20
-199.5796941473288
 30
0.0
 10
174.6230499070214
 20
-199.9414170299817
 30
0.0
 10
174.4838923337712
 20
-200.2704224859284
 30
0.0
 10
174.344734760521
 20
-200.599427941875
 30
0.0
 10
174.1433706726291
 20
-200.8957159711148
 30
0.0
 10
173.8945446140633
 20
-201.1445420296806
 30
0.0
 10
173.6457185554969
 20
-201.3933680882464
 30
0.0
 10
173.3494305262571
 20
-201.5947321761382
 30
0.0
 10
173.0204250703105
 20
-201.7338897493885
 30
0.0
 10
172.6914196143638
 20
-201.8730473226387
 30
0.0
 10
172.3296967317102
 20
-201.949998381248
 30
0.0
 10
171.950000966318
 20
-201.949998381248
 30
0.0
 10
171.5703052009258
 20
-201.949998381248
 30
0.0
 10
171.2085823182722
 20
-201.8730473226387
 30
0.0
 10
170.8795768623256
 20
-201.7338897493885
 30
0.0
 10
170.5505714063789
 20
-201.5947321761382
 30
0.0
 10
170.2542833771392
 20
-201.3933680882464
 30
0.0
 10
170.0054573185728
 20
-201.1445420296806
 30
0.0
 10
169.756631260007
 20
-200.8957159711148
 30
0.0
 10
169.5552671721151
 20
-200.599427941875
 30
0.0
 10
169.4161095988649
 20
-200.2704224859284
 30
0.0
 10
169.2769520256146
 20
-199.9414170299817
 30
0.0
 10
169.2000009670054
 20
-199.5796941473288
 30
0.0
 10
169.2000009670054
 20
-199.199998381936
 30
0.0
 10
169.2000009670054
 20
-198.8203026165431
 30
0.0
 10
169.2769520256146
 20
-198.4585797338895
 30
0.0
 10
169.4161095988649
 20
-198.1295742779429
 30
0.0
 10
169.5552671721151
 20
-197.8005688219962
 30
0.0
 10
169.756631260007
 20
-197.5042807927565
 30
0.0
 10
170.0054573185728
 20
-197.2554547341907
 30
0.0
 10
170.2542833771392
 20
-197.0066286756249
 30
0.0
 10
170.5505714063789
 20
-196.8052645877324
 30
0.0
 10
170.8795768623256
 20
-196.6661070144822
 30
0.0
 10
171.2085823182722
 20
-196.5269494412319
 30
0.0
 10
171.5703052009258
 20
-196.4499983826233
 30
0.0
 10
171.950000966318
 20
-196.4499983826233
 30
0.0
 10
172.3296967317102
 20
-196.4499983826233
 30
0.0
 10
172.6914196143638
 20
-196.5269494412319
 30
0.0
 10
173.0204250703105
 20
-196.6661070144822
 30
0.0
 10
173.3494305262571
 20
-196.8052645877324
 30
0.0
 10
173.6457185554969
 20
-197.0066286756249
 30
0.0
 10
173.8945446140633
 20
-197.2554547341907
 30
0.0
 10
174.1433706726291
 20
-197.5042807927565
 30
0.0
 10
174.344734760521
 20
-197.8005688219962
 30
0.0
 10
174.4838923337712
 20
-198.1295742779429
 30
0.0
 10
174.6230499070214
 20
-198.4585797338895
 30
0.0
 10
174.7000009656307
 20
-198.8203026165431
 30
0.0
 10
174.7000009656307
 20
-199.199998381936
 30
0.0
  0
SPLINE
  5
8A
330
1F
100
AcDbEntity
  8
outer outline
 62
   179
420
  2301728
370
    35
100
AcDbSpline
210
0.0
220
0.0
230
1.0
 70
    11
 71
     3
 72
    53
 73
    49
 74
     0
 42
0.0000000001
 43
0.0000000001
 12
1.0
 22
0.0
 32
0.0
 13
1.0
 23
0.0
 33
0.0
 40
0.0
 40
0.0
 40
0.0
 40
0.0
 40
1.0
 40
1.0
 40
1.0
 40
2.0
 40
2.0
 40
2.0
 40
3.0
 40
3.0
 40
3.0
 40
4.0
 40
4.0
 40
4.0
 40
5.0
 40
5.0
 40
5.0
 40
6.0
 40
6.0
 40
6.0
 40
7.0
 40
7.0
 40
7.0
 40
8.0
 40
8.0
 40
8.0
 40
9.0
 40
9.0
 40
9.0
 40
10.0
 40
10.0
 40
10.0
 40
11.0
 40
11.0
 40
11.0
 40
12.0
 40
12.0
 40
12.0
 40
13.0
 40
13.0
 40
13.0
 40
14.0
 40
14.0
 40
14.0
 40
15.0
 40
15.0
 40
15.0
 40
16.0
 40
16.0
 40
16.0
 40
16.0
 10
46.70000282020828
 20
-199.199998381936
 30
0.0
 10
46.70000282020828
 20
-199.5796941473288
 30
0.0
 10
46.62305176159933
 20
-199.9414170299817
 30
0.0
 10
46.48389418834877
 20
-200.2704224859284
 30
0.0
 10
46.34473661509821
 20
-200.599427941875
 30
0.0
 10
46.14337252720667
 20
-200.8957159711148
 30
0.0
 10
45.89454646864088
 20
-201.1445420296806
 30
0.0
 10
45.64572041007477
 20
-201.3933680882464
 30
0.0
 10
45.3494323808347
 20
-201.5947321761382
 30
0.0
 10
45.02042692488804
 20
-201.7338897493885
 30
0.0
 10
44.69142146894139
 20
-201.8730473226387
 30
0.0
 10
44.32969858628812
 20
-201.949998381248
 30
0.0
 10
43.95000282089593
 20
-201.949998381248
 30
0.0
 10
43.57030705550309
 20
-201.949998381248
 30
0.0
 10
43.20858417284984
 20
-201.8730473226387
 30
0.0
 10
42.87957871690318
 20
-201.7338897493885
 30
0.0
 10
42.55057326095652
 20
-201.5947321761382
 30
0.0
 10
42.25428523171678
 20
-201.3933680882464
 30
0.0
 10
42.00545917315066
 20
-201.1445420296806
 30
0.0
 10
41.75663311458455
 20
-200.8957159711148
 30
0.0
 10
41.55526902669269
 20
-200.599427941875
 30
0.0
 10
41.41611145344245
 20
-200.2704224859284
 30
0.0
 10
41.27695388019253
 20
-199.9414170299817
 30
0.0
 10
41.20000282158325
 20
-199.5796941473288
 30
0.0
 10
41.20000282158325
 20
-199.199998381936
 30
0.0
 10
41.20000282158325
 20
-198.8203026165431
 30
0.0
 10
41.27695388019253
 20
-198.4585797338895
 30
0.0
 10
41.41611145344245
 20
-198.1295742779429
 30
0.0
 10
41.55526902669269
 20
-197.8005688219962
 30
0.0
 10
41.75663311458455
 20
-197.5042807927565
 30
0.0
 10
42.00545917315066
 20
-197.2554547341907
 30
0.0
 10
42.25428523171678
 20
-197.0066286756249
 30
0.0
 10
42.55057326095652
 20
-196.8052645877324
 30
0.0
 10
42.87957871690318
 20
-196.6661070144822
 30
0.0
 10
43.20858417284984
 20
-196.5269494412319
 30
0.0
 10
43.57030705550309
 20
-196.4499983826233
 30
0.0
 10
43.95000282089593
 20
-196.4499983826233
 30
0.0
 10
44.32969858628812
 20
-196.4499983826233
 30
0.0
 10
44.69142146894139
 20
-196.5269494412319
 30
0.0
 10
45.02042692488804
 20
-196.6661070144822
 30
0.0
 10
45.3494323808347
 20
-196.8052645877324
 30
0.0
 10
45.64572041007477
 20
-197.0066286756249
 30
0.0
 10
45.89454646864088
 20
-197.2554547341907
 30
0.0
 10
46.14337252720667
 20
-197.5042807927565
 30
0.0
 10
46.34473661509821
 20
-197.8005688219962
 30
0.0
 10
46.48389418834877
 20
-198.1295742779429
 30
0.0
 10
46.62305176159933
 20
-198.4585797338895
 30
0.0
 10
46.70000282020828
 20
-198.8203026165431
 30
0.0
 10
46.70000282020828
 20
-199.199998381936
 30
0.0
  0
POLYLINE
  5
8C
330
1F
100
AcDbEntity
  8
guides
 62
   179
420
  2301728
370
    35
100
AcDb2dPolyline
 66
     1
 10
0.0
 20
0.0
 30
0.0
  0
VERTEX
  5
8D
330
8C
100
AcDbEntity
  8
guides
 62
   179
420
  2301728
370
    35
100
AcDbVertex
100
AcDb2dVertex
 10
86.22314869084737
 20
-110.6440008937653
 30
0.0
  0
VERTEX
  5
8E
330
8C
100
AcDbEntity
  8
guides
 62
   179
420
  2301728
370
    35
100
AcDbVertex
100
AcDb2dVertex
 10
86.22314869084737
 20
-96.74400089724024
 30
0.0
  0
VERTEX
  5
8F
330
8C
100
AcDbEntity
  8
guides
 62
   179
420
  2301728
370
    35
100
AcDbVertex
100
AcDb2dVertex
 10
107.9231486854229
 20
-96.74400089724024
 30
0.0
  0
VERTEX
  5
90
330
8C
100
AcDbEntity
  8
guides
 62
   179
420
  2301728
370
    35
100
AcDbVertex
100
AcDb2dVertex
 10
107.9231486854229
 20
-110.6440008937653
 30
0.0
  0
VERTEX
  5
91
330
8C
100
AcDbEntity
  8
guides
 62
   179
420
  2301728
370
    35
100
AcDbVertex
100
AcDb2dVertex
 10
86.22314869084737
 20
-110.6440008937653
 30
0.0
  0
SEQEND
  5
92
330
8C
100
AcDbEntity
  8
guides
 62
   179
420
  2301728
370
    35
  0
POLYLINE
  5
93
330
1F
100
AcDbEntity
  8
guides
 62
   179
420
  2301728
370
    35
100
AcDb2dPolyline
 66
     1
 10
0.0
 20
0.0
 30
0.0
  0
VERTEX
  5
94
330
93
100
AcDbEntity
  8
guides
 62
   179
420
  2301728
370
    35
100
AcDbVertex
100
AcDb2dVertex
 10
105.6574090666988
 20
-98.99400053220646
 30
0.0
  0
VERTEX
  5
95
330
93
100
AcDbEntity
  8
guides
 62
   179
420
  2301728
370
    35
100
AcDbVertex
100
AcDb2dVertex
 10
105.6574090666988
 20
-108.3940005298572
 30
0.0
  0
SEQEND
  5
96
330
93
100
AcDbEntity
  8
guides
 62
   179
420
  2301728
370
    35
  0
SPLINE
  5
98
330
1F
100
AcDbEntity
  8
mic
 62
   179
420
  2301728
370
    35
100
AcDbSpline
210
0.0
220
0.0
230
1.0
 70
    11
 71
     3
 72
    17
 73
    13
 74
     0
 42
0.0000000001
 43
0.0000000001
 12
1.0
 22
0.0
 32
0.0
 13
1.0
 23
0.0
 33
0.0
 40
0.0
 40
0.0
 40
0.0
 40
0.0
 40
1.0
 40
1.0
 40
1.0
 40
2.0
 40
2.0
 40
2.0
 40
3.0
 40
3.0
 40
3.0
 40
4.0
 40
4.0
 40
4.0
 40
4.0
 10
103.5416756485968
 20
-108.794002096036
 30
0.0
 10
100.7250234253211
 20
-108.794002096036
 30
0.0
 10
98.44167564987202
 20
-106.5106543205854
 30
0.0
 10
98.44167564987202
 20
-103.6940020973103
 30
0.0
 10
98.44167564987202
 20
-100.8773498740345
 30
0.0
 10
100.7250234253211
 20
-98.59400209858578
 30
0.0
 10
103.5416756485968
 20
-98.59400209858578
 30
0.0
 10
106.3583278718726
 20
-98.59400209858578
 30
0.0
 10
108.6416756473223
 20
-100.8773498740345
 30
0.0
 10
108.6416756473223
 20
-103.6940020973103
 30
0.0
 10
108.6416756473223
 20
-106.5106543205854
 30
0.0
 10
106.3583278718726
 20
-108.794002096036
 30
0.0
 10
103.5416756485968
 20
-108.794002096036
 30
0.0
  0
HATCH
  5
99
330
1F
100
AcDbEntity
  8
mic
 62
   178
420
        0
100
AcDbHatch
 10
0.0
 20
0.0
 30
0.0
210
0.0
220
0.0
230
1.0
  2
SOLID
 70
     1
 71
     0
 91
        1
 92
        1
 93
        1
 72
     4
 94
        3
 73
     0
 74
     1
 95
       17
 96
       13
 40
0.0
 40
0.0
 40
0.0
 40
0.0
 40
1.0
 40
1.0
 40
1.0
 40
2.0
 40
2.0
 40
2.0
 40
3.0
 40
3.0
 40
3.0
 40
4.0
 40
4.0
 40
4.0
 40
4.0
 10
103.5416756485968
 20
-108.794002096036
 10
100.7250234253211
 20
-108.794002096036
 10
98.44167564987202
 20
-106.5106543205854
 10
98.44167564987202
 20
-103.6940020973103
 10
98.44167564987202
 20
-100.8773498740345
 10
100.7250234253211
 20
-98.59400209858578
 10
103.5416756485968
 20
-98.59400209858578
 10
106.3583278718726
 20
-98.59400209858578
 10
108.6416756473223
 20
-100.8773498740345
 10
108.6416756473223
 20
-103.6940020973103
 10
108.6416756473223
 20
-106.5106543205854
 10
106.3583278718726
 20
-108.794002096036
 10
103.5416756485968
 20
-108.794002096036
 97
        0
 97
        0
 75
     2
 76
     1
 98
        0
  0
SPLINE
  5
9A
330
1F
100
AcDbEntity
  8
mic
 62
   179
420
  2301728
370
    35
100
AcDbSpline
210
0.0
220
0.0
230
1.0
 70
    11
 71
     3
 72
    29
 73
    25
 74
     0
 42
0.0000000001
 43
0.0000000001
 12
1.0
 22
0.0
 32
0.0
 13
1.0
 23
0.0
 33
0.0
 40
0.0
 40
0.0
 40
0.0
 40
0.0
 40
1.0
 40
1.0
 40
1.0
 40
2.0
 40
2.0
 40
2.0
 40
3.0
 40
3.0
 40
3.0
 40
4.0
 40
4.0
 40
4.0
 40
5.0
 40
5.0
 40
5.0
 40
6.0
 40
6.0
 40
6.0
 40
7.0
 40
7.0
 40
7.0
 40
8.0
 40
8.0
 40
8.0
 40
8.0
 10
108.6569543222565
 20
-100.4940007823915
 30
0.0
 10
107.8285271977639
 20
-100.4940007823915
 30
0.0
 10
107.1569543226315
 20
-99.8224279072598
 30
0.0
 10
107.1569543226315
 20
-98.9940007827662
 30
0.0
 10
107.1569543226315
 20
-98.9940007827662
 30
0.0
 10
107.1569543226315
 20
-98.9940007827662
 30
0.0
 10
107.1569543226315
 20
-98.9940007827662
 30
0.0
 10
107.1569543226315
 20
-98.16557365827323
 30
0.0
 10
107.8285271977639
 20
-97.49400078314184
 30
0.0
 10
108.6569543222565
 20
-97.49400078314184
 30
0.0
 10
108.6569543222565
 20
-97.49400078314184
 30
0.0
 10
108.6569543222565
 20
-97.49400078314184
 30
0.0
 10
108.6569543222565
 20
-97.49400078314184
 30
0.0
 10
109.4853814467479
 20
-97.49400078314184
 30
0.0
 10
110.1569543218815
 20
-98.16557365827323
 30
0.0
 10
110.1569543218815
 20
-98.9940007827662
 30
0.0
 10
110.1569543218815
 20
-98.9940007827662
 30
0.0
 10
110.1569543218815
 20
-98.9940007827662
 30
0.0
 10
110.1569543218815
 20
-98.9940007827662
 30
0.0
 10
110.1569543218815
 20
-99.8224279072598
 30
0.0
 10
109.4853814467479
 20
-100.4940007823915
 30
0.0
 10
108.6569543222565
 20
-100.4940007823915
 30
0.0
 10
108.6569543222565
 20
-100.4940007823915
 30
0.0
 10
108.6569543222565
 20
-100.4940007823915
 30
0.0
 10
108.6569543222565
 20
-100.4940007823915
 30
0.0
  0
SPLINE
  5
9B
330
1F
100
AcDbEntity
  8
mic
 62
   179
420
  2301728
370
    35
100
AcDbSpline
210
0.0
220
0.0
230
1.0
 70
    11
 71
     3
 72
    29
 73
    25
 74
     0
 42
0.0000000001
 43
0.0000000001
 12
1.0
 22
0.0
 32
0.0
 13
1.0
 23
0.0
 33
0.0
 40
0.0
 40
0.0
 40
0.0
 40
0.0
 40
1.0
 40
1.0
 40
1.0
 40
2.0
 40
2.0
 40
2.0
 40
3.0
 40
3.0
 40
3.0
 40
4.0
 40
4.0
 40
4.0
 40
5.0
 40
5.0
 40
5.0
 40
6.0
 40
6.0
 40
6.0
 40
7.0
 40
7.0
 40
7.0
 40
8.0
 40
8.0
 40
8.0
 40
8.0
 10
108.6569543222565
 20
-109.8940010078637
 30
0.0
 10
107.8285271977639
 20
-109.8940010078637
 30
0.0
 10
107.1569543226315
 20
-109.2224281327323
 30
0.0
 10
107.1569543226315
 20
-108.3940010082384
 30
0.0
 10
107.1569543226315
 20
-108.3940010082384
 30
0.0
 10
107.1569543226315
 20
-108.3940010082384
 30
0.0
 10
107.1569543226315
 20
-108.3940010082384
 30
0.0
 10
107.1569543226315
 20
-107.5655738837457
 30
0.0
 10
107.8285271977639
 20
-106.8940010086134
 30
0.0
 10
108.6569543222565
 20
-106.8940010086134
 30
0.0
 10
108.6569543222565
 20
-106.8940010086134
 30
0.0
 10
108.6569543222565
 20
-106.8940010086134
 30
0.0
 10
108.6569543222565
 20
-106.8940010086134
 30
0.0
 10
109.4853814467479
 20
-106.8940010086134
 30
0.0
 10
110.1569543218815
 20
-107.5655738837457
 30
0.0
 10
110.1569543218815
 20
-108.3940010082384
 30
0.0
 10
110.1569543218815
 20
-108.3940010082384
 30
0.0
 10
110.1569543218815
 20
-108.3940010082384
 30
0.0
 10
110.1569543218815
 20
-108.3940010082384
 30
0.0
 10
110.1569543218815
 20
-109.2224281327323
 30
0.0
 10
109.4853814467479
 20
-109.8940010078637
 30
0.0
 10
108.6569543222565
 20
-109.8940010078637
 30
0.0
 10
108.6569543222565
 20
-109.8940010078637
 30
0.0
 10
108.6569543222565
 20
-109.8940010078637
 30
0.0
 10
108.6569543222565
 20
-109.8940010078637
 30
0.0
  0
POLYLINE
  5
9C
330
1F
100
AcDbEntity
  8
mic
 62
   179
420
  2301728
370
    35
100
AcDb2dPolyline
 66
     1
 10
0.0
 20
0.0
 30
0.0
  0
VERTEX
  5
9D
330
9C
100
AcDbEntity
  8
mic
 62
   179
420
  2301728
370
    35
100
AcDbVertex
100
AcDb2dVertex
 10
94.23704562702042
 20
-110.6439999723387
 30
0.0
  0
VERTEX
  5
9E
330
9C
100
AcDbEntity
  8
mic
 62
   179
420
  2301728
370
    35
100
AcDbVertex
100
AcDb2dVertex
 10
89.23704562827028
 20
-110.6439999723387
 30
0.0
  0
VERTEX
  5
9F
330
9C
100
AcDbEntity
  8
mic
 62
   179
420
  2301728
370
    35
100
AcDbVertex
100
AcDb2dVertex
 10
89.23704562827028
 20
-96.74400089724024
 30
0.0
  0
VERTEX
  5
A0
330
9C
100
AcDbEntity
  8
mic
 62
   179
420
  2301728
370
    35
100
AcDbVertex
100
AcDb2dVertex
 10
94.23704562702042
 20
-96.74400089724024
 30
0.0
  0
VERTEX
  5
A1
330
9C
100
AcDbEntity
  8
mic
 62
   179
420
  2301728
370
    35
100
AcDbVertex
100
AcDb2dVertex
 10
94.23704562702042
 20
-110.6439999723387
 30
0.0
  0
SEQEND
  5
A2
330
9C
100
AcDbEntity
  8
mic
 62
   179
420
  2301728
370
    35
  0
ENDSEC
  0
SECTION
  2
OBJECTS
  0
DICTIONARY
  5
C
330
0
100
AcDbDictionary
281
     1
  3
ACAD_GROUP
350
D
  3
ACAD_LAYOUT
350
1A
  3
ACAD_MATERIAL
350
3B
  3
ACAD_MLEADERSTYLE
350
A4
  3
ACAD_MLINESTYLE
350
17
  3
ACAD_PLOTSETTINGS
350
19
  3
ACAD_PLOTSTYLENAME
350
E
  3
ACAD_TABLESTYLE
350
A3
  3
ACAD_VISUALSTYLE
350
2A
  0
SUN
  5
3F
330
29
100
AcDbSun
 90
        1
290
     0
 63
     7
421
 16777215
 40
1.0
291
     1
 91
  2455826
 92
 54000000
292
     0
 70
     2
 71
   256
280
     1
  0
DICTIONARY
  5
D
102
{ACAD_REACTORS
330
C
102
}
330
C
100
AcDbDictionary
281
     1
  0
DICTIONARY
  5
1A
102
{ACAD_REACTORS
330
C
102
}
330
C
100
AcDbDictionary
281
     1
  3
Layout1
350
1E
  3
Layout2
350
26
  3
Model
350
22
  0
DICTIONARY
  5
3B
102
{ACAD_REACTORS
330
C
102
}
330
C
100
AcDbDictionary
281
     1
  3
ByBlock
350
3D
  3
ByLayer
350
3C
  3
Global
350
3E
  0
DICTIONARY
  5
A4
102
{ACAD_REACTORS
330
C
102
}
330
C
100
AcDbDictionary
281
     1
  0
DICTIONARY
  5
17
102
{ACAD_REACTORS
330
C
102
}
330
C
100
AcDbDictionary
281
     1
  3
Standard
350
18
  0
DICTIONARY
  5
19
102
{ACAD_REACTORS
330
C
102
}
330
C
100
AcDbDictionary
281
     1
  0
ACDBDICTIONARYWDFLT
  5
E
102
{ACAD_REACTORS
330
C
102
}
330
C
100
AcDbDictionary
281
     1
  3
Normal
350
F
100
AcDbDictionaryWithDefault
340
F
  0
DICTIONARY
  5
A3
102
{ACAD_REACTORS
330
C
102
}
330
C
100
AcDbDictionary
281
     1
  0
DICTIONARY
  5
2A
102
{ACAD_REACTORS
330
C
102
}
330
C
100
AcDbDictionary
281
     1
  3
2dWireframe
350
2F
  3
3D Hidden
350
31
  3
3dWireframe
350
30
  3
Basic
350
32
  3
Brighten
350
36
  3
ColorChange
350
3A
  3
Conceptual
350
34
  3
Dim
350
35
  3
Facepattern
350
39
  3
Flat
350
2B
  3
FlatWithEdges
350
2C
  3
Gouraud
350
2D
  3
GouraudWithEdges
350
2E
  3
Linepattern
350
38
  3
Realistic
350
33
  3
Thicken
350
37
  0
LAYOUT
  5
1E
102
{ACAD_REACTORS
330
1A
102
}
330
1A
100
AcDbPlotSettings
  1

  2
none_device
  4

  6

 40
0.0
 41
0.0
 42
0.0
 43
0.0
 44
0.0
 45
0.0
 46
0.0
 47
0.0
 48
0.0
 49
0.0
140
0.0
141
0.0
142
1.0
143
1.0
 70
   688
 72
     0
 73
     0
 74
     5
  7

 75
    16
 76
     0
 77
     2
 78
   300
147
1.0
148
0.0
149
0.0
100
AcDbLayout
  1
Layout1
 70
     1
 71
     1
 10
0.0
 20
0.0
 11
12.0
 21
9.0
 12
0.0
 22
0.0
 32
0.0
 14
1.000000000000000E+20
 24
1.000000000000000E+20
 34
1.000000000000000E+20
 15
-1.000000000000000E+20
 25
-1.000000000000000E+20
 35
-1.000000000000000E+20
146
0.0
 13
0.0
 23
0.0
 33
0.0
 16
1.0
 26
0.0
 36
0.0
 17
0.0
 27
1.0
 37
0.0
 76
     0
330
1B
  0
LAYOUT
  5
26
102
{ACAD_REACTORS
330
1A
102
}
330
1A
100
AcDbPlotSettings
  1

  2
none_device
  4

  6

 40
0.0
 41
0.0
 42
0.0
 43
0.0
 44
0.0
 45
0.0
 46
0.0
 47
0.0
 48
0.0
 49
0.0
140
0.0
141
0.0
142
1.0
143
1.0
 70
   688
 72
     0
 73
     0
 74
     5
  7

 75
    16
 76
     0
 77
     2
 78
   300
147
1.0
148
0.0
149
0.0
100
AcDbLayout
  1
Layout2
 70
     1
 71
     2
 10
0.0
 20
0.0
 11
0.0
 21
0.0
 12
0.0
 22
0.0
 32
0.0
 14
0.0
 24
0.0
 34
0.0
 15
0.0
 25
0.0
 35
0.0
146
0.0
 13
0.0
 23
0.0
 33
0.0
 16
1.0
 26
0.0
 36
0.0
 17
0.0
 27
1.0
 37
0.0
 76
     0
330
23
  0
LAYOUT
  5
22
102
{ACAD_REACTORS
330
1A
102
}
330
1A
100
AcDbPlotSettings
  1

  2
none_device
  4

  6

 40
0.0
 41
0.0
 42
0.0
 43
0.0
 44
0.0
 45
0.0
 46
0.0
 47
0.0
 48
0.0
 49
0.0
140
0.0
141
0.0
142
1.0
143
1.0
 70
  1712
 72
     0
 73
     0
 74
     0
  7

 75
     0
 76
     0
 77
     2
 78
   300
147
1.0
148
0.0
149
0.0
100
AcDbLayout
  1
Model
 70
     1
 71
     0
 10
0.0
 20
0.0
 11
12.0
 21
9.0
 12
0.0
 22
0.0
 32
0.0
 14
1.000000000000000E+20
 24
1.000000000000000E+20
 34
1.000000000000000E+20
 15
-1.000000000000000E+20
 25
-1.000000000000000E+20
 35
-1.000000000000000E+20
146
0.0
 13
0.0
 23
0.0
 33
0.0
 16
1.0
 26
0.0
 36
0.0
 17
0.0
 27
1.0
 37
0.0
 76
     0
330
1F
331
29
  0
MATERIAL
  5
3D
102
{ACAD_REACTORS
330
3B
102
}
330
3B
100
AcDbMaterial
  1
ByBlock
 72
     1
 94
      127
  0
MATERIAL
  5
3C
102
{ACAD_REACTORS
330
3B
102
}
330
3B
100
AcDbMaterial
  1
ByLayer
 72
     1
 94
      127
  0
MATERIAL
  5
3E
102
{ACAD_REACTORS
330
3B
102
}
330
3B
100
AcDbMaterial
  1
Global
 72
     1
 94
      127
  0
MLINESTYLE
  5
18
102
{ACAD_REACTORS
330
17
102
}
330
17
100
AcDbMlineStyle
  2
Standard
 70
     0
  3

 62
   256
 51
90.0
 52
90.0
 71
     2
 49
0.5
 62
   256
  6
BYLAYER
 49
-0.5
 62
   256
  6
BYLAYER
  0
ACDBPLACEHOLDER
  5
F
102
{ACAD_REACTORS
330
E
102
}
330
E
  0
VISUALSTYLE
  5
2F
102
{ACAD_REACTORS
330
2A
102
}
330
2A
100
AcDbVisualStyle
  2
2dWireframe
 70
     4
177
     2
291
     0
 71
     0
176
     1
 72
     2
176
     1
 73
     0
176
     1
 90
        0
176
     1
 40
-0.6
176
     1
 41
-30.0
176
     1
 62
     5
 63
     7
421
 16777215
176
     1
 74
     1
176
     1
 91
        4
176
     1
 64
     7
176
     1
 65
   257
176
     1
 75
     1
176
     1
175
     1
176
     1
 42
1.0
176
     1
 92
        0
176
     1
 66
   257
176
     1
 43
1.0
176
     1
 76
     1
176
     1
 77
     6
176
     1
 78
     2
176
     1
 67
     7
176
     1
 79
     5
176
     1
170
     0
176
     1
171
     0
176
     1
290
     0
176
     1
 93
        1
176
     1
 44
0.0
176
     1
173
     0
176
     1
  0
VISUALSTYLE
  5
31
102
{ACAD_REACTORS
330
2A
102
}
330
2A
100
AcDbVisualStyle
  2
3D Hidden
 70
     6
177
     2
291
     0
 71
     1
176
     1
 72
     2
176
     1
 73
     2
176
     1
 90
        0
176
     1
 40
-0.6
176
     1
 41
-30.0
176
     1
 62
     5
 63
     7
421
 16777215
176
     1
 74
     2
176
     1
 91
        2
176
     1
 64
     7
176
     1
 65
   257
176
     1
 75
     2
176
     1
175
     1
176
     1
 42
40.0
176
     1
 92
        0
176
     1
 66
   257
176
     1
 43
1.0
176
     1
 76
     1
176
     1
 77
     6
176
     1
 78
     2
176
     1
 67
     7
176
     1
 79
     3
176
     1
170
     0
176
     1
171
     0
176
     1
290
     0
176
     1
 93
        1
176
     1
 44
0.0
176
     1
173
     0
176
     1
  0
VISUALSTYLE
  5
30
102
{ACAD_REACTORS
330
2A
102
}
330
2A
100
AcDbVisualStyle
  2
3dWireframe
 70
     5
177
     2
291
     0
 71
     0
176
     1
 72
     2
176
     1
 73
     0
176
     1
 90
        0
176
     1
 40
-0.6
176
     1
 41
-30.0
176
     1
 62
     5
 63
     7
421
 16777215
176
     1
 74
     1
176
     1
 91
        4
176
     1
 64
     7
176
     1
 65
   257
176
     1
 75
     1
176
     1
175
     1
176
     1
 42
1.0
176
     1
 92
        0
176
     1
 66
   257
176
     1
 43
1.0
176
     1
 76
     1
176
     1
 77
     6
176
     1
 78
     2
176
     1
 67
     7
176
     1
 79
     5
176
     1
170
     0
176
     1
171
     0
176
     1
290
     0
176
     1
 93
        1
176
     1
 44
0.0
176
     1
173
     0
176
     1
  0
VISUALSTYLE
  5
32
102
{ACAD_REACTORS
330
2A
102
}
330
2A
100
AcDbVisualStyle
  2
Basic
 70
     7
177
     2
291
     1
 71
     1
176
     1
 72
     0
176
     1
 73
     1
176
     1
 90
        0
176
     1
 40
-0.6
176
     1
 41
-30.0
176
     1
 62
     5
 63
     7
421
 16777215
176
     1
 74
     0
176
     1
 91
        4
176
     1
 64
     7
176
     1
 65
   257
176
     1
 75
     1
176
     1
175
     1
176
     1
 42
1.0
176
     1
 92
        8
176
     1
 66
     7
176
     1
 43
1.0
176
     1
 76
     1
176
     1
 77
     6
176
     1
 78
     2
176
     1
 67
     7
176
     1
 79
     5
176
     1
170
     0
176
     1
171
     0
176
     1
290
     0
176
     1
 93
        1
176
     1
 44
0.0
176
     1
173
     0
176
     1
  0
VISUALSTYLE
  5
36
102
{ACAD_REACTORS
330
2A
102
}
330
2A
100
AcDbVisualStyle
  2
Brighten
 70
    12
177
     2
291
     1
 71
     2
176
     1
 72
     2
176
     1
 73
     0
176
     1
 90
        0
176
     1
 40
-0.6
176
     1
 41
-30.0
176
     1
 62
     5
 63
     7
421
 16777215
176
     1
 74
     1
176
     1
 91
        4
176
     1
 64
     7
176
     1
 65
   257
176
     1
 75
     1
176
     1
175
     1
176
     1
 42
1.0
176
     1
 92
        8
176
     1
 66
     7
176
     1
 43
1.0
176
     1
 76
     1
176
     1
 77
     6
176
     1
 78
     2
176
     1
 67
     7
176
     1
 79
     5
176
     1
170
     0
176
     1
171
     0
176
     1
290
     0
176
     1
 93
        1
176
     1
 44
50.0
176
     1
173
     0
176
     1
  0
VISUALSTYLE
  5
3A
102
{ACAD_REACTORS
330
2A
102
}
330
2A
100
AcDbVisualStyle
  2
ColorChange
 70
    16
177
     2
291
     1
 71
     2
176
     1
 72
     2
176
     1
 73
     3
176
     1
 90
        0
176
     1
 40
-0.6
176
     1
 41
-30.0
176
     1
 62
     5
 63
     8
421
  8421504
176
     1
 74
     1
176
     1
 91
        4
176
     1
 64
     7
176
     1
 65
   257
176
     1
 75
     1
176
     1
175
     1
176
     1
 42
1.0
176
     1
 92
        8
176
     1
 66
     8
424
  8421504
176
     1
 43
1.0
176
     1
 76
     1
176
     1
 77
     6
176
     1
 78
     2
176
     1
 67
     7
176
     1
 79
     5
176
     1
170
     0
176
     1
171
     0
176
     1
290
     0
176
     1
 93
        1
176
     1
 44
0.0
176
     1
173
     0
176
     1
  0
VISUALSTYLE
  5
34
102
{ACAD_REACTORS
330
2A
102
}
330
2A
100
AcDbVisualStyle
  2
Conceptual
 70
     9
177
     2
291
     0
 71
     3
176
     1
 72
     2
176
     1
 73
     0
176
     1
 90
        0
176
     1
 40
-0.6
176
     1
 41
-30.0
176
     1
 62
     5
 63
     7
421
 16777215
176
     1
 74
     2
176
     1
 91
        2
176
     1
 64
     7
176
     1
 65
   257
176
     1
 75
     1
176
     1
175
     1
176
     1
 42
40.0
176
     1
 92
        8
176
     1
 66
     7
176
     1
 43
1.0
176
     1
 76
     1
176
     1
 77
     6
176
     1
 78
     2
176
     1
 67
     7
176
     1
 79
     3
176
     1
170
     0
176
     1
171
     0
176
     1
290
     0
176
     1
 93
        1
176
     1
 44
0.0
176
     1
173
     0
176
     1
  0
VISUALSTYLE
  5
35
102
{ACAD_REACTORS
330
2A
102
}
330
2A
100
AcDbVisualStyle
  2
Dim
 70
    11
177
     2
291
     1
 71
     2
176
     1
 72
     2
176
     1
 73
     0
176
     1
 90
        0
176
     1
 40
-0.6
176
     1
 41
-30.0
176
     1
 62
     5
 63
     7
421
 16777215
176
     1
 74
     1
176
     1
 91
        4
176
     1
 64
     7
176
     1
 65
   257
176
     1
 75
     1
176
     1
175
     1
176
     1
 42
1.0
176
     1
 92
        8
176
     1
 66
     7
176
     1
 43
1.0
176
     1
 76
     1
176
     1
 77
     6
176
     1
 78
     2
176
     1
 67
     7
176
     1
 79
     5
176
     1
170
     0
176
     1
171
     0
176
     1
290
     0
176
     1
 93
        1
176
     1
 44
-50.0
176
     1
173
     0
176
     1
  0
VISUALSTYLE
  5
39
102
{ACAD_REACTORS
330
2A
102
}
330
2A
100
AcDbVisualStyle
  2
Facepattern
 70
    15
177
     2
291
     1
 71
     2
176
     1
 72
     2
176
     1
 73
     0
176
     1
 90
        0
176
     1
 40
-0.6
176
     1
 41
-30.0
176
     1
 62
     5
 63
     7
421
 16777215
176
     1
 74
     1
176
     1
 91
        4
176
     1
 64
     7
176
     1
 65
   257
176
     1
 75
     1
176
     1
175
     1
176
     1
 42
1.0
176
     1
 92
        8
176
     1
 66
     7
176
     1
 43
1.0
176
     1
 76
     1
176
     1
 77
     6
176
     1
 78
     2
176
     1
 67
     7
176
     1
 79
     5
176
     1
170
     0
176
     1
171
     0
176
     1
290
     0
176
     1
 93
        1
176
     1
 44
0.0
176
     1
173
     0
176
     1
  0
VISUALSTYLE
  5
2B
102
{ACAD_REACTORS
330
2A
102
}
330
2A
100
AcDbVisualStyle
  2
Flat
 70
     0
177
     2
291
     1
 71
     2
176
     1
 72
     1
176
     1
 73
     1
176
     1
 90
        2
176
     1
 40
-0.6
176
     1
 41
30.0
176
     1
 62
     5
 63
     7
421
 16777215
176
     1
 74
     0
176
     1
 91
        4
176
     1
 64
     7
176
     1
 65
   257
176
     1
 75
     1
176
     1
175
     1
176
     1
 42
1.0
176
     1
 92
        8
176
     1
 66
     7
176
     1
 43
1.0
176
     1
 76
     1
176
     1
 77
     6
176
     1
 78
     2
176
     1
 67
     7
176
     1
 79
     5
176
     1
170
     0
176
     1
171
     0
176
     1
290
     0
176
     1
 93
       13
176
     1
 44
0.0
176
     1
173
     0
176
     1
  0
VISUALSTYLE
  5
2C
102
{ACAD_REACTORS
330
2A
102
}
330
2A
100
AcDbVisualStyle
  2
FlatWithEdges
 70
     1
177
     2
291
     1
 71
     2
176
     1
 72
     1
176
     1
 73
     1
176
     1
 90
        2
176
     1
 40
-0.6
176
     1
 41
30.0
176
     1
 62
     5
 63
     7
421
 16777215
176
     1
 74
     1
176
     1
 91
        4
176
     1
 64
     7
176
     1
 65
   257
176
     1
 75
     1
176
     1
175
     1
176
     1
 42
1.0
176
     1
 92
        0
176
     1
 66
   257
176
     1
 43
1.0
176
     1
 76
     1
176
     1
 77
     6
176
     1
 78
     2
176
     1
 67
     7
176
     1
 79
     5
176
     1
170
     0
176
     1
171
     0
176
     1
290
     0
176
     1
 93
       13
176
     1
 44
0.0
176
     1
173
     0
176
     1
  0
VISUALSTYLE
  5
2D
102
{ACAD_REACTORS
330
2A
102
}
330
2A
100
AcDbVisualStyle
  2
Gouraud
 70
     2
177
     2
291
     1
 71
     2
176
     1
 72
     2
176
     1
 73
     1
176
     1
 90
        2
176
     1
 40
-0.6
176
     1
 41
30.0
176
     1
 62
     5
 63
     7
421
 16777215
176
     1
 74
     0
176
     1
 91
        4
176
     1
 64
     7
176
     1
 65
   257
176
     1
 75
     1
176
     1
175
     1
176
     1
 42
1.0
176
     1
 92
        0
176
     1
 66
     7
176
     1
 43
1.0
176
     1
 76
     1
176
     1
 77
     6
176
     1
 78
     2
176
     1
 67
     7
176
     1
 79
     5
176
     1
170
     0
176
     1
171
     0
176
     1
290
     0
176
     1
 93
       13
176
     1
 44
0.0
176
     1
173
     0
176
     1
  0
VISUALSTYLE
  5
2E
102
{ACAD_REACTORS
330
2A
102
}
330
2A
100
AcDbVisualStyle
  2
GouraudWithEdges
 70
     3
177
     2
291
     1
 71
     2
176
     1
 72
     2
176
     1
 73
     1
176
     1
 90
        2
176
     1
 40
-0.6
176
     1
 41
30.0
176
     1
 62
     5
 63
     7
421
 16777215
176
     1
 74
     1
176
     1
 91
        4
176
     1
 64
     7
176
     1
 65
   257
176
     1
 75
     1
176
     1
175
     1
176
     1
 42
1.0
176
     1
 92
        0
176
     1
 66
   257
176
     1
 43
1.0
176
     1
 76
     1
176
     1
 77
     6
176
     1
 78
     2
176
     1
 67
     7
176
     1
 79
     5
176
     1
170
     0
176
     1
171
     0
176
     1
290
     0
176
     1
 93
       13
176
     1
 44
0.0
176
     1
173
     0
176
     1
  0
VISUALSTYLE
  5
38
102
{ACAD_REACTORS
330
2A
102
}
330
2A
100
AcDbVisualStyle
  2
Linepattern
 70
    14
177
     2
291
     1
 71
     2
176
     1
 72
     2
176
     1
 73
     0
176
     1
 90
        0
176
     1
 40
-0.6
176
     1
 41
-30.0
176
     1
 62
     5
 63
     7
421
 16777215
176
     1
 74
     1
176
     1
 91
        4
176
     1
 64
     7
176
     1
 65
   257
176
     1
 75
     7
176
     1
175
     7
176
     1
 42
1.0
176
     1
 92
        8
176
     1
 66
     7
176
     1
 43
1.0
176
     1
 76
     1
176
     1
 77
     6
176
     1
 78
     2
176
     1
 67
     7
176
     1
 79
     5
176
     1
170
     0
176
     1
171
     0
176
     1
290
     0
176
     1
 93
        1
176
     1
 44
0.0
176
     1
173
     0
176
     1
  0
VISUALSTYLE
  5
33
102
{ACAD_REACTORS
330
2A
102
}
330
2A
100
AcDbVisualStyle
  2
Realistic
 70
     8
177
     2
291
     0
 71
     2
176
     1
 72
     2
176
     1
 73
     0
176
     1
 90
        0
176
     1
 40
-0.6
176
     1
 41
-30.0
176
     1
 62
     5
 63
     7
421
 16777215
176
     1
 74
     1
176
     1
 91
        0
176
     1
 64
     7
176
     1
 65
   257
176
     1
 75
     1
176
     1
175
     1
176
     1
 42
1.0
176
     1
 92
        8
176
     1
 66
     8
424
  7895160
176
     1
 43
1.0
176
     1
 76
     1
176
     1
 77
     6
176
     1
 78
     2
176
     1
 67
     7
176
     1
 79
     5
176
     1
170
     0
176
     1
171
     0
176
     1
290
     0
176
     1
 93
       13
176
     1
 44
0.0
176
     1
173
     0
176
     1
  0
VISUALSTYLE
  5
37
102
{ACAD_REACTORS
330
2A
102
}
330
2A
100
AcDbVisualStyle
  2
Thicken
 70
    13
177
     2
291
     1
 71
     2
176
     1
 72
     2
176
     1
 73
     0
176
     1
 90
        0
176
     1
 40
-0.6
176
     1
 41
-30.0
176
     1
 62
     5
 63
     7
421
 16777215
176
     1
 74
     1
176
     1
 91
        4
176
     1
 64
     7
176
     1
 65
   257
176
     1
 75
     1
176
     1
175
     1
176
     1
 42
1.0
176
     1
 92
       12
176
     1
 66
     7
176
     1
 43
1.0
176
     1
 76
     1
176
     1
 77
     6
176
     1
 78
     2
176
     1
 67
     7
176
     1
 79
     5
176
     1
170
     0
176
     1
171
     0
176
     1
290
     0
176
     1
 93
        1
176
     1
 44
0.0
176
     1
173
     0
176
     1
  0
ENDSEC
  0
EOF
