solid spacer-29mm
facet normal 0.0 0.0 -1.0
  outer loop
    vertex -2.0381396405844048 4.309609598599872 0.0
    vertex -2.7407953486121537 0.2248129378527494 0.0
    vertex -3.084100757498269 3.6352538569492348 0.0
  endloop
endfacet
facet normal 0.0 0.0 -1.0
  outer loop
    vertex -2.7407953486121537 0.2248129378527494 0.0
    vertex -2.0381396405844048 4.309609598599872 0.0
    vertex -2.5892191418956885 0.9265226577051185 0.0
  endloop
endfacet
facet normal 0.0 0.0 -1.0
  outer loop
    vertex -2.5892191418956885 0.9265226577051185 0.0
    vertex -2.0381396405844048 4.309609598599872 0.0
    vertex -2.261191929545977 1.5650913895859702 0.0
  endloop
endfacet
facet normal 0.0 0.0 -1.0
  outer loop
    vertex -2.261191929545977 1.5650913895859702 0.0
    vertex -2.0381396405844048 4.309609598599872 0.0
    vertex -1.7790682239940523 2.09700172970235 0.0
  endloop
endfacet
facet normal 0.0 0.0 -1.0
  outer loop
    vertex -1.7790682239940523 2.09700172970235 0.0
    vertex -2.0381396405844048 4.309609598599872 0.0
    vertex -0.8532826753497208 4.690272568072531 0.0
  endloop
endfacet
facet normal 0.0 0.0 -1.0
  outer loop
    vertex -1.7790682239940523 2.09700172970235 0.0
    vertex -0.8532826753497208 4.690272568072531 0.0
    vertex -1.175703959026183 2.4860048673987265 0.0
  endloop
endfacet
facet normal 0.0 0.0 -1.0
  outer loop
    vertex -1.175703959026183 2.4860048673987265 0.0
    vertex -0.8532826753497208 4.690272568072531 0.0
    vertex -0.4922174121933377 2.7055908816991705 0.0
  endloop
endfacet
facet normal 0.0 0.0 -1.0
  outer loop
    vertex -0.4922174121933377 2.7055908816991705 0.0
    vertex -0.8532826753497208 4.690272568072531 0.0
    vertex 0.3897240940937609 4.751301213072949 0.0
  endloop
endfacet
facet normal 0.0 0.0 -1.0
  outer loop
    vertex -0.4922174121933377 2.7055908816991705 0.0
    vertex 0.3897240940937609 4.751301213072949 0.0
    vertex 0.2248129378527494 2.7407953486121537 0.0
  endloop
endfacet
facet normal 0.0 0.0 -1.0
  outer loop
    vertex 0.2248129378527494 2.7407953486121537 0.0
    vertex 0.3897240940937609 4.751301213072949 0.0
    vertex 0.9265226577051183 2.5892191418956885 0.0
  endloop
endfacet
facet normal 0.0 0.0 -1.0
  outer loop
    vertex 0.9265226577051183 2.5892191418956885 0.0
    vertex 0.3897240940937609 4.751301213072949 0.0
    vertex 1.6061718105742646 4.488536532298948 0.0
  endloop
endfacet
facet normal 0.0 0.0 -1.0
  outer loop
    vertex 0.9265226577051183 2.5892191418956885 0.0
    vertex 1.6061718105742646 4.488536532298948 0.0
    vertex 1.56509138958597 2.261191929545977 0.0
  endloop
endfacet
facet normal 0.0 0.0 -1.0
  outer loop
    vertex 1.56509138958597 2.261191929545977 0.0
    vertex 1.6061718105742646 4.488536532298948 0.0
    vertex 2.09700172970235 1.7790682239940523 0.0
  endloop
endfacet
facet normal 0.0 0.0 -1.0
  outer loop
    vertex 2.09700172970235 1.7790682239940523 0.0
    vertex 1.6061718105742646 4.488536532298948 0.0
    vertex 2.713161572488546 3.9198855045061154 0.0
  endloop
endfacet
facet normal 0.0 0.0 -1.0
  outer loop
    vertex 2.09700172970235 1.7790682239940523 0.0
    vertex 2.713161572488546 3.9198855045061154 0.0
    vertex 2.486004867398727 1.1757039590261817 0.0
  endloop
endfacet
facet normal 0.0 0.0 -1.0
  outer loop
    vertex 2.486004867398727 1.1757039590261817 0.0
    vertex 2.713161572488546 3.9198855045061154 0.0
    vertex 2.7055908816991705 0.492217412193337 0.0
  endloop
endfacet
facet normal 0.0 0.0 -1.0
  outer loop
    vertex 2.7055908816991705 0.492217412193337 0.0
    vertex 2.713161572488546 3.9198855045061154 0.0
    vertex 2.7407953486121537 -0.22481293785274956 0.0
  endloop
endfacet
facet normal 0.0 0.0 -1.0
  outer loop
    vertex 2.7407953486121537 -0.22481293785274956 0.0
    vertex 2.713161572488546 3.9198855045061154 0.0
    vertex 3.6352538569492348 3.084100757498269 0.0
  endloop
endfacet
facet normal 0.0 0.0 -1.0
  outer loop
    vertex 2.7407953486121537 -0.22481293785274956 0.0
    vertex 3.6352538569492348 3.084100757498269 0.0
    vertex 3.084100757498267 -3.635253856949236 0.0
  endloop
endfacet
facet normal 0.0 0.0 -1.0
  outer loop
    vertex 3.084100757498267 -3.635253856949236 0.0
    vertex 3.6352538569492348 3.084100757498269 0.0
    vertex 3.919885504506113 -2.713161572488549 0.0
  endloop
endfacet
facet normal 0.0 0.0 -1.0
  outer loop
    vertex 3.919885504506113 -2.713161572488549 0.0
    vertex 3.6352538569492348 3.084100757498269 0.0
    vertex 4.309609598599876 2.0381396405843963 0.0
  endloop
endfacet
facet normal 0.0 0.0 -1.0
  outer loop
    vertex 3.919885504506113 -2.713161572488549 0.0
    vertex 4.309609598599876 2.0381396405843963 0.0
    vertex 4.488536532298948 -1.6061718105742657 0.0
  endloop
endfacet
facet normal 0.0 0.0 -1.0
  outer loop
    vertex 4.488536532298948 -1.6061718105742657 0.0
    vertex 4.309609598599876 2.0381396405843963 0.0
    vertex 4.690272568072533 0.8532826753497124 0.0
  endloop
endfacet
facet normal 0.0 0.0 -1.0
  outer loop
    vertex 4.488536532298948 -1.6061718105742657 0.0
    vertex 4.690272568072533 0.8532826753497124 0.0
    vertex 4.751301213072949 -0.38972409409376446 0.0
  endloop
endfacet
facet normal 0.0 0.0 -1.0
  outer loop
    vertex -4.48853653229895 1.606171810574263 0.0
    vertex -4.690272568072532 -0.8532826753497131 0.0
    vertex -4.751301213072949 0.38972409409375725 0.0
  endloop
endfacet
facet normal 0.0 0.0 -1.0
  outer loop
    vertex -4.690272568072532 -0.8532826753497131 0.0
    vertex -4.48853653229895 1.606171810574263 0.0
    vertex -4.309609598599876 -2.0381396405843963 0.0
  endloop
endfacet
facet normal 0.0 0.0 -1.0
  outer loop
    vertex -4.309609598599876 -2.0381396405843963 0.0
    vertex -4.48853653229895 1.606171810574263 0.0
    vertex -3.9198855045061154 2.713161572488546 0.0
  endloop
endfacet
facet normal 0.0 0.0 -1.0
  outer loop
    vertex -4.309609598599876 -2.0381396405843963 0.0
    vertex -3.9198855045061154 2.713161572488546 0.0
    vertex -3.635253856949232 -3.084100757498271 0.0
  endloop
endfacet
facet normal 0.0 0.0 -1.0
  outer loop
    vertex -3.635253856949232 -3.084100757498271 0.0
    vertex -3.9198855045061154 2.713161572488546 0.0
    vertex -3.084100757498269 3.6352538569492348 0.0
  endloop
endfacet
facet normal 0.0 0.0 -1.0
  outer loop
    vertex -3.635253856949232 -3.084100757498271 0.0
    vertex -3.084100757498269 3.6352538569492348 0.0
    vertex -2.7131615724885414 -3.9198855045061167 0.0
  endloop
endfacet
facet normal 0.0 0.0 -1.0
  outer loop
    vertex -2.7131615724885414 -3.9198855045061167 0.0
    vertex -3.084100757498269 3.6352538569492348 0.0
    vertex -2.7407953486121537 0.2248129378527494 0.0
  endloop
endfacet
facet normal 0.0 0.0 -1.0
  outer loop
    vertex -2.7131615724885414 -3.9198855045061167 0.0
    vertex -2.7407953486121537 0.2248129378527494 0.0
    vertex -2.7055908816991705 -0.49221741219333714 0.0
  endloop
endfacet
facet normal 0.0 0.0 -1.0
  outer loop
    vertex -2.7131615724885414 -3.9198855045061167 0.0
    vertex -2.7055908816991705 -0.49221741219333714 0.0
    vertex -1.6061718105742646 -4.488536532298949 0.0
  endloop
endfacet
facet normal 0.0 0.0 -1.0
  outer loop
    vertex -1.6061718105742646 -4.488536532298949 0.0
    vertex -2.7055908816991705 -0.49221741219333714 0.0
    vertex -2.4860048673987265 -1.175703959026183 0.0
  endloop
endfacet
facet normal 0.0 0.0 -1.0
  outer loop
    vertex -1.6061718105742646 -4.488536532298949 0.0
    vertex -2.4860048673987265 -1.175703959026183 0.0
    vertex -2.0970017297023507 -1.779068223994052 0.0
  endloop
endfacet
facet normal 0.0 0.0 -1.0
  outer loop
    vertex -1.6061718105742646 -4.488536532298949 0.0
    vertex -2.0970017297023507 -1.779068223994052 0.0
    vertex -1.5650913895859706 -2.2611919295459764 0.0
  endloop
endfacet
facet normal 0.0 0.0 -1.0
  outer loop
    vertex -1.6061718105742646 -4.488536532298949 0.0
    vertex -1.5650913895859706 -2.2611919295459764 0.0
    vertex -0.38972409409376757 -4.751301213072949 0.0
  endloop
endfacet
facet normal 0.0 0.0 -1.0
  outer loop
    vertex -0.38972409409376757 -4.751301213072949 0.0
    vertex -1.5650913895859706 -2.2611919295459764 0.0
    vertex -0.9265226577051185 -2.5892191418956885 0.0
  endloop
endfacet
facet normal 0.0 0.0 -1.0
  outer loop
    vertex -0.38972409409376757 -4.751301213072949 0.0
    vertex -0.9265226577051185 -2.5892191418956885 0.0
    vertex -0.2248129378527506 -2.7407953486121537 0.0
  endloop
endfacet
facet normal 0.0 0.0 -1.0
  outer loop
    vertex -0.38972409409376757 -4.751301213072949 0.0
    vertex -0.2248129378527506 -2.7407953486121537 0.0
    vertex 0.8532826753497139 -4.690272568072532 0.0
  endloop
endfacet
facet normal 0.0 0.0 -1.0
  outer loop
    vertex 0.8532826753497139 -4.690272568072532 0.0
    vertex -0.2248129378527506 -2.7407953486121537 0.0
    vertex 0.492217412193337 -2.7055908816991705 0.0
  endloop
endfacet
facet normal 0.0 0.0 -1.0
  outer loop
    vertex 0.8532826753497139 -4.690272568072532 0.0
    vertex 0.492217412193337 -2.7055908816991705 0.0
    vertex 1.1757039590261817 -2.486004867398727 0.0
  endloop
endfacet
facet normal 0.0 0.0 -1.0
  outer loop
    vertex 0.8532826753497139 -4.690272568072532 0.0
    vertex 1.1757039590261817 -2.486004867398727 0.0
    vertex 2.0381396405843963 -4.309609598599876 0.0
  endloop
endfacet
facet normal 0.0 0.0 -1.0
  outer loop
    vertex 2.0381396405843963 -4.309609598599876 0.0
    vertex 1.1757039590261817 -2.486004867398727 0.0
    vertex 1.779068223994052 -2.0970017297023507 0.0
  endloop
endfacet
facet normal 0.0 0.0 -1.0
  outer loop
    vertex 2.0381396405843963 -4.309609598599876 0.0
    vertex 1.779068223994052 -2.0970017297023507 0.0
    vertex 2.2611919295459764 -1.5650913895859708 0.0
  endloop
endfacet
facet normal 0.0 0.0 -1.0
  outer loop
    vertex 2.0381396405843963 -4.309609598599876 0.0
    vertex 2.2611919295459764 -1.5650913895859708 0.0
    vertex 3.084100757498267 -3.635253856949236 0.0
  endloop
endfacet
facet normal 0.0 0.0 -1.0
  outer loop
    vertex 3.084100757498267 -3.635253856949236 0.0
    vertex 2.2611919295459764 -1.5650913895859708 0.0
    vertex 2.5892191418956876 -0.9265226577051201 0.0
  endloop
endfacet
facet normal 0.0 0.0 -1.0
  outer loop
    vertex 3.084100757498267 -3.635253856949236 0.0
    vertex 2.5892191418956876 -0.9265226577051201 0.0
    vertex 2.7407953486121537 -0.22481293785274956 0.0
  endloop
endfacet
facet normal 0.0 0.0 1.0
  outer loop
    vertex -4.690272568072532 -0.8532826753497131 29.00000000000001
    vertex -4.48853653229895 1.606171810574263 29.00000000000001
    vertex -4.751301213072949 0.38972409409375725 29.00000000000001
  endloop
endfacet
facet normal 0.0 0.0 1.0
  outer loop
    vertex -4.48853653229895 1.606171810574263 29.00000000000001
    vertex -4.690272568072532 -0.8532826753497131 29.00000000000001
    vertex -4.309609598599876 -2.0381396405843963 29.00000000000001
  endloop
endfacet
facet normal 0.0 0.0 1.0
  outer loop
    vertex -4.48853653229895 1.606171810574263 29.00000000000001
    vertex -4.309609598599876 -2.0381396405843963 29.00000000000001
    vertex -3.9198855045061154 2.713161572488546 29.00000000000001
  endloop
endfacet
facet normal 0.0 0.0 1.0
  outer loop
    vertex -3.9198855045061154 2.713161572488546 29.00000000000001
    vertex -4.309609598599876 -2.0381396405843963 29.00000000000001
    vertex -3.635253856949232 -3.084100757498271 29.00000000000001
  endloop
endfacet
facet normal 0.0 0.0 1.0
  outer loop
    vertex -3.9198855045061154 2.713161572488546 29.00000000000001
    vertex -3.635253856949232 -3.084100757498271 29.00000000000001
    vertex -3.084100757498269 3.6352538569492348 29.00000000000001
  endloop
endfacet
facet normal 0.0 0.0 1.0
  outer loop
    vertex -3.084100757498269 3.6352538569492348 29.00000000000001
    vertex -3.635253856949232 -3.084100757498271 29.00000000000001
    vertex -2.7131615724885414 -3.9198855045061167 29.00000000000001
  endloop
endfacet
facet normal 0.0 0.0 1.0
  outer loop
    vertex -3.084100757498269 3.6352538569492348 29.00000000000001
    vertex -2.7131615724885414 -3.9198855045061167 29.00000000000001
    vertex -2.7407953486121537 0.2248129378527494 29.00000000000001
  endloop
endfacet
facet normal 0.0 0.0 1.0
  outer loop
    vertex -2.7407953486121537 0.2248129378527494 29.00000000000001
    vertex -2.7131615724885414 -3.9198855045061167 29.00000000000001
    vertex -2.7055908816991705 -0.49221741219333714 29.00000000000001
  endloop
endfacet
facet normal 0.0 0.0 1.0
  outer loop
    vertex -2.7055908816991705 -0.49221741219333714 29.00000000000001
    vertex -2.7131615724885414 -3.9198855045061167 29.00000000000001
    vertex -1.6061718105742646 -4.488536532298949 29.00000000000001
  endloop
endfacet
facet normal 0.0 0.0 1.0
  outer loop
    vertex -2.7055908816991705 -0.49221741219333714 29.00000000000001
    vertex -1.6061718105742646 -4.488536532298949 29.00000000000001
    vertex -2.4860048673987265 -1.175703959026183 29.00000000000001
  endloop
endfacet
facet normal 0.0 0.0 1.0
  outer loop
    vertex -2.4860048673987265 -1.175703959026183 29.00000000000001
    vertex -1.6061718105742646 -4.488536532298949 29.00000000000001
    vertex -2.0970017297023507 -1.779068223994052 29.00000000000001
  endloop
endfacet
facet normal 0.0 0.0 1.0
  outer loop
    vertex -2.0970017297023507 -1.779068223994052 29.00000000000001
    vertex -1.6061718105742646 -4.488536532298949 29.00000000000001
    vertex -1.5650913895859706 -2.2611919295459764 29.00000000000001
  endloop
endfacet
facet normal 0.0 0.0 1.0
  outer loop
    vertex -1.5650913895859706 -2.2611919295459764 29.00000000000001
    vertex -1.6061718105742646 -4.488536532298949 29.00000000000001
    vertex -0.38972409409376757 -4.751301213072949 29.00000000000001
  endloop
endfacet
facet normal 0.0 0.0 1.0
  outer loop
    vertex -1.5650913895859706 -2.2611919295459764 29.00000000000001
    vertex -0.38972409409376757 -4.751301213072949 29.00000000000001
    vertex -0.9265226577051185 -2.5892191418956885 29.00000000000001
  endloop
endfacet
facet normal 0.0 0.0 1.0
  outer loop
    vertex -0.9265226577051185 -2.5892191418956885 29.00000000000001
    vertex -0.38972409409376757 -4.751301213072949 29.00000000000001
    vertex -0.2248129378527506 -2.7407953486121537 29.00000000000001
  endloop
endfacet
facet normal 0.0 0.0 1.0
  outer loop
    vertex -0.2248129378527506 -2.7407953486121537 29.00000000000001
    vertex -0.38972409409376757 -4.751301213072949 29.00000000000001
    vertex 0.8532826753497139 -4.690272568072532 29.00000000000001
  endloop
endfacet
facet normal 0.0 0.0 1.0
  outer loop
    vertex -0.2248129378527506 -2.7407953486121537 29.00000000000001
    vertex 0.8532826753497139 -4.690272568072532 29.00000000000001
    vertex 0.492217412193337 -2.7055908816991705 29.00000000000001
  endloop
endfacet
facet normal 0.0 0.0 1.0
  outer loop
    vertex 0.492217412193337 -2.7055908816991705 29.00000000000001
    vertex 0.8532826753497139 -4.690272568072532 29.00000000000001
    vertex 1.1757039590261817 -2.486004867398727 29.00000000000001
  endloop
endfacet
facet normal 0.0 0.0 1.0
  outer loop
    vertex 1.1757039590261817 -2.486004867398727 29.00000000000001
    vertex 0.8532826753497139 -4.690272568072532 29.00000000000001
    vertex 2.0381396405843963 -4.309609598599876 29.00000000000001
  endloop
endfacet
facet normal 0.0 0.0 1.0
  outer loop
    vertex 1.1757039590261817 -2.486004867398727 29.00000000000001
    vertex 2.0381396405843963 -4.309609598599876 29.00000000000001
    vertex 1.779068223994052 -2.0970017297023507 29.00000000000001
  endloop
endfacet
facet normal 0.0 0.0 1.0
  outer loop
    vertex 1.779068223994052 -2.0970017297023507 29.00000000000001
    vertex 2.0381396405843963 -4.309609598599876 29.00000000000001
    vertex 2.2611919295459764 -1.5650913895859708 29.00000000000001
  endloop
endfacet
facet normal 0.0 0.0 1.0
  outer loop
    vertex 2.2611919295459764 -1.5650913895859708 29.00000000000001
    vertex 2.0381396405843963 -4.309609598599876 29.00000000000001
    vertex 3.084100757498267 -3.635253856949236 29.00000000000001
  endloop
endfacet
facet normal 0.0 0.0 1.0
  outer loop
    vertex 2.2611919295459764 -1.5650913895859708 29.00000000000001
    vertex 3.084100757498267 -3.635253856949236 29.00000000000001
    vertex 2.5892191418956876 -0.9265226577051201 29.00000000000001
  endloop
endfacet
facet normal 0.0 0.0 1.0
  outer loop
    vertex 2.5892191418956876 -0.9265226577051201 29.00000000000001
    vertex 3.084100757498267 -3.635253856949236 29.00000000000001
    vertex 2.7407953486121537 -0.22481293785274956 29.00000000000001
  endloop
endfacet
facet normal 0.0 0.0 1.0
  outer loop
    vertex -2.7407953486121537 0.2248129378527494 29.00000000000001
    vertex -2.0381396405844048 4.309609598599872 29.00000000000001
    vertex -3.084100757498269 3.6352538569492348 29.00000000000001
  endloop
endfacet
facet normal 0.0 0.0 1.0
  outer loop
    vertex -2.0381396405844048 4.309609598599872 29.00000000000001
    vertex -2.7407953486121537 0.2248129378527494 29.00000000000001
    vertex -2.5892191418956885 0.9265226577051185 29.00000000000001
  endloop
endfacet
facet normal 0.0 0.0 1.0
  outer loop
    vertex -2.0381396405844048 4.309609598599872 29.00000000000001
    vertex -2.5892191418956885 0.9265226577051185 29.00000000000001
    vertex -2.261191929545977 1.5650913895859702 29.00000000000001
  endloop
endfacet
facet normal 0.0 0.0 1.0
  outer loop
    vertex -2.0381396405844048 4.309609598599872 29.00000000000001
    vertex -2.261191929545977 1.5650913895859702 29.00000000000001
    vertex -1.7790682239940523 2.09700172970235 29.00000000000001
  endloop
endfacet
facet normal 0.0 0.0 1.0
  outer loop
    vertex -2.0381396405844048 4.309609598599872 29.00000000000001
    vertex -1.7790682239940523 2.09700172970235 29.00000000000001
    vertex -0.8532826753497208 4.690272568072531 29.00000000000001
  endloop
endfacet
facet normal 0.0 0.0 1.0
  outer loop
    vertex -0.8532826753497208 4.690272568072531 29.00000000000001
    vertex -1.7790682239940523 2.09700172970235 29.00000000000001
    vertex -1.175703959026183 2.4860048673987265 29.00000000000001
  endloop
endfacet
facet normal 0.0 0.0 1.0
  outer loop
    vertex -0.8532826753497208 4.690272568072531 29.00000000000001
    vertex -1.175703959026183 2.4860048673987265 29.00000000000001
    vertex -0.4922174121933377 2.7055908816991705 29.00000000000001
  endloop
endfacet
facet normal 0.0 0.0 1.0
  outer loop
    vertex -0.8532826753497208 4.690272568072531 29.00000000000001
    vertex -0.4922174121933377 2.7055908816991705 29.00000000000001
    vertex 0.3897240940937609 4.751301213072949 29.00000000000001
  endloop
endfacet
facet normal 0.0 0.0 1.0
  outer loop
    vertex 0.3897240940937609 4.751301213072949 29.00000000000001
    vertex -0.4922174121933377 2.7055908816991705 29.00000000000001
    vertex 0.2248129378527494 2.7407953486121537 29.00000000000001
  endloop
endfacet
facet normal 0.0 0.0 1.0
  outer loop
    vertex 0.3897240940937609 4.751301213072949 29.00000000000001
    vertex 0.2248129378527494 2.7407953486121537 29.00000000000001
    vertex 0.9265226577051183 2.5892191418956885 29.00000000000001
  endloop
endfacet
facet normal 0.0 0.0 1.0
  outer loop
    vertex 0.3897240940937609 4.751301213072949 29.00000000000001
    vertex 0.9265226577051183 2.5892191418956885 29.00000000000001
    vertex 1.6061718105742646 4.488536532298948 29.00000000000001
  endloop
endfacet
facet normal 0.0 0.0 1.0
  outer loop
    vertex 1.6061718105742646 4.488536532298948 29.00000000000001
    vertex 0.9265226577051183 2.5892191418956885 29.00000000000001
    vertex 1.56509138958597 2.261191929545977 29.00000000000001
  endloop
endfacet
facet normal 0.0 0.0 1.0
  outer loop
    vertex 1.6061718105742646 4.488536532298948 29.00000000000001
    vertex 1.56509138958597 2.261191929545977 29.00000000000001
    vertex 2.09700172970235 1.7790682239940523 29.00000000000001
  endloop
endfacet
facet normal 0.0 0.0 1.0
  outer loop
    vertex 1.6061718105742646 4.488536532298948 29.00000000000001
    vertex 2.09700172970235 1.7790682239940523 29.00000000000001
    vertex 2.713161572488546 3.9198855045061154 29.00000000000001
  endloop
endfacet
facet normal 0.0 0.0 1.0
  outer loop
    vertex 2.713161572488546 3.9198855045061154 29.00000000000001
    vertex 2.09700172970235 1.7790682239940523 29.00000000000001
    vertex 2.486004867398727 1.1757039590261817 29.00000000000001
  endloop
endfacet
facet normal 0.0 0.0 1.0
  outer loop
    vertex 2.713161572488546 3.9198855045061154 29.00000000000001
    vertex 2.486004867398727 1.1757039590261817 29.00000000000001
    vertex 2.7055908816991705 0.492217412193337 29.00000000000001
  endloop
endfacet
facet normal 0.0 0.0 1.0
  outer loop
    vertex 2.713161572488546 3.9198855045061154 29.00000000000001
    vertex 2.7055908816991705 0.492217412193337 29.00000000000001
    vertex 2.7407953486121537 -0.22481293785274956 29.00000000000001
  endloop
endfacet
facet normal 0.0 0.0 1.0
  outer loop
    vertex 2.713161572488546 3.9198855045061154 29.00000000000001
    vertex 2.7407953486121537 -0.22481293785274956 29.00000000000001
    vertex 3.6352538569492348 3.084100757498269 29.00000000000001
  endloop
endfacet
facet normal 0.0 0.0 1.0
  outer loop
    vertex 3.6352538569492348 3.084100757498269 29.00000000000001
    vertex 2.7407953486121537 -0.22481293785274956 29.00000000000001
    vertex 3.084100757498267 -3.635253856949236 29.00000000000001
  endloop
endfacet
facet normal 0.0 0.0 1.0
  outer loop
    vertex 3.6352538569492348 3.084100757498269 29.00000000000001
    vertex 3.084100757498267 -3.635253856949236 29.00000000000001
    vertex 3.919885504506113 -2.713161572488549 29.00000000000001
  endloop
endfacet
facet normal 0.0 0.0 1.0
  outer loop
    vertex 3.6352538569492348 3.084100757498269 29.00000000000001
    vertex 3.919885504506113 -2.713161572488549 29.00000000000001
    vertex 4.309609598599876 2.0381396405843963 29.00000000000001
  endloop
endfacet
facet normal 0.0 0.0 1.0
  outer loop
    vertex 4.309609598599876 2.0381396405843963 29.00000000000001
    vertex 3.919885504506113 -2.713161572488549 29.00000000000001
    vertex 4.488536532298948 -1.6061718105742657 29.00000000000001
  endloop
endfacet
facet normal 0.0 0.0 1.0
  outer loop
    vertex 4.309609598599876 2.0381396405843963 29.00000000000001
    vertex 4.488536532298948 -1.6061718105742657 29.00000000000001
    vertex 4.690272568072533 0.8532826753497124 29.00000000000001
  endloop
endfacet
facet normal 0.0 0.0 1.0
  outer loop
    vertex 4.690272568072533 0.8532826753497124 29.00000000000001
    vertex 4.488536532298948 -1.6061718105742657 29.00000000000001
    vertex 4.751301213072949 -0.38972409409376446 29.00000000000001
  endloop
endfacet
facet normal -0.569124141667625 -0.8222516107439918 0.0
  outer loop
    vertex -2.7131615724885414 -3.9198855045061167 29.00000000000001
    vertex -3.635253856949232 -3.084100757498271 0.0
    vertex -2.7131615724885414 -3.9198855045061167 0.0
  endloop
endfacet
facet normal -0.7625460835281269 -0.6469338996342014 0.0
  outer loop
    vertex -3.635253856949232 -3.084100757498271 0.0
    vertex -2.7131615724885414 -3.9198855045061167 29.00000000000001
    vertex -3.635253856949232 -3.084100757498271 29.00000000000001
  endloop
endfacet
facet normal -0.9040017699631736 -0.4275287123731569 0.0
  outer loop
    vertex -4.309609598599876 -2.0381396405843963 29.00000000000001
    vertex -3.635253856949232 -3.084100757498271 0.0
    vertex -3.635253856949232 -3.084100757498271 29.00000000000001
  endloop
endfacet
facet normal -0.7625460835281269 -0.6469338996342014 0.0
  outer loop
    vertex -3.635253856949232 -3.084100757498271 0.0
    vertex -4.309609598599876 -2.0381396405843963 29.00000000000001
    vertex -4.309609598599876 -2.0381396405843963 0.0
  endloop
endfacet
facet normal -0.9838512297087895 -0.17898814988848588 0.0
  outer loop
    vertex -4.690272568072532 -0.8532826753497131 29.00000000000001
    vertex -4.309609598599876 -2.0381396405843963 0.0
    vertex -4.309609598599876 -2.0381396405843963 29.00000000000001
  endloop
endfacet
facet normal -0.9040017699631736 -0.4275287123731569 0.0
  outer loop
    vertex -4.309609598599876 -2.0381396405843963 0.0
    vertex -4.690272568072532 -0.8532826753497131 29.00000000000001
    vertex -4.690272568072532 -0.8532826753497131 0.0
  endloop
endfacet
facet normal -0.996652854040783 0.08175015921918104 0.0
  outer loop
    vertex -4.751301213072949 0.38972409409375725 29.00000000000001
    vertex -4.690272568072532 -0.8532826753497131 0.0
    vertex -4.690272568072532 -0.8532826753497131 29.00000000000001
  endloop
endfacet
facet normal -0.9838512297087895 -0.17898814988848588 0.0
  outer loop
    vertex -4.690272568072532 -0.8532826753497131 0.0
    vertex -4.751301213072949 0.38972409409375725 29.00000000000001
    vertex -4.751301213072949 0.38972409409375725 0.0
  endloop
endfacet
facet normal -0.941534233416614 0.3369173300745879 0.0
  outer loop
    vertex -4.48853653229895 1.606171810574263 29.00000000000001
    vertex -4.751301213072949 0.38972409409375725 0.0
    vertex -4.751301213072949 0.38972409409375725 29.00000000000001
  endloop
endfacet
facet normal -0.996652854040783 0.08175015921918104 0.0
  outer loop
    vertex -4.751301213072949 0.38972409409375725 0.0
    vertex -4.48853653229895 1.606171810574263 29.00000000000001
    vertex -4.48853653229895 1.606171810574263 0.0
  endloop
endfacet
facet normal -0.8222516107439916 0.5691241416676254 0.0
  outer loop
    vertex -3.9198855045061154 2.713161572488546 29.00000000000001
    vertex -4.48853653229895 1.606171810574263 0.0
    vertex -4.48853653229895 1.606171810574263 29.00000000000001
  endloop
endfacet
facet normal -0.941534233416614 0.3369173300745879 0.0
  outer loop
    vertex -4.48853653229895 1.606171810574263 0.0
    vertex -3.9198855045061154 2.713161572488546 29.00000000000001
    vertex -3.9198855045061154 2.713161572488546 0.0
  endloop
endfacet
facet normal -0.6469338996342006 0.7625460835281276 0.0
  outer loop
    vertex -3.084100757498269 3.6352538569492348 29.00000000000001
    vertex -3.9198855045061154 2.713161572488546 0.0
    vertex -3.9198855045061154 2.713161572488546 29.00000000000001
  endloop
endfacet
facet normal -0.8222516107439916 0.5691241416676254 0.0
  outer loop
    vertex -3.9198855045061154 2.713161572488546 0.0
    vertex -3.084100757498269 3.6352538569492348 29.00000000000001
    vertex -3.084100757498269 3.6352538569492348 0.0
  endloop
endfacet
facet normal -0.6469338996342006 0.7625460835281276 0.0
  outer loop
    vertex -3.084100757498269 3.6352538569492348 29.00000000000001
    vertex -2.0381396405844048 4.309609598599872 0.0
    vertex -3.084100757498269 3.6352538569492348 0.0
  endloop
endfacet
facet normal -0.42752871237315776 0.904001769963173 0.0
  outer loop
    vertex -2.0381396405844048 4.309609598599872 0.0
    vertex -3.084100757498269 3.6352538569492348 29.00000000000001
    vertex -2.0381396405844048 4.309609598599872 29.00000000000001
  endloop
endfacet
facet normal -0.42752871237315776 0.904001769963173 0.0
  outer loop
    vertex -2.0381396405844048 4.309609598599872 29.00000000000001
    vertex -0.8532826753497208 4.690272568072531 0.0
    vertex -2.0381396405844048 4.309609598599872 0.0
  endloop
endfacet
facet normal -0.1789881498884874 0.983851229708789 0.0
  outer loop
    vertex -0.8532826753497208 4.690272568072531 0.0
    vertex -2.0381396405844048 4.309609598599872 29.00000000000001
    vertex -0.8532826753497208 4.690272568072531 29.00000000000001
  endloop
endfacet
facet normal -0.1789881498884874 0.983851229708789 0.0
  outer loop
    vertex -0.8532826753497208 4.690272568072531 29.00000000000001
    vertex 0.3897240940937609 4.751301213072949 0.0
    vertex -0.8532826753497208 4.690272568072531 0.0
  endloop
endfacet
facet normal 0.08175015921918141 0.9966528540407831 0.0
  outer loop
    vertex 0.3897240940937609 4.751301213072949 0.0
    vertex -0.8532826753497208 4.690272568072531 29.00000000000001
    vertex 0.3897240940937609 4.751301213072949 29.00000000000001
  endloop
endfacet
facet normal 0.08175015921918141 0.9966528540407831 0.0
  outer loop
    vertex 0.3897240940937609 4.751301213072949 29.00000000000001
    vertex 1.6061718105742646 4.488536532298948 0.0
    vertex 0.3897240940937609 4.751301213072949 0.0
  endloop
endfacet
facet normal 0.33691733007458835 0.941534233416614 0.0
  outer loop
    vertex 1.6061718105742646 4.488536532298948 0.0
    vertex 0.3897240940937609 4.751301213072949 29.00000000000001
    vertex 1.6061718105742646 4.488536532298948 29.00000000000001
  endloop
endfacet
facet normal 0.33691733007458835 0.941534233416614 0.0
  outer loop
    vertex 1.6061718105742646 4.488536532298948 29.00000000000001
    vertex 2.713161572488546 3.9198855045061154 0.0
    vertex 1.6061718105742646 4.488536532298948 0.0
  endloop
endfacet
facet normal 0.5691241416676253 0.8222516107439917 0.0
  outer loop
    vertex 2.713161572488546 3.9198855045061154 0.0
    vertex 1.6061718105742646 4.488536532298948 29.00000000000001
    vertex 2.713161572488546 3.9198855045061154 29.00000000000001
  endloop
endfacet
facet normal 0.5691241416676253 0.8222516107439917 0.0
  outer loop
    vertex 2.713161572488546 3.9198855045061154 29.00000000000001
    vertex 3.6352538569492348 3.084100757498269 0.0
    vertex 2.713161572488546 3.9198855045061154 0.0
  endloop
endfacet
facet normal 0.7625460835281276 0.6469338996342004 0.0
  outer loop
    vertex 3.6352538569492348 3.084100757498269 0.0
    vertex 2.713161572488546 3.9198855045061154 29.00000000000001
    vertex 3.6352538569492348 3.084100757498269 29.00000000000001
  endloop
endfacet
facet normal 0.7625460835281276 0.6469338996342004 0.0
  outer loop
    vertex 3.6352538569492348 3.084100757498269 0.0
    vertex 4.309609598599876 2.0381396405843963 29.00000000000001
    vertex 4.309609598599876 2.0381396405843963 0.0
  endloop
endfacet
facet normal 0.9040017699631736 0.4275287123731566 0.0
  outer loop
    vertex 4.309609598599876 2.0381396405843963 29.00000000000001
    vertex 3.6352538569492348 3.084100757498269 0.0
    vertex 3.6352538569492348 3.084100757498269 29.00000000000001
  endloop
endfacet
facet normal 0.9040017699631736 0.4275287123731566 0.0
  outer loop
    vertex 4.309609598599876 2.0381396405843963 0.0
    vertex 4.690272568072533 0.8532826753497124 29.00000000000001
    vertex 4.690272568072533 0.8532826753497124 0.0
  endloop
endfacet
facet normal 0.9838512297087895 0.1789881498884859 0.0
  outer loop
    vertex 4.690272568072533 0.8532826753497124 29.00000000000001
    vertex 4.309609598599876 2.0381396405843963 0.0
    vertex 4.309609598599876 2.0381396405843963 29.00000000000001
  endloop
endfacet
facet normal 0.9838512297087895 0.1789881498884859 0.0
  outer loop
    vertex 4.690272568072533 0.8532826753497124 0.0
    vertex 4.751301213072949 -0.38972409409376446 29.00000000000001
    vertex 4.751301213072949 -0.38972409409376446 0.0
  endloop
endfacet
facet normal 0.9966528540407829 -0.08175015921918234 0.0
  outer loop
    vertex 4.751301213072949 -0.38972409409376446 29.00000000000001
    vertex 4.690272568072533 0.8532826753497124 0.0
    vertex 4.690272568072533 0.8532826753497124 29.00000000000001
  endloop
endfacet
facet normal 0.9966528540407829 -0.08175015921918234 0.0
  outer loop
    vertex 4.751301213072949 -0.38972409409376446 0.0
    vertex 4.488536532298948 -1.6061718105742657 29.00000000000001
    vertex 4.488536532298948 -1.6061718105742657 0.0
  endloop
endfacet
facet normal 0.9415342334166137 -0.33691733007458924 0.0
  outer loop
    vertex 4.488536532298948 -1.6061718105742657 29.00000000000001
    vertex 4.751301213072949 -0.38972409409376446 0.0
    vertex 4.751301213072949 -0.38972409409376446 29.00000000000001
  endloop
endfacet
facet normal 0.9415342334166137 -0.33691733007458924 0.0
  outer loop
    vertex 4.488536532298948 -1.6061718105742657 0.0
    vertex 3.919885504506113 -2.713161572488549 29.00000000000001
    vertex 3.919885504506113 -2.713161572488549 0.0
  endloop
endfacet
facet normal 0.8222516107439913 -0.5691241416676257 0.0
  outer loop
    vertex 3.919885504506113 -2.713161572488549 29.00000000000001
    vertex 4.488536532298948 -1.6061718105742657 0.0
    vertex 4.488536532298948 -1.6061718105742657 29.00000000000001
  endloop
endfacet
facet normal 0.8222516107439913 -0.5691241416676257 0.0
  outer loop
    vertex 3.919885504506113 -2.713161572488549 0.0
    vertex 3.084100757498267 -3.635253856949236 29.00000000000001
    vertex 3.084100757498267 -3.635253856949236 0.0
  endloop
endfacet
facet normal 0.6469338996342001 -0.762546083528128 0.0
  outer loop
    vertex 3.084100757498267 -3.635253856949236 29.00000000000001
    vertex 3.919885504506113 -2.713161572488549 0.0
    vertex 3.919885504506113 -2.713161572488549 29.00000000000001
  endloop
endfacet
facet normal 0.6469338996342001 -0.762546083528128 0.0
  outer loop
    vertex 3.084100757498267 -3.635253856949236 29.00000000000001
    vertex 2.0381396405843963 -4.309609598599876 0.0
    vertex 3.084100757498267 -3.635253856949236 0.0
  endloop
endfacet
facet normal 0.4275287123731563 -0.9040017699631738 0.0
  outer loop
    vertex 2.0381396405843963 -4.309609598599876 0.0
    vertex 3.084100757498267 -3.635253856949236 29.00000000000001
    vertex 2.0381396405843963 -4.309609598599876 29.00000000000001
  endloop
endfacet
facet normal 0.4275287123731563 -0.9040017699631738 0.0
  outer loop
    vertex 2.0381396405843963 -4.309609598599876 29.00000000000001
    vertex 0.8532826753497139 -4.690272568072532 0.0
    vertex 2.0381396405843963 -4.309609598599876 0.0
  endloop
endfacet
facet normal 0.17898814988848577 -0.9838512297087895 0.0
  outer loop
    vertex 0.8532826753497139 -4.690272568072532 0.0
    vertex 2.0381396405843963 -4.309609598599876 29.00000000000001
    vertex 0.8532826753497139 -4.690272568072532 29.00000000000001
  endloop
endfacet
facet normal 0.17898814988848577 -0.9838512297087895 0.0
  outer loop
    vertex 0.8532826753497139 -4.690272568072532 29.00000000000001
    vertex -0.38972409409376757 -4.751301213072949 0.0
    vertex 0.8532826753497139 -4.690272568072532 0.0
  endloop
endfacet
facet normal -0.08175015921918223 -0.9966528540407831 0.0
  outer loop
    vertex -0.38972409409376757 -4.751301213072949 0.0
    vertex 0.8532826753497139 -4.690272568072532 29.00000000000001
    vertex -0.38972409409376757 -4.751301213072949 29.00000000000001
  endloop
endfacet
facet normal -0.08175015921918223 -0.9966528540407831 0.0
  outer loop
    vertex -0.38972409409376757 -4.751301213072949 29.00000000000001
    vertex -1.6061718105742646 -4.488536532298949 0.0
    vertex -0.38972409409376757 -4.751301213072949 0.0
  endloop
endfacet
facet normal -0.33691733007458924 -0.9415342334166137 0.0
  outer loop
    vertex -1.6061718105742646 -4.488536532298949 0.0
    vertex -0.38972409409376757 -4.751301213072949 29.00000000000001
    vertex -1.6061718105742646 -4.488536532298949 29.00000000000001
  endloop
endfacet
facet normal -0.33691733007458924 -0.9415342334166137 0.0
  outer loop
    vertex -1.6061718105742646 -4.488536532298949 29.00000000000001
    vertex -2.7131615724885414 -3.9198855045061167 0.0
    vertex -1.6061718105742646 -4.488536532298949 0.0
  endloop
endfacet
facet normal -0.569124141667625 -0.8222516107439918 0.0
  outer loop
    vertex -2.7131615724885414 -3.9198855045061167 0.0
    vertex -1.6061718105742646 -4.488536532298949 29.00000000000001
    vertex -2.7131615724885414 -3.9198855045061167 29.00000000000001
  endloop
endfacet
facet normal -0.7625460835281276 -0.6469338996342008 0.0
  outer loop
    vertex 2.09700172970235 1.7790682239940523 29.00000000000001
    vertex 1.56509138958597 2.261191929545977 0.0
    vertex 2.09700172970235 1.7790682239940523 0.0
  endloop
endfacet
facet normal -0.5691241416676254 -0.8222516107439916 0.0
  outer loop
    vertex 1.56509138958597 2.261191929545977 0.0
    vertex 2.09700172970235 1.7790682239940523 29.00000000000001
    vertex 1.56509138958597 2.261191929545977 29.00000000000001
  endloop
endfacet
facet normal -0.5691241416676254 -0.8222516107439916 0.0
  outer loop
    vertex 1.56509138958597 2.261191929545977 29.00000000000001
    vertex 0.9265226577051183 2.5892191418956885 0.0
    vertex 1.56509138958597 2.261191929545977 0.0
  endloop
endfacet
facet normal -0.33691733007458835 -0.9415342334166139 0.0
  outer loop
    vertex 0.9265226577051183 2.5892191418956885 0.0
    vertex 1.56509138958597 2.261191929545977 29.00000000000001
    vertex 0.9265226577051183 2.5892191418956885 29.00000000000001
  endloop
endfacet
facet normal -0.33691733007458835 -0.9415342334166139 0.0
  outer loop
    vertex 0.9265226577051183 2.5892191418956885 29.00000000000001
    vertex 0.2248129378527494 2.7407953486121537 0.0
    vertex 0.9265226577051183 2.5892191418956885 0.0
  endloop
endfacet
facet normal -0.08175015921918159 -0.9966528540407831 0.0
  outer loop
    vertex 0.2248129378527494 2.7407953486121537 0.0
    vertex 0.9265226577051183 2.5892191418956885 29.00000000000001
    vertex 0.2248129378527494 2.7407953486121537 29.00000000000001
  endloop
endfacet
facet normal -0.08175015921918159 -0.9966528540407831 0.0
  outer loop
    vertex 0.2248129378527494 2.7407953486121537 29.00000000000001
    vertex -0.4922174121933377 2.7055908816991705 0.0
    vertex 0.2248129378527494 2.7407953486121537 0.0
  endloop
endfacet
facet normal 0.17898814988848655 -0.9838512297087892 0.0
  outer loop
    vertex -0.4922174121933377 2.7055908816991705 0.0
    vertex 0.2248129378527494 2.7407953486121537 29.00000000000001
    vertex -0.4922174121933377 2.7055908816991705 29.00000000000001
  endloop
endfacet
facet normal 0.17898814988848655 -0.9838512297087892 0.0
  outer loop
    vertex -0.4922174121933377 2.7055908816991705 29.00000000000001
    vertex -1.175703959026183 2.4860048673987265 0.0
    vertex -0.4922174121933377 2.7055908816991705 0.0
  endloop
endfacet
facet normal 0.4275287123731575 -0.9040017699631733 0.0
  outer loop
    vertex -1.175703959026183 2.4860048673987265 0.0
    vertex -0.4922174121933377 2.7055908816991705 29.00000000000001
    vertex -1.175703959026183 2.4860048673987265 29.00000000000001
  endloop
endfacet
facet normal 0.4275287123731575 -0.9040017699631733 0.0
  outer loop
    vertex -1.175703959026183 2.4860048673987265 29.00000000000001
    vertex -1.7790682239940523 2.09700172970235 0.0
    vertex -1.175703959026183 2.4860048673987265 0.0
  endloop
endfacet
facet normal 0.6469338996342006 -0.7625460835281276 0.0
  outer loop
    vertex -1.7790682239940523 2.09700172970235 0.0
    vertex -1.175703959026183 2.4860048673987265 29.00000000000001
    vertex -1.7790682239940523 2.09700172970235 29.00000000000001
  endloop
endfacet
facet normal 0.6469338996342006 -0.7625460835281276 0.0
  outer loop
    vertex -1.7790682239940523 2.09700172970235 0.0
    vertex -2.261191929545977 1.5650913895859702 29.00000000000001
    vertex -2.261191929545977 1.5650913895859702 0.0
  endloop
endfacet
facet normal 0.8222516107439914 -0.5691241416676257 0.0
  outer loop
    vertex -2.261191929545977 1.5650913895859702 29.00000000000001
    vertex -1.7790682239940523 2.09700172970235 0.0
    vertex -1.7790682239940523 2.09700172970235 29.00000000000001
  endloop
endfacet
facet normal 0.8222516107439914 -0.5691241416676257 0.0
  outer loop
    vertex -2.261191929545977 1.5650913895859702 0.0
    vertex -2.5892191418956885 0.9265226577051185 29.00000000000001
    vertex -2.5892191418956885 0.9265226577051185 0.0
  endloop
endfacet
facet normal 0.9415342334166139 -0.3369173300745883 0.0
  outer loop
    vertex -2.5892191418956885 0.9265226577051185 29.00000000000001
    vertex -2.261191929545977 1.5650913895859702 0.0
    vertex -2.261191929545977 1.5650913895859702 29.00000000000001
  endloop
endfacet
facet normal 0.9415342334166139 -0.3369173300745883 0.0
  outer loop
    vertex -2.5892191418956885 0.9265226577051185 0.0
    vertex -2.7407953486121537 0.2248129378527494 29.00000000000001
    vertex -2.7407953486121537 0.2248129378527494 0.0
  endloop
endfacet
facet normal 0.9966528540407831 -0.08175015921918152 0.0
  outer loop
    vertex -2.7407953486121537 0.2248129378527494 29.00000000000001
    vertex -2.5892191418956885 0.9265226577051185 0.0
    vertex -2.5892191418956885 0.9265226577051185 29.00000000000001
  endloop
endfacet
facet normal 0.9966528540407831 -0.08175015921918152 0.0
  outer loop
    vertex -2.7407953486121537 0.2248129378527494 0.0
    vertex -2.7055908816991705 -0.49221741219333714 29.00000000000001
    vertex -2.7055908816991705 -0.49221741219333714 0.0
  endloop
endfacet
facet normal 0.9838512297087894 0.17898814988848624 0.0
  outer loop
    vertex -2.7055908816991705 -0.49221741219333714 29.00000000000001
    vertex -2.7407953486121537 0.2248129378527494 0.0
    vertex -2.7407953486121537 0.2248129378527494 29.00000000000001
  endloop
endfacet
facet normal 0.9838512297087894 0.17898814988848624 0.0
  outer loop
    vertex -2.7055908816991705 -0.49221741219333714 0.0
    vertex -2.4860048673987265 -1.175703959026183 29.00000000000001
    vertex -2.4860048673987265 -1.175703959026183 0.0
  endloop
endfacet
facet normal 0.9040017699631733 0.4275287123731572 0.0
  outer loop
    vertex -2.4860048673987265 -1.175703959026183 29.00000000000001
    vertex -2.7055908816991705 -0.49221741219333714 0.0
    vertex -2.7055908816991705 -0.49221741219333714 29.00000000000001
  endloop
endfacet
facet normal 0.9040017699631733 0.4275287123731572 0.0
  outer loop
    vertex -2.4860048673987265 -1.175703959026183 0.0
    vertex -2.0970017297023507 -1.779068223994052 29.00000000000001
    vertex -2.0970017297023507 -1.779068223994052 0.0
  endloop
endfacet
facet normal 0.7625460835281274 0.6469338996342008 0.0
  outer loop
    vertex -2.0970017297023507 -1.779068223994052 29.00000000000001
    vertex -2.4860048673987265 -1.175703959026183 0.0
    vertex -2.4860048673987265 -1.175703959026183 29.00000000000001
  endloop
endfacet
facet normal 0.7625460835281274 0.6469338996342008 0.0
  outer loop
    vertex -2.0970017297023507 -1.779068223994052 29.00000000000001
    vertex -1.5650913895859706 -2.2611919295459764 0.0
    vertex -2.0970017297023507 -1.779068223994052 0.0
  endloop
endfacet
facet normal 0.5691241416676257 0.8222516107439916 0.0
  outer loop
    vertex -1.5650913895859706 -2.2611919295459764 0.0
    vertex -2.0970017297023507 -1.779068223994052 29.00000000000001
    vertex -1.5650913895859706 -2.2611919295459764 29.00000000000001
  endloop
endfacet
facet normal 0.5691241416676257 0.8222516107439916 0.0
  outer loop
    vertex -1.5650913895859706 -2.2611919295459764 29.00000000000001
    vertex -0.9265226577051185 -2.5892191418956885 0.0
    vertex -1.5650913895859706 -2.2611919295459764 0.0
  endloop
endfacet
facet normal 0.33691733007458874 0.9415342334166139 0.0
  outer loop
    vertex -0.9265226577051185 -2.5892191418956885 0.0
    vertex -1.5650913895859706 -2.2611919295459764 29.00000000000001
    vertex -0.9265226577051185 -2.5892191418956885 29.00000000000001
  endloop
endfacet
facet normal 0.33691733007458874 0.9415342334166139 0.0
  outer loop
    vertex -0.9265226577051185 -2.5892191418956885 29.00000000000001
    vertex -0.2248129378527506 -2.7407953486121537 0.0
    vertex -0.9265226577051185 -2.5892191418956885 0.0
  endloop
endfacet
facet normal 0.08175015921918204 0.9966528540407831 0.0
  outer loop
    vertex -0.2248129378527506 -2.7407953486121537 0.0
    vertex -0.9265226577051185 -2.5892191418956885 29.00000000000001
    vertex -0.2248129378527506 -2.7407953486121537 29.00000000000001
  endloop
endfacet
facet normal 0.08175015921918204 0.9966528540407831 0.0
  outer loop
    vertex -0.2248129378527506 -2.7407953486121537 29.00000000000001
    vertex 0.492217412193337 -2.7055908816991705 0.0
    vertex -0.2248129378527506 -2.7407953486121537 0.0
  endloop
endfacet
facet normal -0.17898814988848616 0.9838512297087892 0.0
  outer loop
    vertex 0.492217412193337 -2.7055908816991705 0.0
    vertex -0.2248129378527506 -2.7407953486121537 29.00000000000001
    vertex 0.492217412193337 -2.7055908816991705 29.00000000000001
  endloop
endfacet
facet normal -0.17898814988848616 0.9838512297087892 0.0
  outer loop
    vertex 0.492217412193337 -2.7055908816991705 29.00000000000001
    vertex 1.1757039590261817 -2.486004867398727 0.0
    vertex 0.492217412193337 -2.7055908816991705 0.0
  endloop
endfacet
facet normal -0.4275287123731572 0.9040017699631733 0.0
  outer loop
    vertex 1.1757039590261817 -2.486004867398727 0.0
    vertex 0.492217412193337 -2.7055908816991705 29.00000000000001
    vertex 1.1757039590261817 -2.486004867398727 29.00000000000001
  endloop
endfacet
facet normal -0.4275287123731572 0.9040017699631733 0.0
  outer loop
    vertex 1.1757039590261817 -2.486004867398727 29.00000000000001
    vertex 1.779068223994052 -2.0970017297023507 0.0
    vertex 1.1757039590261817 -2.486004867398727 0.0
  endloop
endfacet
facet normal -0.6469338996342004 0.7625460835281277 0.0
  outer loop
    vertex 1.779068223994052 -2.0970017297023507 0.0
    vertex 1.1757039590261817 -2.486004867398727 29.00000000000001
    vertex 1.779068223994052 -2.0970017297023507 29.00000000000001
  endloop
endfacet
facet normal -0.8222516107439913 0.5691241416676258 0.0
  outer loop
    vertex 2.2611919295459764 -1.5650913895859708 29.00000000000001
    vertex 1.779068223994052 -2.0970017297023507 0.0
    vertex 1.779068223994052 -2.0970017297023507 29.00000000000001
  endloop
endfacet
facet normal -0.6469338996342004 0.7625460835281277 0.0
  outer loop
    vertex 1.779068223994052 -2.0970017297023507 0.0
    vertex 2.2611919295459764 -1.5650913895859708 29.00000000000001
    vertex 2.2611919295459764 -1.5650913895859708 0.0
  endloop
endfacet
facet normal -0.9415342334166137 0.336917330074589 0.0
  outer loop
    vertex 2.5892191418956876 -0.9265226577051201 29.00000000000001
    vertex 2.2611919295459764 -1.5650913895859708 0.0
    vertex 2.2611919295459764 -1.5650913895859708 29.00000000000001
  endloop
endfacet
facet normal -0.8222516107439913 0.5691241416676258 0.0
  outer loop
    vertex 2.2611919295459764 -1.5650913895859708 0.0
    vertex 2.5892191418956876 -0.9265226577051201 29.00000000000001
    vertex 2.5892191418956876 -0.9265226577051201 0.0
  endloop
endfacet
facet normal -0.9966528540407831 0.08175015921918205 0.0
  outer loop
    vertex 2.7407953486121537 -0.22481293785274956 29.00000000000001
    vertex 2.5892191418956876 -0.9265226577051201 0.0
    vertex 2.5892191418956876 -0.9265226577051201 29.00000000000001
  endloop
endfacet
facet normal -0.9415342334166137 0.336917330074589 0.0
  outer loop
    vertex 2.5892191418956876 -0.9265226577051201 0.0
    vertex 2.7407953486121537 -0.22481293785274956 29.00000000000001
    vertex 2.7407953486121537 -0.22481293785274956 0.0
  endloop
endfacet
facet normal -0.9838512297087894 -0.17898814988848646 0.0
  outer loop
    vertex 2.7055908816991705 0.492217412193337 29.00000000000001
    vertex 2.7407953486121537 -0.22481293785274956 0.0
    vertex 2.7407953486121537 -0.22481293785274956 29.00000000000001
  endloop
endfacet
facet normal -0.9966528540407831 0.08175015921918205 0.0
  outer loop
    vertex 2.7407953486121537 -0.22481293785274956 0.0
    vertex 2.7055908816991705 0.492217412193337 29.00000000000001
    vertex 2.7055908816991705 0.492217412193337 0.0
  endloop
endfacet
facet normal -0.9040017699631733 -0.4275287123731573 0.0
  outer loop
    vertex 2.486004867398727 1.1757039590261817 29.00000000000001
    vertex 2.7055908816991705 0.492217412193337 0.0
    vertex 2.7055908816991705 0.492217412193337 29.00000000000001
  endloop
endfacet
facet normal -0.9838512297087894 -0.17898814988848646 0.0
  outer loop
    vertex 2.7055908816991705 0.492217412193337 0.0
    vertex 2.486004867398727 1.1757039590261817 29.00000000000001
    vertex 2.486004867398727 1.1757039590261817 0.0
  endloop
endfacet
facet normal -0.7625460835281276 -0.6469338996342008 0.0
  outer loop
    vertex 2.09700172970235 1.7790682239940523 29.00000000000001
    vertex 2.486004867398727 1.1757039590261817 0.0
    vertex 2.486004867398727 1.1757039590261817 29.00000000000001
  endloop
endfacet
facet normal -0.9040017699631733 -0.4275287123731573 0.0
  outer loop
    vertex 2.486004867398727 1.1757039590261817 0.0
    vertex 2.09700172970235 1.7790682239940523 29.00000000000001
    vertex 2.09700172970235 1.7790682239940523 0.0
  endloop
endfacet
endsolid spacer-29mm
